G04 #@! TF.GenerationSoftware,KiCad,Pcbnew,6.0.10-86aedd382b~118~ubuntu20.04.1*
G04 #@! TF.CreationDate,2023-01-30T13:16:44+00:00*
G04 #@! TF.ProjectId,srom,73726f6d-2e6b-4696-9361-645f70636258,rev?*
G04 #@! TF.SameCoordinates,Original*
G04 #@! TF.FileFunction,Legend,Top*
G04 #@! TF.FilePolarity,Positive*
%FSLAX46Y46*%
G04 Gerber Fmt 4.6, Leading zero omitted, Abs format (unit mm)*
G04 Created by KiCad (PCBNEW 6.0.10-86aedd382b~118~ubuntu20.04.1) date 2023-01-30 13:16:44*
%MOMM*%
%LPD*%
G01*
G04 APERTURE LIST*
G04 Aperture macros list*
%AMRoundRect*
0 Rectangle with rounded corners*
0 $1 Rounding radius*
0 $2 $3 $4 $5 $6 $7 $8 $9 X,Y pos of 4 corners*
0 Add a 4 corners polygon primitive as box body*
4,1,4,$2,$3,$4,$5,$6,$7,$8,$9,$2,$3,0*
0 Add four circle primitives for the rounded corners*
1,1,$1+$1,$2,$3*
1,1,$1+$1,$4,$5*
1,1,$1+$1,$6,$7*
1,1,$1+$1,$8,$9*
0 Add four rect primitives between the rounded corners*
20,1,$1+$1,$2,$3,$4,$5,0*
20,1,$1+$1,$4,$5,$6,$7,0*
20,1,$1+$1,$6,$7,$8,$9,0*
20,1,$1+$1,$8,$9,$2,$3,0*%
G04 Aperture macros list end*
%ADD10C,0.414706*%
%ADD11C,0.150000*%
%ADD12C,0.125000*%
%ADD13C,0.120000*%
%ADD14C,2.000000*%
%ADD15RoundRect,0.250000X-0.325000X-0.650000X0.325000X-0.650000X0.325000X0.650000X-0.325000X0.650000X0*%
%ADD16RoundRect,0.150000X-0.837500X-0.150000X0.837500X-0.150000X0.837500X0.150000X-0.837500X0.150000X0*%
%ADD17RoundRect,0.250000X-0.650000X0.325000X-0.650000X-0.325000X0.650000X-0.325000X0.650000X0.325000X0*%
%ADD18RoundRect,0.250000X0.625000X-0.400000X0.625000X0.400000X-0.625000X0.400000X-0.625000X-0.400000X0*%
%ADD19RoundRect,0.250000X0.325000X0.650000X-0.325000X0.650000X-0.325000X-0.650000X0.325000X-0.650000X0*%
%ADD20RoundRect,0.150000X-0.825000X-0.150000X0.825000X-0.150000X0.825000X0.150000X-0.825000X0.150000X0*%
%ADD21RoundRect,0.150000X0.150000X-0.512500X0.150000X0.512500X-0.150000X0.512500X-0.150000X-0.512500X0*%
%ADD22R,1.700000X1.700000*%
%ADD23O,1.700000X1.700000*%
%ADD24RoundRect,0.250001X0.462499X0.624999X-0.462499X0.624999X-0.462499X-0.624999X0.462499X-0.624999X0*%
%ADD25C,1.524000*%
%ADD26O,1.800000X1.800000*%
%ADD27O,1.500000X1.500000*%
%ADD28R,3.500000X1.700000*%
%ADD29R,1.700000X3.500000*%
G04 APERTURE END LIST*
D10*
X59667353Y-109740000D02*
G75*
G03*
X59667353Y-109740000I-207353J0D01*
G01*
D11*
X89260000Y-108995000D02*
X89260000Y-111665000D01*
X95750000Y-53530000D02*
X94810000Y-53520000D01*
D10*
X59897353Y-56990000D02*
G75*
G03*
X59897353Y-56990000I-207353J0D01*
G01*
D11*
X26460000Y-62480000D02*
X34750000Y-62480000D01*
X34750000Y-62480000D02*
X34750000Y-64940000D01*
X34750000Y-64940000D02*
X26460000Y-64940000D01*
X26460000Y-64940000D02*
X26460000Y-62480000D01*
G36*
X26460000Y-62480000D02*
G01*
X34750000Y-62480000D01*
X34750000Y-64940000D01*
X26460000Y-64940000D01*
X26460000Y-62480000D01*
G37*
X95530000Y-53520000D02*
X95040000Y-53220000D01*
X95540000Y-53160000D02*
X95540000Y-53830000D01*
D10*
X59877353Y-76330000D02*
G75*
G03*
X59877353Y-76330000I-207353J0D01*
G01*
D11*
X91790000Y-108975000D02*
X91790000Y-111645000D01*
D10*
X77637353Y-56310000D02*
G75*
G03*
X77637353Y-56310000I-207353J0D01*
G01*
D11*
X86680000Y-108980000D02*
X86680000Y-111650000D01*
D10*
X60657353Y-89790000D02*
G75*
G03*
X60657353Y-89790000I-207353J0D01*
G01*
D11*
X95030000Y-53860000D02*
X95530000Y-53520000D01*
X95030000Y-53180000D02*
X95030000Y-53860000D01*
D12*
X101383809Y-51550000D02*
X101336190Y-51502380D01*
X101264761Y-51502380D01*
X101193333Y-51550000D01*
X101145714Y-51645238D01*
X101121904Y-51740476D01*
X101098095Y-51930952D01*
X101098095Y-52073809D01*
X101121904Y-52264285D01*
X101145714Y-52359523D01*
X101193333Y-52454761D01*
X101264761Y-52502380D01*
X101312380Y-52502380D01*
X101383809Y-52454761D01*
X101407619Y-52407142D01*
X101407619Y-52073809D01*
X101312380Y-52073809D01*
X101621904Y-52502380D02*
X101621904Y-51502380D01*
X101812380Y-51502380D01*
X101860000Y-51550000D01*
X101883809Y-51597619D01*
X101907619Y-51692857D01*
X101907619Y-51835714D01*
X101883809Y-51930952D01*
X101860000Y-51978571D01*
X101812380Y-52026190D01*
X101621904Y-52026190D01*
X102121904Y-52502380D02*
X102121904Y-51502380D01*
X102455238Y-51502380D02*
X102550476Y-51502380D01*
X102598095Y-51550000D01*
X102645714Y-51645238D01*
X102669523Y-51835714D01*
X102669523Y-52169047D01*
X102645714Y-52359523D01*
X102598095Y-52454761D01*
X102550476Y-52502380D01*
X102455238Y-52502380D01*
X102407619Y-52454761D01*
X102360000Y-52359523D01*
X102336190Y-52169047D01*
X102336190Y-51835714D01*
X102360000Y-51645238D01*
X102407619Y-51550000D01*
X102455238Y-51502380D01*
X102860000Y-51597619D02*
X102883809Y-51550000D01*
X102931428Y-51502380D01*
X103050476Y-51502380D01*
X103098095Y-51550000D01*
X103121904Y-51597619D01*
X103145714Y-51692857D01*
X103145714Y-51788095D01*
X103121904Y-51930952D01*
X102836190Y-52502380D01*
X103145714Y-52502380D01*
X103431428Y-51930952D02*
X103383809Y-51883333D01*
X103360000Y-51835714D01*
X103336190Y-51740476D01*
X103336190Y-51692857D01*
X103360000Y-51597619D01*
X103383809Y-51550000D01*
X103431428Y-51502380D01*
X103526666Y-51502380D01*
X103574285Y-51550000D01*
X103598095Y-51597619D01*
X103621904Y-51692857D01*
X103621904Y-51740476D01*
X103598095Y-51835714D01*
X103574285Y-51883333D01*
X103526666Y-51930952D01*
X103431428Y-51930952D01*
X103383809Y-51978571D01*
X103360000Y-52026190D01*
X103336190Y-52121428D01*
X103336190Y-52311904D01*
X103360000Y-52407142D01*
X103383809Y-52454761D01*
X103431428Y-52502380D01*
X103526666Y-52502380D01*
X103574285Y-52454761D01*
X103598095Y-52407142D01*
X103621904Y-52311904D01*
X103621904Y-52121428D01*
X103598095Y-52026190D01*
X103574285Y-51978571D01*
X103526666Y-51930952D01*
X103323809Y-53010000D02*
X103276190Y-52962380D01*
X103204761Y-52962380D01*
X103133333Y-53010000D01*
X103085714Y-53105238D01*
X103061904Y-53200476D01*
X103038095Y-53390952D01*
X103038095Y-53533809D01*
X103061904Y-53724285D01*
X103085714Y-53819523D01*
X103133333Y-53914761D01*
X103204761Y-53962380D01*
X103252380Y-53962380D01*
X103323809Y-53914761D01*
X103347619Y-53867142D01*
X103347619Y-53533809D01*
X103252380Y-53533809D01*
X103561904Y-53962380D02*
X103561904Y-52962380D01*
X103752380Y-52962380D01*
X103800000Y-53010000D01*
X103823809Y-53057619D01*
X103847619Y-53152857D01*
X103847619Y-53295714D01*
X103823809Y-53390952D01*
X103800000Y-53438571D01*
X103752380Y-53486190D01*
X103561904Y-53486190D01*
X104061904Y-53962380D02*
X104061904Y-52962380D01*
X104395238Y-52962380D02*
X104490476Y-52962380D01*
X104538095Y-53010000D01*
X104585714Y-53105238D01*
X104609523Y-53295714D01*
X104609523Y-53629047D01*
X104585714Y-53819523D01*
X104538095Y-53914761D01*
X104490476Y-53962380D01*
X104395238Y-53962380D01*
X104347619Y-53914761D01*
X104300000Y-53819523D01*
X104276190Y-53629047D01*
X104276190Y-53295714D01*
X104300000Y-53105238D01*
X104347619Y-53010000D01*
X104395238Y-52962380D01*
X104800000Y-53057619D02*
X104823809Y-53010000D01*
X104871428Y-52962380D01*
X104990476Y-52962380D01*
X105038095Y-53010000D01*
X105061904Y-53057619D01*
X105085714Y-53152857D01*
X105085714Y-53248095D01*
X105061904Y-53390952D01*
X104776190Y-53962380D01*
X105085714Y-53962380D01*
X105252380Y-52962380D02*
X105585714Y-52962380D01*
X105371428Y-53962380D01*
X73438571Y-51205714D02*
X73438571Y-52015238D01*
X73414761Y-52110476D01*
X73390952Y-52158095D01*
X73343333Y-52205714D01*
X73271904Y-52205714D01*
X73224285Y-52158095D01*
X73438571Y-51824761D02*
X73390952Y-51872380D01*
X73295714Y-51872380D01*
X73248095Y-51824761D01*
X73224285Y-51777142D01*
X73200476Y-51681904D01*
X73200476Y-51396190D01*
X73224285Y-51300952D01*
X73248095Y-51253333D01*
X73295714Y-51205714D01*
X73390952Y-51205714D01*
X73438571Y-51253333D01*
X73676666Y-51872380D02*
X73676666Y-51205714D01*
X73676666Y-50872380D02*
X73652857Y-50920000D01*
X73676666Y-50967619D01*
X73700476Y-50920000D01*
X73676666Y-50872380D01*
X73676666Y-50967619D01*
X73843333Y-51205714D02*
X74033809Y-51205714D01*
X73914761Y-50872380D02*
X73914761Y-51729523D01*
X73938571Y-51824761D01*
X73986190Y-51872380D01*
X74033809Y-51872380D01*
X74200476Y-51872380D02*
X74200476Y-50872380D01*
X74414761Y-51872380D02*
X74414761Y-51348571D01*
X74390952Y-51253333D01*
X74343333Y-51205714D01*
X74271904Y-51205714D01*
X74224285Y-51253333D01*
X74200476Y-51300952D01*
X74867142Y-51205714D02*
X74867142Y-51872380D01*
X74652857Y-51205714D02*
X74652857Y-51729523D01*
X74676666Y-51824761D01*
X74724285Y-51872380D01*
X74795714Y-51872380D01*
X74843333Y-51824761D01*
X74867142Y-51777142D01*
X75105238Y-51872380D02*
X75105238Y-50872380D01*
X75105238Y-51253333D02*
X75152857Y-51205714D01*
X75248095Y-51205714D01*
X75295714Y-51253333D01*
X75319523Y-51300952D01*
X75343333Y-51396190D01*
X75343333Y-51681904D01*
X75319523Y-51777142D01*
X75295714Y-51824761D01*
X75248095Y-51872380D01*
X75152857Y-51872380D01*
X75105238Y-51824761D01*
X75557619Y-51777142D02*
X75581428Y-51824761D01*
X75557619Y-51872380D01*
X75533809Y-51824761D01*
X75557619Y-51777142D01*
X75557619Y-51872380D01*
X76010000Y-51824761D02*
X75962380Y-51872380D01*
X75867142Y-51872380D01*
X75819523Y-51824761D01*
X75795714Y-51777142D01*
X75771904Y-51681904D01*
X75771904Y-51396190D01*
X75795714Y-51300952D01*
X75819523Y-51253333D01*
X75867142Y-51205714D01*
X75962380Y-51205714D01*
X76010000Y-51253333D01*
X76295714Y-51872380D02*
X76248095Y-51824761D01*
X76224285Y-51777142D01*
X76200476Y-51681904D01*
X76200476Y-51396190D01*
X76224285Y-51300952D01*
X76248095Y-51253333D01*
X76295714Y-51205714D01*
X76367142Y-51205714D01*
X76414761Y-51253333D01*
X76438571Y-51300952D01*
X76462380Y-51396190D01*
X76462380Y-51681904D01*
X76438571Y-51777142D01*
X76414761Y-51824761D01*
X76367142Y-51872380D01*
X76295714Y-51872380D01*
X76676666Y-51872380D02*
X76676666Y-51205714D01*
X76676666Y-51300952D02*
X76700476Y-51253333D01*
X76748095Y-51205714D01*
X76819523Y-51205714D01*
X76867142Y-51253333D01*
X76890952Y-51348571D01*
X76890952Y-51872380D01*
X76890952Y-51348571D02*
X76914761Y-51253333D01*
X76962380Y-51205714D01*
X77033809Y-51205714D01*
X77081428Y-51253333D01*
X77105238Y-51348571D01*
X77105238Y-51872380D01*
X77700476Y-50824761D02*
X77271904Y-52110476D01*
X78081428Y-51872380D02*
X78081428Y-50872380D01*
X78081428Y-51824761D02*
X78033809Y-51872380D01*
X77938571Y-51872380D01*
X77890952Y-51824761D01*
X77867142Y-51777142D01*
X77843333Y-51681904D01*
X77843333Y-51396190D01*
X77867142Y-51300952D01*
X77890952Y-51253333D01*
X77938571Y-51205714D01*
X78033809Y-51205714D01*
X78081428Y-51253333D01*
X78510000Y-51824761D02*
X78462380Y-51872380D01*
X78367142Y-51872380D01*
X78319523Y-51824761D01*
X78295714Y-51729523D01*
X78295714Y-51348571D01*
X78319523Y-51253333D01*
X78367142Y-51205714D01*
X78462380Y-51205714D01*
X78510000Y-51253333D01*
X78533809Y-51348571D01*
X78533809Y-51443809D01*
X78295714Y-51539047D01*
X78748095Y-51872380D02*
X78748095Y-51205714D01*
X78748095Y-51396190D02*
X78771904Y-51300952D01*
X78795714Y-51253333D01*
X78843333Y-51205714D01*
X78890952Y-51205714D01*
X79248095Y-51824761D02*
X79200476Y-51872380D01*
X79105238Y-51872380D01*
X79057619Y-51824761D01*
X79033809Y-51729523D01*
X79033809Y-51348571D01*
X79057619Y-51253333D01*
X79105238Y-51205714D01*
X79200476Y-51205714D01*
X79248095Y-51253333D01*
X79271904Y-51348571D01*
X79271904Y-51443809D01*
X79033809Y-51539047D01*
X79486190Y-51872380D02*
X79486190Y-50872380D01*
X79533809Y-51491428D02*
X79676666Y-51872380D01*
X79676666Y-51205714D02*
X79486190Y-51586666D01*
X79819523Y-51205714D02*
X80010000Y-51205714D01*
X79890952Y-51872380D02*
X79890952Y-51015238D01*
X79914761Y-50920000D01*
X79962380Y-50872380D01*
X80010000Y-50872380D01*
X80248095Y-51872380D02*
X80200476Y-51824761D01*
X80176666Y-51777142D01*
X80152857Y-51681904D01*
X80152857Y-51396190D01*
X80176666Y-51300952D01*
X80200476Y-51253333D01*
X80248095Y-51205714D01*
X80319523Y-51205714D01*
X80367142Y-51253333D01*
X80390952Y-51300952D01*
X80414761Y-51396190D01*
X80414761Y-51681904D01*
X80390952Y-51777142D01*
X80367142Y-51824761D01*
X80319523Y-51872380D01*
X80248095Y-51872380D01*
X80843333Y-51205714D02*
X80843333Y-51872380D01*
X80629047Y-51205714D02*
X80629047Y-51729523D01*
X80652857Y-51824761D01*
X80700476Y-51872380D01*
X80771904Y-51872380D01*
X80819523Y-51824761D01*
X80843333Y-51777142D01*
X81081428Y-51205714D02*
X81081428Y-51872380D01*
X81081428Y-51300952D02*
X81105238Y-51253333D01*
X81152857Y-51205714D01*
X81224285Y-51205714D01*
X81271904Y-51253333D01*
X81295714Y-51348571D01*
X81295714Y-51872380D01*
X81462380Y-51205714D02*
X81652857Y-51205714D01*
X81533809Y-50872380D02*
X81533809Y-51729523D01*
X81557619Y-51824761D01*
X81605238Y-51872380D01*
X81652857Y-51872380D01*
X82033809Y-51872380D02*
X82033809Y-51348571D01*
X82010000Y-51253333D01*
X81962380Y-51205714D01*
X81867142Y-51205714D01*
X81819523Y-51253333D01*
X82033809Y-51824761D02*
X81986190Y-51872380D01*
X81867142Y-51872380D01*
X81819523Y-51824761D01*
X81795714Y-51729523D01*
X81795714Y-51634285D01*
X81819523Y-51539047D01*
X81867142Y-51491428D01*
X81986190Y-51491428D01*
X82033809Y-51443809D01*
X82271904Y-51872380D02*
X82271904Y-51205714D01*
X82271904Y-50872380D02*
X82248095Y-50920000D01*
X82271904Y-50967619D01*
X82295714Y-50920000D01*
X82271904Y-50872380D01*
X82271904Y-50967619D01*
X82510000Y-51205714D02*
X82510000Y-51872380D01*
X82510000Y-51300952D02*
X82533809Y-51253333D01*
X82581428Y-51205714D01*
X82652857Y-51205714D01*
X82700476Y-51253333D01*
X82724285Y-51348571D01*
X82724285Y-51872380D01*
X83319523Y-50824761D02*
X82890952Y-52110476D01*
X83438571Y-51205714D02*
X83700476Y-51205714D01*
X83438571Y-51872380D01*
X83700476Y-51872380D01*
X83843333Y-51872380D02*
X84105238Y-51205714D01*
X83843333Y-51205714D02*
X84105238Y-51872380D01*
X84295714Y-51491428D02*
X84676666Y-51491428D01*
X84890952Y-51824761D02*
X84938571Y-51872380D01*
X85033809Y-51872380D01*
X85081428Y-51824761D01*
X85105238Y-51729523D01*
X85105238Y-51681904D01*
X85081428Y-51586666D01*
X85033809Y-51539047D01*
X84962380Y-51539047D01*
X84914761Y-51491428D01*
X84890952Y-51396190D01*
X84890952Y-51348571D01*
X84914761Y-51253333D01*
X84962380Y-51205714D01*
X85033809Y-51205714D01*
X85081428Y-51253333D01*
X85319523Y-51205714D02*
X85319523Y-52205714D01*
X85319523Y-51253333D02*
X85367142Y-51205714D01*
X85462380Y-51205714D01*
X85510000Y-51253333D01*
X85533809Y-51300952D01*
X85557619Y-51396190D01*
X85557619Y-51681904D01*
X85533809Y-51777142D01*
X85510000Y-51824761D01*
X85462380Y-51872380D01*
X85367142Y-51872380D01*
X85319523Y-51824761D01*
X85962380Y-51824761D02*
X85914761Y-51872380D01*
X85819523Y-51872380D01*
X85771904Y-51824761D01*
X85748095Y-51729523D01*
X85748095Y-51348571D01*
X85771904Y-51253333D01*
X85819523Y-51205714D01*
X85914761Y-51205714D01*
X85962380Y-51253333D01*
X85986190Y-51348571D01*
X85986190Y-51443809D01*
X85748095Y-51539047D01*
X86414761Y-51824761D02*
X86367142Y-51872380D01*
X86271904Y-51872380D01*
X86224285Y-51824761D01*
X86200476Y-51777142D01*
X86176666Y-51681904D01*
X86176666Y-51396190D01*
X86200476Y-51300952D01*
X86224285Y-51253333D01*
X86271904Y-51205714D01*
X86367142Y-51205714D01*
X86414761Y-51253333D01*
X86557619Y-51205714D02*
X86748095Y-51205714D01*
X86629047Y-50872380D02*
X86629047Y-51729523D01*
X86652857Y-51824761D01*
X86700476Y-51872380D01*
X86748095Y-51872380D01*
X86914761Y-51872380D02*
X86914761Y-51205714D01*
X86914761Y-51396190D02*
X86938571Y-51300952D01*
X86962380Y-51253333D01*
X87010000Y-51205714D01*
X87057619Y-51205714D01*
X87438571Y-51205714D02*
X87438571Y-51872380D01*
X87224285Y-51205714D02*
X87224285Y-51729523D01*
X87248095Y-51824761D01*
X87295714Y-51872380D01*
X87367142Y-51872380D01*
X87414761Y-51824761D01*
X87438571Y-51777142D01*
X87676666Y-51872380D02*
X87676666Y-51205714D01*
X87676666Y-51300952D02*
X87700476Y-51253333D01*
X87748095Y-51205714D01*
X87819523Y-51205714D01*
X87867142Y-51253333D01*
X87890952Y-51348571D01*
X87890952Y-51872380D01*
X87890952Y-51348571D02*
X87914761Y-51253333D01*
X87962380Y-51205714D01*
X88033809Y-51205714D01*
X88081428Y-51253333D01*
X88105238Y-51348571D01*
X88105238Y-51872380D01*
X88343333Y-51491428D02*
X88724285Y-51491428D01*
X88962380Y-51205714D02*
X88962380Y-52205714D01*
X88962380Y-51253333D02*
X89009999Y-51205714D01*
X89105238Y-51205714D01*
X89152857Y-51253333D01*
X89176666Y-51300952D01*
X89200476Y-51396190D01*
X89200476Y-51681904D01*
X89176666Y-51777142D01*
X89152857Y-51824761D01*
X89105238Y-51872380D01*
X89009999Y-51872380D01*
X88962380Y-51824761D01*
X89414761Y-51872380D02*
X89414761Y-51205714D01*
X89414761Y-50872380D02*
X89390952Y-50920000D01*
X89414761Y-50967619D01*
X89438571Y-50920000D01*
X89414761Y-50872380D01*
X89414761Y-50967619D01*
X89867142Y-51824761D02*
X89819523Y-51872380D01*
X89724285Y-51872380D01*
X89676666Y-51824761D01*
X89652857Y-51777142D01*
X89629047Y-51681904D01*
X89629047Y-51396190D01*
X89652857Y-51300952D01*
X89676666Y-51253333D01*
X89724285Y-51205714D01*
X89819523Y-51205714D01*
X89867142Y-51253333D01*
X90152857Y-51872380D02*
X90105238Y-51824761D01*
X90081428Y-51777142D01*
X90057619Y-51681904D01*
X90057619Y-51396190D01*
X90081428Y-51300952D01*
X90105238Y-51253333D01*
X90152857Y-51205714D01*
X90224285Y-51205714D01*
X90271904Y-51253333D01*
X90295714Y-51300952D01*
X90319523Y-51396190D01*
X90319523Y-51681904D01*
X90295714Y-51777142D01*
X90271904Y-51824761D01*
X90224285Y-51872380D01*
X90152857Y-51872380D01*
X90533809Y-51491428D02*
X90914761Y-51491428D01*
X91152857Y-51872380D02*
X91152857Y-51205714D01*
X91152857Y-51396190D02*
X91176666Y-51300952D01*
X91200476Y-51253333D01*
X91248095Y-51205714D01*
X91295714Y-51205714D01*
X91533809Y-51872380D02*
X91486190Y-51824761D01*
X91462380Y-51777142D01*
X91438571Y-51681904D01*
X91438571Y-51396190D01*
X91462380Y-51300952D01*
X91486190Y-51253333D01*
X91533809Y-51205714D01*
X91605238Y-51205714D01*
X91652857Y-51253333D01*
X91676666Y-51300952D01*
X91700476Y-51396190D01*
X91700476Y-51681904D01*
X91676666Y-51777142D01*
X91652857Y-51824761D01*
X91605238Y-51872380D01*
X91533809Y-51872380D01*
X91914761Y-51872380D02*
X91914761Y-51205714D01*
X91914761Y-51300952D02*
X91938571Y-51253333D01*
X91986190Y-51205714D01*
X92057619Y-51205714D01*
X92105238Y-51253333D01*
X92129047Y-51348571D01*
X92129047Y-51872380D01*
X92129047Y-51348571D02*
X92152857Y-51253333D01*
X92200476Y-51205714D01*
X92271904Y-51205714D01*
X92319523Y-51253333D01*
X92343333Y-51348571D01*
X92343333Y-51872380D01*
X92914761Y-51205714D02*
X93033809Y-51872380D01*
X93152857Y-51205714D01*
X93605238Y-51872380D02*
X93319523Y-51872380D01*
X93462380Y-51872380D02*
X93462380Y-50872380D01*
X93414761Y-51015238D01*
X93367142Y-51110476D01*
X93319523Y-51158095D01*
X93819523Y-51777142D02*
X93843333Y-51824761D01*
X93819523Y-51872380D01*
X93795714Y-51824761D01*
X93819523Y-51777142D01*
X93819523Y-51872380D01*
X94319523Y-51872380D02*
X94033809Y-51872380D01*
X94176666Y-51872380D02*
X94176666Y-50872380D01*
X94129047Y-51015238D01*
X94081428Y-51110476D01*
X94033809Y-51158095D01*
D11*
X68329523Y-73082380D02*
X67853333Y-73082380D01*
X67805714Y-73558571D01*
X67853333Y-73510952D01*
X67948571Y-73463333D01*
X68186666Y-73463333D01*
X68281904Y-73510952D01*
X68329523Y-73558571D01*
X68377142Y-73653809D01*
X68377142Y-73891904D01*
X68329523Y-73987142D01*
X68281904Y-74034761D01*
X68186666Y-74082380D01*
X67948571Y-74082380D01*
X67853333Y-74034761D01*
X67805714Y-73987142D01*
X68662857Y-73082380D02*
X68996190Y-74082380D01*
X69329523Y-73082380D01*
D12*
X88859047Y-115230000D02*
X88811428Y-115182380D01*
X88740000Y-115182380D01*
X88668571Y-115230000D01*
X88620952Y-115325238D01*
X88597142Y-115420476D01*
X88573333Y-115610952D01*
X88573333Y-115753809D01*
X88597142Y-115944285D01*
X88620952Y-116039523D01*
X88668571Y-116134761D01*
X88740000Y-116182380D01*
X88787619Y-116182380D01*
X88859047Y-116134761D01*
X88882857Y-116087142D01*
X88882857Y-115753809D01*
X88787619Y-115753809D01*
X89097142Y-116182380D02*
X89097142Y-115182380D01*
X89382857Y-116182380D01*
X89382857Y-115182380D01*
X89620952Y-116182380D02*
X89620952Y-115182380D01*
X89740000Y-115182380D01*
X89811428Y-115230000D01*
X89859047Y-115325238D01*
X89882857Y-115420476D01*
X89906666Y-115610952D01*
X89906666Y-115753809D01*
X89882857Y-115944285D01*
X89859047Y-116039523D01*
X89811428Y-116134761D01*
X89740000Y-116182380D01*
X89620952Y-116182380D01*
D11*
X93061904Y-124222380D02*
X93680952Y-124222380D01*
X93347619Y-124603333D01*
X93490476Y-124603333D01*
X93585714Y-124650952D01*
X93633333Y-124698571D01*
X93680952Y-124793809D01*
X93680952Y-125031904D01*
X93633333Y-125127142D01*
X93585714Y-125174761D01*
X93490476Y-125222380D01*
X93204761Y-125222380D01*
X93109523Y-125174761D01*
X93061904Y-125127142D01*
X93966666Y-124222380D02*
X94300000Y-125222380D01*
X94633333Y-124222380D01*
X94871428Y-124222380D02*
X95490476Y-124222380D01*
X95157142Y-124603333D01*
X95300000Y-124603333D01*
X95395238Y-124650952D01*
X95442857Y-124698571D01*
X95490476Y-124793809D01*
X95490476Y-125031904D01*
X95442857Y-125127142D01*
X95395238Y-125174761D01*
X95300000Y-125222380D01*
X95014285Y-125222380D01*
X94919047Y-125174761D01*
X94871428Y-125127142D01*
D12*
X70293809Y-82727380D02*
X70127142Y-82251190D01*
X70008095Y-82727380D02*
X70008095Y-81727380D01*
X70198571Y-81727380D01*
X70246190Y-81775000D01*
X70270000Y-81822619D01*
X70293809Y-81917857D01*
X70293809Y-82060714D01*
X70270000Y-82155952D01*
X70246190Y-82203571D01*
X70198571Y-82251190D01*
X70008095Y-82251190D01*
X70603333Y-81727380D02*
X70698571Y-81727380D01*
X70746190Y-81775000D01*
X70793809Y-81870238D01*
X70817619Y-82060714D01*
X70817619Y-82394047D01*
X70793809Y-82584523D01*
X70746190Y-82679761D01*
X70698571Y-82727380D01*
X70603333Y-82727380D01*
X70555714Y-82679761D01*
X70508095Y-82584523D01*
X70484285Y-82394047D01*
X70484285Y-82060714D01*
X70508095Y-81870238D01*
X70555714Y-81775000D01*
X70603333Y-81727380D01*
X71031904Y-82727380D02*
X71031904Y-81727380D01*
X71198571Y-82441666D01*
X71365238Y-81727380D01*
X71365238Y-82727380D01*
X71960476Y-82441666D02*
X72198571Y-82441666D01*
X71912857Y-82727380D02*
X72079523Y-81727380D01*
X72246190Y-82727380D01*
X72627142Y-82679761D02*
X72579523Y-82727380D01*
X72484285Y-82727380D01*
X72436666Y-82679761D01*
X72412857Y-82632142D01*
X72389047Y-82536904D01*
X72389047Y-82251190D01*
X72412857Y-82155952D01*
X72436666Y-82108333D01*
X72484285Y-82060714D01*
X72579523Y-82060714D01*
X72627142Y-82108333D01*
X73055714Y-82679761D02*
X73008095Y-82727380D01*
X72912857Y-82727380D01*
X72865238Y-82679761D01*
X72841428Y-82632142D01*
X72817619Y-82536904D01*
X72817619Y-82251190D01*
X72841428Y-82155952D01*
X72865238Y-82108333D01*
X72912857Y-82060714D01*
X73008095Y-82060714D01*
X73055714Y-82108333D01*
X70900952Y-83337380D02*
X71210476Y-83337380D01*
X71043809Y-83718333D01*
X71115238Y-83718333D01*
X71162857Y-83765952D01*
X71186666Y-83813571D01*
X71210476Y-83908809D01*
X71210476Y-84146904D01*
X71186666Y-84242142D01*
X71162857Y-84289761D01*
X71115238Y-84337380D01*
X70972380Y-84337380D01*
X70924761Y-84289761D01*
X70900952Y-84242142D01*
X71353333Y-83337380D02*
X71520000Y-84337380D01*
X71686666Y-83337380D01*
X71805714Y-83337380D02*
X72115238Y-83337380D01*
X71948571Y-83718333D01*
X72020000Y-83718333D01*
X72067619Y-83765952D01*
X72091428Y-83813571D01*
X72115238Y-83908809D01*
X72115238Y-84146904D01*
X72091428Y-84242142D01*
X72067619Y-84289761D01*
X72020000Y-84337380D01*
X71877142Y-84337380D01*
X71829523Y-84289761D01*
X71805714Y-84242142D01*
D11*
X68318095Y-54800000D02*
X68222857Y-54752380D01*
X68080000Y-54752380D01*
X67937142Y-54800000D01*
X67841904Y-54895238D01*
X67794285Y-54990476D01*
X67746666Y-55180952D01*
X67746666Y-55323809D01*
X67794285Y-55514285D01*
X67841904Y-55609523D01*
X67937142Y-55704761D01*
X68080000Y-55752380D01*
X68175238Y-55752380D01*
X68318095Y-55704761D01*
X68365714Y-55657142D01*
X68365714Y-55323809D01*
X68175238Y-55323809D01*
X68794285Y-55752380D02*
X68794285Y-54752380D01*
X69365714Y-55752380D01*
X69365714Y-54752380D01*
X69841904Y-55752380D02*
X69841904Y-54752380D01*
X70080000Y-54752380D01*
X70222857Y-54800000D01*
X70318095Y-54895238D01*
X70365714Y-54990476D01*
X70413333Y-55180952D01*
X70413333Y-55323809D01*
X70365714Y-55514285D01*
X70318095Y-55609523D01*
X70222857Y-55704761D01*
X70080000Y-55752380D01*
X69841904Y-55752380D01*
X69133333Y-86847142D02*
X69085714Y-86894761D01*
X68942857Y-86942380D01*
X68847619Y-86942380D01*
X68704761Y-86894761D01*
X68609523Y-86799523D01*
X68561904Y-86704285D01*
X68514285Y-86513809D01*
X68514285Y-86370952D01*
X68561904Y-86180476D01*
X68609523Y-86085238D01*
X68704761Y-85990000D01*
X68847619Y-85942380D01*
X68942857Y-85942380D01*
X69085714Y-85990000D01*
X69133333Y-86037619D01*
X69514285Y-86037619D02*
X69561904Y-85990000D01*
X69657142Y-85942380D01*
X69895238Y-85942380D01*
X69990476Y-85990000D01*
X70038095Y-86037619D01*
X70085714Y-86132857D01*
X70085714Y-86228095D01*
X70038095Y-86370952D01*
X69466666Y-86942380D01*
X70085714Y-86942380D01*
X64028095Y-109122380D02*
X64028095Y-109931904D01*
X64075714Y-110027142D01*
X64123333Y-110074761D01*
X64218571Y-110122380D01*
X64409047Y-110122380D01*
X64504285Y-110074761D01*
X64551904Y-110027142D01*
X64599523Y-109931904D01*
X64599523Y-109122380D01*
X64980476Y-109122380D02*
X65599523Y-109122380D01*
X65266190Y-109503333D01*
X65409047Y-109503333D01*
X65504285Y-109550952D01*
X65551904Y-109598571D01*
X65599523Y-109693809D01*
X65599523Y-109931904D01*
X65551904Y-110027142D01*
X65504285Y-110074761D01*
X65409047Y-110122380D01*
X65123333Y-110122380D01*
X65028095Y-110074761D01*
X64980476Y-110027142D01*
X64008095Y-89302380D02*
X64008095Y-90111904D01*
X64055714Y-90207142D01*
X64103333Y-90254761D01*
X64198571Y-90302380D01*
X64389047Y-90302380D01*
X64484285Y-90254761D01*
X64531904Y-90207142D01*
X64579523Y-90111904D01*
X64579523Y-89302380D01*
X65008095Y-89397619D02*
X65055714Y-89350000D01*
X65150952Y-89302380D01*
X65389047Y-89302380D01*
X65484285Y-89350000D01*
X65531904Y-89397619D01*
X65579523Y-89492857D01*
X65579523Y-89588095D01*
X65531904Y-89730952D01*
X64960476Y-90302380D01*
X65579523Y-90302380D01*
X72727142Y-79026666D02*
X72774761Y-79074285D01*
X72822380Y-79217142D01*
X72822380Y-79312380D01*
X72774761Y-79455238D01*
X72679523Y-79550476D01*
X72584285Y-79598095D01*
X72393809Y-79645714D01*
X72250952Y-79645714D01*
X72060476Y-79598095D01*
X71965238Y-79550476D01*
X71870000Y-79455238D01*
X71822380Y-79312380D01*
X71822380Y-79217142D01*
X71870000Y-79074285D01*
X71917619Y-79026666D01*
X71822380Y-78693333D02*
X71822380Y-78074285D01*
X72203333Y-78407619D01*
X72203333Y-78264761D01*
X72250952Y-78169523D01*
X72298571Y-78121904D01*
X72393809Y-78074285D01*
X72631904Y-78074285D01*
X72727142Y-78121904D01*
X72774761Y-78169523D01*
X72822380Y-78264761D01*
X72822380Y-78550476D01*
X72774761Y-78645714D01*
X72727142Y-78693333D01*
X78572380Y-111196666D02*
X78096190Y-111530000D01*
X78572380Y-111768095D02*
X77572380Y-111768095D01*
X77572380Y-111387142D01*
X77620000Y-111291904D01*
X77667619Y-111244285D01*
X77762857Y-111196666D01*
X77905714Y-111196666D01*
X78000952Y-111244285D01*
X78048571Y-111291904D01*
X78096190Y-111387142D01*
X78096190Y-111768095D01*
X78572380Y-110244285D02*
X78572380Y-110815714D01*
X78572380Y-110530000D02*
X77572380Y-110530000D01*
X77715238Y-110625238D01*
X77810476Y-110720476D01*
X77858095Y-110815714D01*
X69043333Y-110087142D02*
X68995714Y-110134761D01*
X68852857Y-110182380D01*
X68757619Y-110182380D01*
X68614761Y-110134761D01*
X68519523Y-110039523D01*
X68471904Y-109944285D01*
X68424285Y-109753809D01*
X68424285Y-109610952D01*
X68471904Y-109420476D01*
X68519523Y-109325238D01*
X68614761Y-109230000D01*
X68757619Y-109182380D01*
X68852857Y-109182380D01*
X68995714Y-109230000D01*
X69043333Y-109277619D01*
X69900476Y-109515714D02*
X69900476Y-110182380D01*
X69662380Y-109134761D02*
X69424285Y-109849047D01*
X70043333Y-109849047D01*
X62978095Y-74972380D02*
X62978095Y-75781904D01*
X63025714Y-75877142D01*
X63073333Y-75924761D01*
X63168571Y-75972380D01*
X63359047Y-75972380D01*
X63454285Y-75924761D01*
X63501904Y-75877142D01*
X63549523Y-75781904D01*
X63549523Y-74972380D01*
X64549523Y-75972380D02*
X63978095Y-75972380D01*
X64263809Y-75972380D02*
X64263809Y-74972380D01*
X64168571Y-75115238D01*
X64073333Y-75210476D01*
X63978095Y-75258095D01*
X73787619Y-111485238D02*
X73740000Y-111580476D01*
X73644761Y-111675714D01*
X73501904Y-111818571D01*
X73454285Y-111913809D01*
X73454285Y-112009047D01*
X73692380Y-111961428D02*
X73644761Y-112056666D01*
X73549523Y-112151904D01*
X73359047Y-112199523D01*
X73025714Y-112199523D01*
X72835238Y-112151904D01*
X72740000Y-112056666D01*
X72692380Y-111961428D01*
X72692380Y-111770952D01*
X72740000Y-111675714D01*
X72835238Y-111580476D01*
X73025714Y-111532857D01*
X73359047Y-111532857D01*
X73549523Y-111580476D01*
X73644761Y-111675714D01*
X73692380Y-111770952D01*
X73692380Y-111961428D01*
X73692380Y-110580476D02*
X73692380Y-111151904D01*
X73692380Y-110866190D02*
X72692380Y-110866190D01*
X72835238Y-110961428D01*
X72930476Y-111056666D01*
X72978095Y-111151904D01*
X64008095Y-56422380D02*
X64008095Y-57231904D01*
X64055714Y-57327142D01*
X64103333Y-57374761D01*
X64198571Y-57422380D01*
X64389047Y-57422380D01*
X64484285Y-57374761D01*
X64531904Y-57327142D01*
X64579523Y-57231904D01*
X64579523Y-56422380D01*
X65484285Y-56755714D02*
X65484285Y-57422380D01*
X65246190Y-56374761D02*
X65008095Y-57089047D01*
X65627142Y-57089047D01*
X60953333Y-57017142D02*
X60905714Y-57064761D01*
X60762857Y-57112380D01*
X60667619Y-57112380D01*
X60524761Y-57064761D01*
X60429523Y-56969523D01*
X60381904Y-56874285D01*
X60334285Y-56683809D01*
X60334285Y-56540952D01*
X60381904Y-56350476D01*
X60429523Y-56255238D01*
X60524761Y-56160000D01*
X60667619Y-56112380D01*
X60762857Y-56112380D01*
X60905714Y-56160000D01*
X60953333Y-56207619D01*
X61905714Y-57112380D02*
X61334285Y-57112380D01*
X61620000Y-57112380D02*
X61620000Y-56112380D01*
X61524761Y-56255238D01*
X61429523Y-56350476D01*
X61334285Y-56398095D01*
X93512380Y-113498333D02*
X94226666Y-113498333D01*
X94369523Y-113545952D01*
X94464761Y-113641190D01*
X94512380Y-113784047D01*
X94512380Y-113879285D01*
X94512380Y-112498333D02*
X94512380Y-113069761D01*
X94512380Y-112784047D02*
X93512380Y-112784047D01*
X93655238Y-112879285D01*
X93750476Y-112974523D01*
X93798095Y-113069761D01*
X98214761Y-122103333D02*
X98262380Y-121960476D01*
X98262380Y-121722380D01*
X98214761Y-121627142D01*
X98167142Y-121579523D01*
X98071904Y-121531904D01*
X97976666Y-121531904D01*
X97881428Y-121579523D01*
X97833809Y-121627142D01*
X97786190Y-121722380D01*
X97738571Y-121912857D01*
X97690952Y-122008095D01*
X97643333Y-122055714D01*
X97548095Y-122103333D01*
X97452857Y-122103333D01*
X97357619Y-122055714D01*
X97310000Y-122008095D01*
X97262380Y-121912857D01*
X97262380Y-121674761D01*
X97310000Y-121531904D01*
X97262380Y-121198571D02*
X98262380Y-120960476D01*
X97548095Y-120770000D01*
X98262380Y-120579523D01*
X97262380Y-120341428D01*
X98262380Y-119436666D02*
X98262380Y-120008095D01*
X98262380Y-119722380D02*
X97262380Y-119722380D01*
X97405238Y-119817619D01*
X97500476Y-119912857D01*
X97548095Y-120008095D01*
X94491904Y-55812380D02*
X94491904Y-54812380D01*
X94730000Y-54812380D01*
X94872857Y-54860000D01*
X94968095Y-54955238D01*
X95015714Y-55050476D01*
X95063333Y-55240952D01*
X95063333Y-55383809D01*
X95015714Y-55574285D01*
X94968095Y-55669523D01*
X94872857Y-55764761D01*
X94730000Y-55812380D01*
X94491904Y-55812380D01*
X96015714Y-55812380D02*
X95444285Y-55812380D01*
X95730000Y-55812380D02*
X95730000Y-54812380D01*
X95634761Y-54955238D01*
X95539523Y-55050476D01*
X95444285Y-55098095D01*
X88478095Y-81772380D02*
X88478095Y-82581904D01*
X88525714Y-82677142D01*
X88573333Y-82724761D01*
X88668571Y-82772380D01*
X88859047Y-82772380D01*
X88954285Y-82724761D01*
X89001904Y-82677142D01*
X89049523Y-82581904D01*
X89049523Y-81772380D01*
X90001904Y-81772380D02*
X89525714Y-81772380D01*
X89478095Y-82248571D01*
X89525714Y-82200952D01*
X89620952Y-82153333D01*
X89859047Y-82153333D01*
X89954285Y-82200952D01*
X90001904Y-82248571D01*
X90049523Y-82343809D01*
X90049523Y-82581904D01*
X90001904Y-82677142D01*
X89954285Y-82724761D01*
X89859047Y-82772380D01*
X89620952Y-82772380D01*
X89525714Y-82724761D01*
X89478095Y-82677142D01*
X102078375Y-84263435D02*
X101620439Y-84182622D01*
X101755126Y-84586683D02*
X101189441Y-84020998D01*
X101404940Y-83805499D01*
X101485752Y-83778561D01*
X101539627Y-83778561D01*
X101620439Y-83805499D01*
X101701251Y-83886311D01*
X101728189Y-83967123D01*
X101728189Y-84020998D01*
X101701251Y-84101810D01*
X101485752Y-84317309D01*
X101755126Y-83455312D02*
X102213062Y-83913248D01*
X102293874Y-83940186D01*
X102347749Y-83940186D01*
X102428561Y-83913248D01*
X102536311Y-83805499D01*
X102563248Y-83724687D01*
X102563248Y-83670812D01*
X102536311Y-83590000D01*
X102078375Y-83132064D01*
X102913435Y-83428375D02*
X102347749Y-82862690D01*
X103236683Y-83105126D01*
X102670998Y-82539441D01*
X75853096Y-81141218D02*
X75772284Y-81168155D01*
X75691471Y-81248967D01*
X75637597Y-81356717D01*
X75637597Y-81464467D01*
X75664534Y-81545279D01*
X75745346Y-81679966D01*
X75826158Y-81760778D01*
X75960845Y-81841590D01*
X76041658Y-81868528D01*
X76149407Y-81868528D01*
X76257157Y-81814653D01*
X76311032Y-81760778D01*
X76364906Y-81653028D01*
X76364906Y-81599154D01*
X76176345Y-81410592D01*
X76068595Y-81518341D01*
X76661218Y-81410592D02*
X76095532Y-80844906D01*
X76311032Y-80629407D01*
X76391844Y-80602470D01*
X76445719Y-80602470D01*
X76526531Y-80629407D01*
X76607343Y-80710219D01*
X76634280Y-80791032D01*
X76634280Y-80844906D01*
X76607343Y-80925719D01*
X76391844Y-81141218D01*
X76607343Y-80333096D02*
X76984467Y-79955972D01*
X77307715Y-80764094D01*
X75753096Y-68471218D02*
X75672284Y-68498155D01*
X75591471Y-68578967D01*
X75537597Y-68686717D01*
X75537597Y-68794467D01*
X75564534Y-68875279D01*
X75645346Y-69009966D01*
X75726158Y-69090778D01*
X75860845Y-69171590D01*
X75941658Y-69198528D01*
X76049407Y-69198528D01*
X76157157Y-69144653D01*
X76211032Y-69090778D01*
X76264906Y-68983028D01*
X76264906Y-68929154D01*
X76076345Y-68740592D01*
X75968595Y-68848341D01*
X76561218Y-68740592D02*
X75995532Y-68174906D01*
X76211032Y-67959407D01*
X76291844Y-67932470D01*
X76345719Y-67932470D01*
X76426531Y-67959407D01*
X76507343Y-68040219D01*
X76534280Y-68121032D01*
X76534280Y-68174906D01*
X76507343Y-68255719D01*
X76291844Y-68471218D01*
X76507343Y-67663096D02*
X76857529Y-67312910D01*
X76884467Y-67716971D01*
X76965279Y-67636158D01*
X77046091Y-67609221D01*
X77099966Y-67609221D01*
X77180778Y-67636158D01*
X77315465Y-67770845D01*
X77342402Y-67851658D01*
X77342402Y-67905532D01*
X77315465Y-67986345D01*
X77153841Y-68147969D01*
X77073028Y-68174906D01*
X77019154Y-68174906D01*
X101337722Y-73566592D02*
X101256910Y-73593529D01*
X101176097Y-73674341D01*
X101122223Y-73782091D01*
X101122223Y-73889841D01*
X101149160Y-73970653D01*
X101229972Y-74105340D01*
X101310784Y-74186152D01*
X101445471Y-74266964D01*
X101526284Y-74293902D01*
X101634033Y-74293902D01*
X101741783Y-74240027D01*
X101795658Y-74186152D01*
X101849532Y-74078402D01*
X101849532Y-74024528D01*
X101660971Y-73835966D01*
X101553221Y-73943715D01*
X102145844Y-73835966D02*
X101580158Y-73270280D01*
X101795658Y-73054781D01*
X101876470Y-73027844D01*
X101930345Y-73027844D01*
X102011157Y-73054781D01*
X102091969Y-73135593D01*
X102118906Y-73216406D01*
X102118906Y-73270280D01*
X102091969Y-73351093D01*
X101876470Y-73566592D01*
X102172781Y-72785407D02*
X102172781Y-72731532D01*
X102199719Y-72650720D01*
X102334406Y-72516033D01*
X102415218Y-72489096D01*
X102469093Y-72489096D01*
X102549905Y-72516033D01*
X102603780Y-72569908D01*
X102657654Y-72677658D01*
X102657654Y-73324155D01*
X103007841Y-72973969D01*
X103007841Y-72327471D02*
X102927028Y-72354409D01*
X102873154Y-72354409D01*
X102792341Y-72327471D01*
X102765404Y-72300534D01*
X102738467Y-72219722D01*
X102738467Y-72165847D01*
X102765404Y-72085035D01*
X102873154Y-71977285D01*
X102953966Y-71950348D01*
X103007841Y-71950348D01*
X103088653Y-71977285D01*
X103115590Y-72004223D01*
X103142528Y-72085035D01*
X103142528Y-72138910D01*
X103115590Y-72219722D01*
X103007841Y-72327471D01*
X102980903Y-72408284D01*
X102980903Y-72462158D01*
X103007841Y-72542971D01*
X103115590Y-72650720D01*
X103196402Y-72677658D01*
X103250277Y-72677658D01*
X103331089Y-72650720D01*
X103438839Y-72542971D01*
X103465776Y-72462158D01*
X103465776Y-72408284D01*
X103438839Y-72327471D01*
X103331089Y-72219722D01*
X103250277Y-72192784D01*
X103196402Y-72192784D01*
X103115590Y-72219722D01*
X75753096Y-83711218D02*
X75672284Y-83738155D01*
X75591471Y-83818967D01*
X75537597Y-83926717D01*
X75537597Y-84034467D01*
X75564534Y-84115279D01*
X75645346Y-84249966D01*
X75726158Y-84330778D01*
X75860845Y-84411590D01*
X75941658Y-84438528D01*
X76049407Y-84438528D01*
X76157157Y-84384653D01*
X76211032Y-84330778D01*
X76264906Y-84223028D01*
X76264906Y-84169154D01*
X76076345Y-83980592D01*
X75968595Y-84088341D01*
X76561218Y-83980592D02*
X75995532Y-83414906D01*
X76211032Y-83199407D01*
X76291844Y-83172470D01*
X76345719Y-83172470D01*
X76426531Y-83199407D01*
X76507343Y-83280219D01*
X76534280Y-83361032D01*
X76534280Y-83414906D01*
X76507343Y-83495719D01*
X76291844Y-83711218D01*
X76884467Y-83010845D02*
X76803654Y-83037783D01*
X76749780Y-83037783D01*
X76668967Y-83010845D01*
X76642030Y-82983908D01*
X76615093Y-82903096D01*
X76615093Y-82849221D01*
X76642030Y-82768409D01*
X76749780Y-82660659D01*
X76830592Y-82633722D01*
X76884467Y-82633722D01*
X76965279Y-82660659D01*
X76992216Y-82687597D01*
X77019154Y-82768409D01*
X77019154Y-82822284D01*
X76992216Y-82903096D01*
X76884467Y-83010845D01*
X76857529Y-83091658D01*
X76857529Y-83145532D01*
X76884467Y-83226345D01*
X76992216Y-83334094D01*
X77073028Y-83361032D01*
X77126903Y-83361032D01*
X77207715Y-83334094D01*
X77315465Y-83226345D01*
X77342402Y-83145532D01*
X77342402Y-83091658D01*
X77315465Y-83010845D01*
X77207715Y-82903096D01*
X77126903Y-82876158D01*
X77073028Y-82876158D01*
X76992216Y-82903096D01*
X101337722Y-94140592D02*
X101256910Y-94167529D01*
X101176097Y-94248341D01*
X101122223Y-94356091D01*
X101122223Y-94463841D01*
X101149160Y-94544653D01*
X101229972Y-94679340D01*
X101310784Y-94760152D01*
X101445471Y-94840964D01*
X101526284Y-94867902D01*
X101634033Y-94867902D01*
X101741783Y-94814027D01*
X101795658Y-94760152D01*
X101849532Y-94652402D01*
X101849532Y-94598528D01*
X101660971Y-94409966D01*
X101553221Y-94517715D01*
X102145844Y-94409966D02*
X101580158Y-93844280D01*
X101795658Y-93628781D01*
X101876470Y-93601844D01*
X101930345Y-93601844D01*
X102011157Y-93628781D01*
X102091969Y-93709593D01*
X102118906Y-93790406D01*
X102118906Y-93844280D01*
X102091969Y-93925093D01*
X101876470Y-94140592D01*
X102172781Y-93359407D02*
X102172781Y-93305532D01*
X102199719Y-93224720D01*
X102334406Y-93090033D01*
X102415218Y-93063096D01*
X102469093Y-93063096D01*
X102549905Y-93090033D01*
X102603780Y-93143908D01*
X102657654Y-93251658D01*
X102657654Y-93898155D01*
X103007841Y-93547969D01*
X102792341Y-92632097D02*
X102846216Y-92578223D01*
X102927028Y-92551285D01*
X102980903Y-92551285D01*
X103061715Y-92578223D01*
X103196402Y-92659035D01*
X103331089Y-92793722D01*
X103411902Y-92928409D01*
X103438839Y-93009221D01*
X103438839Y-93063096D01*
X103411902Y-93143908D01*
X103358027Y-93197783D01*
X103277215Y-93224720D01*
X103223340Y-93224720D01*
X103142528Y-93197783D01*
X103007841Y-93116971D01*
X102873154Y-92982284D01*
X102792341Y-92847597D01*
X102765404Y-92766784D01*
X102765404Y-92712910D01*
X102792341Y-92632097D01*
X101337722Y-99220592D02*
X101256910Y-99247529D01*
X101176097Y-99328341D01*
X101122223Y-99436091D01*
X101122223Y-99543841D01*
X101149160Y-99624653D01*
X101229972Y-99759340D01*
X101310784Y-99840152D01*
X101445471Y-99920964D01*
X101526284Y-99947902D01*
X101634033Y-99947902D01*
X101741783Y-99894027D01*
X101795658Y-99840152D01*
X101849532Y-99732402D01*
X101849532Y-99678528D01*
X101660971Y-99489966D01*
X101553221Y-99597715D01*
X102145844Y-99489966D02*
X101580158Y-98924280D01*
X101795658Y-98708781D01*
X101876470Y-98681844D01*
X101930345Y-98681844D01*
X102011157Y-98708781D01*
X102091969Y-98789593D01*
X102118906Y-98870406D01*
X102118906Y-98924280D01*
X102091969Y-99005093D01*
X101876470Y-99220592D01*
X103007841Y-98627969D02*
X102684592Y-98951218D01*
X102846216Y-98789593D02*
X102280531Y-98223908D01*
X102307468Y-98358595D01*
X102307468Y-98466345D01*
X102280531Y-98547157D01*
X103007841Y-97981471D02*
X102927028Y-98008409D01*
X102873154Y-98008409D01*
X102792341Y-97981471D01*
X102765404Y-97954534D01*
X102738467Y-97873722D01*
X102738467Y-97819847D01*
X102765404Y-97739035D01*
X102873154Y-97631285D01*
X102953966Y-97604348D01*
X103007841Y-97604348D01*
X103088653Y-97631285D01*
X103115590Y-97658223D01*
X103142528Y-97739035D01*
X103142528Y-97792910D01*
X103115590Y-97873722D01*
X103007841Y-97981471D01*
X102980903Y-98062284D01*
X102980903Y-98116158D01*
X103007841Y-98196971D01*
X103115590Y-98304720D01*
X103196402Y-98331658D01*
X103250277Y-98331658D01*
X103331089Y-98304720D01*
X103438839Y-98196971D01*
X103465776Y-98116158D01*
X103465776Y-98062284D01*
X103438839Y-97981471D01*
X103331089Y-97873722D01*
X103250277Y-97846784D01*
X103196402Y-97846784D01*
X103115590Y-97873722D01*
X101394788Y-71853773D02*
X101664162Y-71584399D01*
X101502537Y-72069272D02*
X101125414Y-71315025D01*
X101879661Y-71692149D01*
X102068223Y-71503587D02*
X101502537Y-70937902D01*
X101637224Y-70803215D01*
X101744974Y-70749340D01*
X101852723Y-70749340D01*
X101933536Y-70776277D01*
X102068223Y-70857089D01*
X102149035Y-70937902D01*
X102229847Y-71072589D01*
X102256784Y-71153401D01*
X102256784Y-71261150D01*
X102202910Y-71368900D01*
X102068223Y-71503587D01*
X102903282Y-70560778D02*
X102903282Y-70614653D01*
X102849407Y-70722402D01*
X102795532Y-70776277D01*
X102687783Y-70830152D01*
X102580033Y-70830152D01*
X102499221Y-70803215D01*
X102364534Y-70722402D01*
X102283722Y-70641590D01*
X102202910Y-70506903D01*
X102175972Y-70426091D01*
X102175972Y-70318341D01*
X102229847Y-70210592D01*
X102283722Y-70156717D01*
X102391471Y-70102842D01*
X102445346Y-70102842D01*
X103118781Y-70560778D02*
X103549780Y-70129780D01*
X102984094Y-69456345D02*
X103738341Y-69833468D01*
X103361218Y-69079221D01*
X104438714Y-69133096D02*
X103980778Y-69052284D01*
X104115465Y-69456345D02*
X103549780Y-68890659D01*
X103765279Y-68675160D01*
X103846091Y-68648223D01*
X103899966Y-68648223D01*
X103980778Y-68675160D01*
X104061590Y-68755972D01*
X104088528Y-68836784D01*
X104088528Y-68890659D01*
X104061590Y-68971471D01*
X103846091Y-69186971D01*
X104384839Y-68594348D02*
X104573401Y-68405786D01*
X104950524Y-68621285D02*
X104681150Y-68890659D01*
X104115465Y-68324974D01*
X104384839Y-68055600D01*
X105085211Y-67893975D02*
X104896650Y-68082537D01*
X105192961Y-68378849D02*
X104627276Y-67813163D01*
X104896650Y-67543789D01*
X101326158Y-101518155D02*
X101245346Y-101545093D01*
X101164534Y-101625905D01*
X101110659Y-101733654D01*
X101110659Y-101841404D01*
X101137597Y-101922216D01*
X101218409Y-102056903D01*
X101299221Y-102137715D01*
X101433908Y-102218528D01*
X101514720Y-102245465D01*
X101622470Y-102245465D01*
X101730219Y-102191590D01*
X101784094Y-102137715D01*
X101837969Y-102029966D01*
X101837969Y-101976091D01*
X101649407Y-101787529D01*
X101541658Y-101895279D01*
X102134280Y-101787529D02*
X101568595Y-101221844D01*
X102457529Y-101464280D01*
X101891844Y-100898595D01*
X102726903Y-101194906D02*
X102161218Y-100629221D01*
X102295905Y-100494534D01*
X102403654Y-100440659D01*
X102511404Y-100440659D01*
X102592216Y-100467597D01*
X102726903Y-100548409D01*
X102807715Y-100629221D01*
X102888528Y-100763908D01*
X102915465Y-100844720D01*
X102915465Y-100952470D01*
X102861590Y-101060219D01*
X102726903Y-101194906D01*
X101162131Y-66278308D02*
X101512317Y-65928122D01*
X101539255Y-66332183D01*
X101620067Y-66251370D01*
X101700879Y-66224433D01*
X101754754Y-66224433D01*
X101835566Y-66251370D01*
X101970253Y-66386057D01*
X101997190Y-66466870D01*
X101997190Y-66520744D01*
X101970253Y-66601557D01*
X101808629Y-66763181D01*
X101727816Y-66790118D01*
X101673942Y-66790118D01*
X101673942Y-65766497D02*
X102428189Y-66143621D01*
X102051065Y-65389374D01*
X102185752Y-65254687D02*
X102535938Y-64904500D01*
X102562876Y-65308561D01*
X102643688Y-65227749D01*
X102724500Y-65200812D01*
X102778375Y-65200812D01*
X102859187Y-65227749D01*
X102993874Y-65362436D01*
X103020812Y-65443248D01*
X103020812Y-65497123D01*
X102993874Y-65577935D01*
X102832250Y-65739560D01*
X102751438Y-65766497D01*
X102697563Y-65766497D01*
X103263248Y-65416311D02*
X103694247Y-64985312D01*
X103478748Y-64500439D02*
X103667309Y-64311877D01*
X104044433Y-64527377D02*
X103775059Y-64796751D01*
X103209374Y-64231065D01*
X103478748Y-63961691D01*
X104286870Y-64284940D02*
X103721184Y-63719255D01*
X104610118Y-63961691D01*
X104044433Y-63396006D01*
X101193129Y-58847309D02*
X101947377Y-59224433D01*
X101570253Y-58470186D01*
X102216751Y-58362436D02*
X102324500Y-58308561D01*
X102378375Y-58308561D01*
X102459187Y-58335499D01*
X102539999Y-58416311D01*
X102566937Y-58497123D01*
X102566937Y-58550998D01*
X102540000Y-58631810D01*
X102324500Y-58847309D01*
X101758815Y-58281624D01*
X101947377Y-58093062D01*
X102028189Y-58066125D01*
X102082064Y-58066125D01*
X102162876Y-58093062D01*
X102216751Y-58146937D01*
X102243688Y-58227749D01*
X102243688Y-58281624D01*
X102216751Y-58362436D01*
X102028189Y-58550998D01*
X102324500Y-57715938D02*
X102782436Y-58173874D01*
X102863248Y-58200812D01*
X102917123Y-58200812D01*
X102997935Y-58173874D01*
X103105685Y-58066125D01*
X103132622Y-57985312D01*
X103132622Y-57931438D01*
X103105685Y-57850625D01*
X102647749Y-57392690D01*
X103428934Y-57689001D02*
X103536683Y-57635126D01*
X103671370Y-57500439D01*
X103698308Y-57419627D01*
X103698308Y-57365752D01*
X103671370Y-57284940D01*
X103617496Y-57231065D01*
X103536683Y-57204128D01*
X103482809Y-57204128D01*
X103401996Y-57231065D01*
X103267309Y-57311877D01*
X103186497Y-57338815D01*
X103132622Y-57338815D01*
X103051810Y-57311877D01*
X102997935Y-57258003D01*
X102970998Y-57177190D01*
X102970998Y-57123316D01*
X102997935Y-57042503D01*
X103132622Y-56907816D01*
X103240372Y-56853942D01*
X75229722Y-99220592D02*
X75148910Y-99247529D01*
X75068097Y-99328341D01*
X75014223Y-99436091D01*
X75014223Y-99543841D01*
X75041160Y-99624653D01*
X75121972Y-99759340D01*
X75202784Y-99840152D01*
X75337471Y-99920964D01*
X75418284Y-99947902D01*
X75526033Y-99947902D01*
X75633783Y-99894027D01*
X75687658Y-99840152D01*
X75741532Y-99732402D01*
X75741532Y-99678528D01*
X75552971Y-99489966D01*
X75445221Y-99597715D01*
X76037844Y-99489966D02*
X75472158Y-98924280D01*
X75687658Y-98708781D01*
X75768470Y-98681844D01*
X75822345Y-98681844D01*
X75903157Y-98708781D01*
X75983969Y-98789593D01*
X76010906Y-98870406D01*
X76010906Y-98924280D01*
X75983969Y-99005093D01*
X75768470Y-99220592D01*
X76899841Y-98627969D02*
X76576592Y-98951218D01*
X76738216Y-98789593D02*
X76172531Y-98223908D01*
X76199468Y-98358595D01*
X76199468Y-98466345D01*
X76172531Y-98547157D01*
X76522717Y-97873722D02*
X76872903Y-97523536D01*
X76899841Y-97927597D01*
X76980653Y-97846784D01*
X77061465Y-97819847D01*
X77115340Y-97819847D01*
X77196152Y-97846784D01*
X77330839Y-97981471D01*
X77357776Y-98062284D01*
X77357776Y-98116158D01*
X77330839Y-98196971D01*
X77169215Y-98358595D01*
X77088402Y-98385532D01*
X77034528Y-98385532D01*
X75653096Y-60841218D02*
X75572284Y-60868155D01*
X75491471Y-60948967D01*
X75437597Y-61056717D01*
X75437597Y-61164467D01*
X75464534Y-61245279D01*
X75545346Y-61379966D01*
X75626158Y-61460778D01*
X75760845Y-61541590D01*
X75841658Y-61568528D01*
X75949407Y-61568528D01*
X76057157Y-61514653D01*
X76111032Y-61460778D01*
X76164906Y-61353028D01*
X76164906Y-61299154D01*
X75976345Y-61110592D01*
X75868595Y-61218341D01*
X76461218Y-61110592D02*
X75895532Y-60544906D01*
X76111032Y-60329407D01*
X76191844Y-60302470D01*
X76245719Y-60302470D01*
X76326531Y-60329407D01*
X76407343Y-60410219D01*
X76434280Y-60491032D01*
X76434280Y-60544906D01*
X76407343Y-60625719D01*
X76191844Y-60841218D01*
X77323215Y-60248595D02*
X76999966Y-60571844D01*
X77161590Y-60410219D02*
X76595905Y-59844534D01*
X76622842Y-59979221D01*
X76622842Y-60086971D01*
X76595905Y-60167783D01*
X75083722Y-96680592D02*
X75002910Y-96707529D01*
X74922097Y-96788341D01*
X74868223Y-96896091D01*
X74868223Y-97003841D01*
X74895160Y-97084653D01*
X74975972Y-97219340D01*
X75056784Y-97300152D01*
X75191471Y-97380964D01*
X75272284Y-97407902D01*
X75380033Y-97407902D01*
X75487783Y-97354027D01*
X75541658Y-97300152D01*
X75595532Y-97192402D01*
X75595532Y-97138528D01*
X75406971Y-96949966D01*
X75299221Y-97057715D01*
X75891844Y-96949966D02*
X75326158Y-96384280D01*
X75541658Y-96168781D01*
X75622470Y-96141844D01*
X75676345Y-96141844D01*
X75757157Y-96168781D01*
X75837969Y-96249593D01*
X75864906Y-96330406D01*
X75864906Y-96384280D01*
X75837969Y-96465093D01*
X75622470Y-96680592D01*
X76753841Y-96087969D02*
X76430592Y-96411218D01*
X76592216Y-96249593D02*
X76026531Y-95683908D01*
X76053468Y-95818595D01*
X76053468Y-95926345D01*
X76026531Y-96007157D01*
X76457529Y-95360659D02*
X76457529Y-95306784D01*
X76484467Y-95225972D01*
X76619154Y-95091285D01*
X76699966Y-95064348D01*
X76753841Y-95064348D01*
X76834653Y-95091285D01*
X76888528Y-95145160D01*
X76942402Y-95252910D01*
X76942402Y-95899407D01*
X77292589Y-95549221D01*
X75726158Y-88818155D02*
X75645346Y-88845093D01*
X75564534Y-88925905D01*
X75510659Y-89033654D01*
X75510659Y-89141404D01*
X75537597Y-89222216D01*
X75618409Y-89356903D01*
X75699221Y-89437715D01*
X75833908Y-89518528D01*
X75914720Y-89545465D01*
X76022470Y-89545465D01*
X76130219Y-89491590D01*
X76184094Y-89437715D01*
X76237969Y-89329966D01*
X76237969Y-89276091D01*
X76049407Y-89087529D01*
X75941658Y-89195279D01*
X76534280Y-89087529D02*
X75968595Y-88521844D01*
X76857529Y-88764280D01*
X76291844Y-88198595D01*
X77126903Y-88494906D02*
X76561218Y-87929221D01*
X76695905Y-87794534D01*
X76803654Y-87740659D01*
X76911404Y-87740659D01*
X76992216Y-87767597D01*
X77126903Y-87848409D01*
X77207715Y-87929221D01*
X77288528Y-88063908D01*
X77315465Y-88144720D01*
X77315465Y-88252470D01*
X77261590Y-88360219D01*
X77126903Y-88494906D01*
X101337722Y-91610592D02*
X101256910Y-91637529D01*
X101176097Y-91718341D01*
X101122223Y-91826091D01*
X101122223Y-91933841D01*
X101149160Y-92014653D01*
X101229972Y-92149340D01*
X101310784Y-92230152D01*
X101445471Y-92310964D01*
X101526284Y-92337902D01*
X101634033Y-92337902D01*
X101741783Y-92284027D01*
X101795658Y-92230152D01*
X101849532Y-92122402D01*
X101849532Y-92068528D01*
X101660971Y-91879966D01*
X101553221Y-91987715D01*
X102145844Y-91879966D02*
X101580158Y-91314280D01*
X101795658Y-91098781D01*
X101876470Y-91071844D01*
X101930345Y-91071844D01*
X102011157Y-91098781D01*
X102091969Y-91179593D01*
X102118906Y-91260406D01*
X102118906Y-91314280D01*
X102091969Y-91395093D01*
X101876470Y-91610592D01*
X102172781Y-90829407D02*
X102172781Y-90775532D01*
X102199719Y-90694720D01*
X102334406Y-90560033D01*
X102415218Y-90533096D01*
X102469093Y-90533096D01*
X102549905Y-90560033D01*
X102603780Y-90613908D01*
X102657654Y-90721658D01*
X102657654Y-91368155D01*
X103007841Y-91017969D01*
X103546589Y-90479221D02*
X103223340Y-90802470D01*
X103384964Y-90640845D02*
X102819279Y-90075160D01*
X102846216Y-90209847D01*
X102846216Y-90317597D01*
X102819279Y-90398409D01*
X93144761Y-108843809D02*
X93259047Y-108881904D01*
X93449523Y-108881904D01*
X93525714Y-108843809D01*
X93563809Y-108805714D01*
X93601904Y-108729523D01*
X93601904Y-108653333D01*
X93563809Y-108577142D01*
X93525714Y-108539047D01*
X93449523Y-108500952D01*
X93297142Y-108462857D01*
X93220952Y-108424761D01*
X93182857Y-108386666D01*
X93144761Y-108310476D01*
X93144761Y-108234285D01*
X93182857Y-108158095D01*
X93220952Y-108120000D01*
X93297142Y-108081904D01*
X93487619Y-108081904D01*
X93601904Y-108120000D01*
X93868571Y-108081904D02*
X94059047Y-108881904D01*
X94211428Y-108310476D01*
X94363809Y-108881904D01*
X94554285Y-108081904D01*
X94859047Y-108881904D02*
X94859047Y-108081904D01*
X95049523Y-108081904D01*
X95163809Y-108120000D01*
X95240000Y-108196190D01*
X95278095Y-108272380D01*
X95316190Y-108424761D01*
X95316190Y-108539047D01*
X95278095Y-108691428D01*
X95240000Y-108767619D01*
X95163809Y-108843809D01*
X95049523Y-108881904D01*
X94859047Y-108881904D01*
X95659047Y-108881904D02*
X95659047Y-108081904D01*
X96192380Y-108081904D02*
X96344761Y-108081904D01*
X96420952Y-108120000D01*
X96497142Y-108196190D01*
X96535238Y-108348571D01*
X96535238Y-108615238D01*
X96497142Y-108767619D01*
X96420952Y-108843809D01*
X96344761Y-108881904D01*
X96192380Y-108881904D01*
X96116190Y-108843809D01*
X96040000Y-108767619D01*
X96001904Y-108615238D01*
X96001904Y-108348571D01*
X96040000Y-108196190D01*
X96116190Y-108120000D01*
X96192380Y-108081904D01*
X75229722Y-106840592D02*
X75148910Y-106867529D01*
X75068097Y-106948341D01*
X75014223Y-107056091D01*
X75014223Y-107163841D01*
X75041160Y-107244653D01*
X75121972Y-107379340D01*
X75202784Y-107460152D01*
X75337471Y-107540964D01*
X75418284Y-107567902D01*
X75526033Y-107567902D01*
X75633783Y-107514027D01*
X75687658Y-107460152D01*
X75741532Y-107352402D01*
X75741532Y-107298528D01*
X75552971Y-107109966D01*
X75445221Y-107217715D01*
X76037844Y-107109966D02*
X75472158Y-106544280D01*
X75687658Y-106328781D01*
X75768470Y-106301844D01*
X75822345Y-106301844D01*
X75903157Y-106328781D01*
X75983969Y-106409593D01*
X76010906Y-106490406D01*
X76010906Y-106544280D01*
X75983969Y-106625093D01*
X75768470Y-106840592D01*
X76899841Y-106247969D02*
X76576592Y-106571218D01*
X76738216Y-106409593D02*
X76172531Y-105843908D01*
X76199468Y-105978595D01*
X76199468Y-106086345D01*
X76172531Y-106167157D01*
X76845966Y-105170473D02*
X76576592Y-105439847D01*
X76819028Y-105736158D01*
X76819028Y-105682284D01*
X76845966Y-105601471D01*
X76980653Y-105466784D01*
X77061465Y-105439847D01*
X77115340Y-105439847D01*
X77196152Y-105466784D01*
X77330839Y-105601471D01*
X77357776Y-105682284D01*
X77357776Y-105736158D01*
X77330839Y-105816971D01*
X77196152Y-105951658D01*
X77115340Y-105978595D01*
X77061465Y-105978595D01*
X75753096Y-86251218D02*
X75672284Y-86278155D01*
X75591471Y-86358967D01*
X75537597Y-86466717D01*
X75537597Y-86574467D01*
X75564534Y-86655279D01*
X75645346Y-86789966D01*
X75726158Y-86870778D01*
X75860845Y-86951590D01*
X75941658Y-86978528D01*
X76049407Y-86978528D01*
X76157157Y-86924653D01*
X76211032Y-86870778D01*
X76264906Y-86763028D01*
X76264906Y-86709154D01*
X76076345Y-86520592D01*
X75968595Y-86628341D01*
X76561218Y-86520592D02*
X75995532Y-85954906D01*
X76211032Y-85739407D01*
X76291844Y-85712470D01*
X76345719Y-85712470D01*
X76426531Y-85739407D01*
X76507343Y-85820219D01*
X76534280Y-85901032D01*
X76534280Y-85954906D01*
X76507343Y-86035719D01*
X76291844Y-86251218D01*
X77153841Y-85927969D02*
X77261590Y-85820219D01*
X77288528Y-85739407D01*
X77288528Y-85685532D01*
X77261590Y-85550845D01*
X77180778Y-85416158D01*
X76965279Y-85200659D01*
X76884467Y-85173722D01*
X76830592Y-85173722D01*
X76749780Y-85200659D01*
X76642030Y-85308409D01*
X76615093Y-85389221D01*
X76615093Y-85443096D01*
X76642030Y-85523908D01*
X76776717Y-85658595D01*
X76857529Y-85685532D01*
X76911404Y-85685532D01*
X76992216Y-85658595D01*
X77099966Y-85550845D01*
X77126903Y-85470033D01*
X77126903Y-85416158D01*
X77099966Y-85335346D01*
X75183722Y-104300592D02*
X75102910Y-104327529D01*
X75022097Y-104408341D01*
X74968223Y-104516091D01*
X74968223Y-104623841D01*
X74995160Y-104704653D01*
X75075972Y-104839340D01*
X75156784Y-104920152D01*
X75291471Y-105000964D01*
X75372284Y-105027902D01*
X75480033Y-105027902D01*
X75587783Y-104974027D01*
X75641658Y-104920152D01*
X75695532Y-104812402D01*
X75695532Y-104758528D01*
X75506971Y-104569966D01*
X75399221Y-104677715D01*
X75991844Y-104569966D02*
X75426158Y-104004280D01*
X75641658Y-103788781D01*
X75722470Y-103761844D01*
X75776345Y-103761844D01*
X75857157Y-103788781D01*
X75937969Y-103869593D01*
X75964906Y-103950406D01*
X75964906Y-104004280D01*
X75937969Y-104085093D01*
X75722470Y-104300592D01*
X76853841Y-103707969D02*
X76530592Y-104031218D01*
X76692216Y-103869593D02*
X76126531Y-103303908D01*
X76153468Y-103438595D01*
X76153468Y-103546345D01*
X76126531Y-103627157D01*
X76961590Y-102845972D02*
X77338714Y-103223096D01*
X76611404Y-102765160D02*
X76880778Y-103303908D01*
X77230964Y-102953722D01*
X101326158Y-63418155D02*
X101245346Y-63445093D01*
X101164534Y-63525905D01*
X101110659Y-63633654D01*
X101110659Y-63741404D01*
X101137597Y-63822216D01*
X101218409Y-63956903D01*
X101299221Y-64037715D01*
X101433908Y-64118528D01*
X101514720Y-64145465D01*
X101622470Y-64145465D01*
X101730219Y-64091590D01*
X101784094Y-64037715D01*
X101837969Y-63929966D01*
X101837969Y-63876091D01*
X101649407Y-63687529D01*
X101541658Y-63795279D01*
X102134280Y-63687529D02*
X101568595Y-63121844D01*
X102457529Y-63364280D01*
X101891844Y-62798595D01*
X102726903Y-63094906D02*
X102161218Y-62529221D01*
X102295905Y-62394534D01*
X102403654Y-62340659D01*
X102511404Y-62340659D01*
X102592216Y-62367597D01*
X102726903Y-62448409D01*
X102807715Y-62529221D01*
X102888528Y-62663908D01*
X102915465Y-62744720D01*
X102915465Y-62852470D01*
X102861590Y-62960219D01*
X102726903Y-63094906D01*
X75653096Y-65931218D02*
X75572284Y-65958155D01*
X75491471Y-66038967D01*
X75437597Y-66146717D01*
X75437597Y-66254467D01*
X75464534Y-66335279D01*
X75545346Y-66469966D01*
X75626158Y-66550778D01*
X75760845Y-66631590D01*
X75841658Y-66658528D01*
X75949407Y-66658528D01*
X76057157Y-66604653D01*
X76111032Y-66550778D01*
X76164906Y-66443028D01*
X76164906Y-66389154D01*
X75976345Y-66200592D01*
X75868595Y-66308341D01*
X76461218Y-66200592D02*
X75895532Y-65634906D01*
X76111032Y-65419407D01*
X76191844Y-65392470D01*
X76245719Y-65392470D01*
X76326531Y-65419407D01*
X76407343Y-65500219D01*
X76434280Y-65581032D01*
X76434280Y-65634906D01*
X76407343Y-65715719D01*
X76191844Y-65931218D01*
X76488155Y-65150033D02*
X76488155Y-65096158D01*
X76515093Y-65015346D01*
X76649780Y-64880659D01*
X76730592Y-64853722D01*
X76784467Y-64853722D01*
X76865279Y-64880659D01*
X76919154Y-64934534D01*
X76973028Y-65042284D01*
X76973028Y-65688781D01*
X77323215Y-65338595D01*
X101160473Y-61389966D02*
X101914720Y-61767089D01*
X101537597Y-61012842D01*
X102237969Y-61389966D02*
X102345719Y-61336091D01*
X102480406Y-61201404D01*
X102507343Y-61120592D01*
X102507343Y-61066717D01*
X102480406Y-60985905D01*
X102426531Y-60932030D01*
X102345719Y-60905093D01*
X102291844Y-60905093D01*
X102211032Y-60932030D01*
X102076345Y-61012842D01*
X101995532Y-61039780D01*
X101941658Y-61039780D01*
X101860845Y-61012842D01*
X101806971Y-60958967D01*
X101780033Y-60878155D01*
X101780033Y-60824280D01*
X101806971Y-60743468D01*
X101941658Y-60608781D01*
X102049407Y-60554906D01*
X102668967Y-60474094D02*
X102938341Y-60743468D01*
X102184094Y-60366345D02*
X102668967Y-60474094D01*
X102561218Y-59989221D01*
X103261590Y-60366345D02*
X103369340Y-60312470D01*
X103504027Y-60177783D01*
X103530964Y-60096971D01*
X103530964Y-60043096D01*
X103504027Y-59962284D01*
X103450152Y-59908409D01*
X103369340Y-59881471D01*
X103315465Y-59881471D01*
X103234653Y-59908409D01*
X103099966Y-59989221D01*
X103019154Y-60016158D01*
X102965279Y-60016158D01*
X102884467Y-59989221D01*
X102830592Y-59935346D01*
X102803654Y-59854534D01*
X102803654Y-59800659D01*
X102830592Y-59719847D01*
X102965279Y-59585160D01*
X103073028Y-59531285D01*
X75726158Y-101518155D02*
X75645346Y-101545093D01*
X75564534Y-101625905D01*
X75510659Y-101733654D01*
X75510659Y-101841404D01*
X75537597Y-101922216D01*
X75618409Y-102056903D01*
X75699221Y-102137715D01*
X75833908Y-102218528D01*
X75914720Y-102245465D01*
X76022470Y-102245465D01*
X76130219Y-102191590D01*
X76184094Y-102137715D01*
X76237969Y-102029966D01*
X76237969Y-101976091D01*
X76049407Y-101787529D01*
X75941658Y-101895279D01*
X76534280Y-101787529D02*
X75968595Y-101221844D01*
X76857529Y-101464280D01*
X76291844Y-100898595D01*
X77126903Y-101194906D02*
X76561218Y-100629221D01*
X76695905Y-100494534D01*
X76803654Y-100440659D01*
X76911404Y-100440659D01*
X76992216Y-100467597D01*
X77126903Y-100548409D01*
X77207715Y-100629221D01*
X77288528Y-100763908D01*
X77315465Y-100844720D01*
X77315465Y-100952470D01*
X77261590Y-101060219D01*
X77126903Y-101194906D01*
X101391597Y-77060964D02*
X101660971Y-76791590D01*
X101499346Y-77276463D02*
X101122223Y-76522216D01*
X101876470Y-76899340D01*
X101822595Y-75875719D02*
X101741783Y-75902656D01*
X101660971Y-75983468D01*
X101607096Y-76091218D01*
X101607096Y-76198967D01*
X101634033Y-76279780D01*
X101714845Y-76414467D01*
X101795658Y-76495279D01*
X101930345Y-76576091D01*
X102011157Y-76603028D01*
X102118906Y-76603028D01*
X102226656Y-76549154D01*
X102280531Y-76495279D01*
X102334406Y-76387529D01*
X102334406Y-76333654D01*
X102145844Y-76145093D01*
X102038094Y-76252842D01*
X102630717Y-76145093D02*
X102065032Y-75579407D01*
X102953966Y-75821844D01*
X102388280Y-75256158D01*
X103223340Y-75552470D02*
X102657654Y-74986784D01*
X102792341Y-74852097D01*
X102900091Y-74798223D01*
X103007841Y-74798223D01*
X103088653Y-74825160D01*
X103223340Y-74905972D01*
X103304152Y-74986784D01*
X103384964Y-75121471D01*
X103411902Y-75202284D01*
X103411902Y-75310033D01*
X103358027Y-75417783D01*
X103223340Y-75552470D01*
X101337722Y-81440592D02*
X101256910Y-81467529D01*
X101176097Y-81548341D01*
X101122223Y-81656091D01*
X101122223Y-81763841D01*
X101149160Y-81844653D01*
X101229972Y-81979340D01*
X101310784Y-82060152D01*
X101445471Y-82140964D01*
X101526284Y-82167902D01*
X101634033Y-82167902D01*
X101741783Y-82114027D01*
X101795658Y-82060152D01*
X101849532Y-81952402D01*
X101849532Y-81898528D01*
X101660971Y-81709966D01*
X101553221Y-81817715D01*
X102145844Y-81709966D02*
X101580158Y-81144280D01*
X101795658Y-80928781D01*
X101876470Y-80901844D01*
X101930345Y-80901844D01*
X102011157Y-80928781D01*
X102091969Y-81009593D01*
X102118906Y-81090406D01*
X102118906Y-81144280D01*
X102091969Y-81225093D01*
X101876470Y-81440592D01*
X102172781Y-80659407D02*
X102172781Y-80605532D01*
X102199719Y-80524720D01*
X102334406Y-80390033D01*
X102415218Y-80363096D01*
X102469093Y-80363096D01*
X102549905Y-80390033D01*
X102603780Y-80443908D01*
X102657654Y-80551658D01*
X102657654Y-81198155D01*
X103007841Y-80847969D01*
X102927028Y-79797410D02*
X102819279Y-79905160D01*
X102792341Y-79985972D01*
X102792341Y-80039847D01*
X102819279Y-80174534D01*
X102900091Y-80309221D01*
X103115590Y-80524720D01*
X103196402Y-80551658D01*
X103250277Y-80551658D01*
X103331089Y-80524720D01*
X103438839Y-80416971D01*
X103465776Y-80336158D01*
X103465776Y-80282284D01*
X103438839Y-80201471D01*
X103304152Y-80066784D01*
X103223340Y-80039847D01*
X103169465Y-80039847D01*
X103088653Y-80066784D01*
X102980903Y-80174534D01*
X102953966Y-80255346D01*
X102953966Y-80309221D01*
X102980903Y-80390033D01*
X75083722Y-94140592D02*
X75002910Y-94167529D01*
X74922097Y-94248341D01*
X74868223Y-94356091D01*
X74868223Y-94463841D01*
X74895160Y-94544653D01*
X74975972Y-94679340D01*
X75056784Y-94760152D01*
X75191471Y-94840964D01*
X75272284Y-94867902D01*
X75380033Y-94867902D01*
X75487783Y-94814027D01*
X75541658Y-94760152D01*
X75595532Y-94652402D01*
X75595532Y-94598528D01*
X75406971Y-94409966D01*
X75299221Y-94517715D01*
X75891844Y-94409966D02*
X75326158Y-93844280D01*
X75541658Y-93628781D01*
X75622470Y-93601844D01*
X75676345Y-93601844D01*
X75757157Y-93628781D01*
X75837969Y-93709593D01*
X75864906Y-93790406D01*
X75864906Y-93844280D01*
X75837969Y-93925093D01*
X75622470Y-94140592D01*
X76753841Y-93547969D02*
X76430592Y-93871218D01*
X76592216Y-93709593D02*
X76026531Y-93143908D01*
X76053468Y-93278595D01*
X76053468Y-93386345D01*
X76026531Y-93467157D01*
X77292589Y-93009221D02*
X76969340Y-93332470D01*
X77130964Y-93170845D02*
X76565279Y-92605160D01*
X76592216Y-92739847D01*
X76592216Y-92847597D01*
X76565279Y-92928409D01*
X75229722Y-91600592D02*
X75148910Y-91627529D01*
X75068097Y-91708341D01*
X75014223Y-91816091D01*
X75014223Y-91923841D01*
X75041160Y-92004653D01*
X75121972Y-92139340D01*
X75202784Y-92220152D01*
X75337471Y-92300964D01*
X75418284Y-92327902D01*
X75526033Y-92327902D01*
X75633783Y-92274027D01*
X75687658Y-92220152D01*
X75741532Y-92112402D01*
X75741532Y-92058528D01*
X75552971Y-91869966D01*
X75445221Y-91977715D01*
X76037844Y-91869966D02*
X75472158Y-91304280D01*
X75687658Y-91088781D01*
X75768470Y-91061844D01*
X75822345Y-91061844D01*
X75903157Y-91088781D01*
X75983969Y-91169593D01*
X76010906Y-91250406D01*
X76010906Y-91304280D01*
X75983969Y-91385093D01*
X75768470Y-91600592D01*
X76899841Y-91007969D02*
X76576592Y-91331218D01*
X76738216Y-91169593D02*
X76172531Y-90603908D01*
X76199468Y-90738595D01*
X76199468Y-90846345D01*
X76172531Y-90927157D01*
X76684341Y-90092097D02*
X76738216Y-90038223D01*
X76819028Y-90011285D01*
X76872903Y-90011285D01*
X76953715Y-90038223D01*
X77088402Y-90119035D01*
X77223089Y-90253722D01*
X77303902Y-90388409D01*
X77330839Y-90469221D01*
X77330839Y-90523096D01*
X77303902Y-90603908D01*
X77250027Y-90657783D01*
X77169215Y-90684720D01*
X77115340Y-90684720D01*
X77034528Y-90657783D01*
X76899841Y-90576971D01*
X76765154Y-90442284D01*
X76684341Y-90307597D01*
X76657404Y-90226784D01*
X76657404Y-90172910D01*
X76684341Y-90092097D01*
X101337722Y-106840592D02*
X101256910Y-106867529D01*
X101176097Y-106948341D01*
X101122223Y-107056091D01*
X101122223Y-107163841D01*
X101149160Y-107244653D01*
X101229972Y-107379340D01*
X101310784Y-107460152D01*
X101445471Y-107540964D01*
X101526284Y-107567902D01*
X101634033Y-107567902D01*
X101741783Y-107514027D01*
X101795658Y-107460152D01*
X101849532Y-107352402D01*
X101849532Y-107298528D01*
X101660971Y-107109966D01*
X101553221Y-107217715D01*
X102145844Y-107109966D02*
X101580158Y-106544280D01*
X101795658Y-106328781D01*
X101876470Y-106301844D01*
X101930345Y-106301844D01*
X102011157Y-106328781D01*
X102091969Y-106409593D01*
X102118906Y-106490406D01*
X102118906Y-106544280D01*
X102091969Y-106625093D01*
X101876470Y-106840592D01*
X103007841Y-106247969D02*
X102684592Y-106571218D01*
X102846216Y-106409593D02*
X102280531Y-105843908D01*
X102307468Y-105978595D01*
X102307468Y-106086345D01*
X102280531Y-106167157D01*
X102927028Y-105197410D02*
X102819279Y-105305160D01*
X102792341Y-105385972D01*
X102792341Y-105439847D01*
X102819279Y-105574534D01*
X102900091Y-105709221D01*
X103115590Y-105924720D01*
X103196402Y-105951658D01*
X103250277Y-105951658D01*
X103331089Y-105924720D01*
X103438839Y-105816971D01*
X103465776Y-105736158D01*
X103465776Y-105682284D01*
X103438839Y-105601471D01*
X103304152Y-105466784D01*
X103223340Y-105439847D01*
X103169465Y-105439847D01*
X103088653Y-105466784D01*
X102980903Y-105574534D01*
X102953966Y-105655346D01*
X102953966Y-105709221D01*
X102980903Y-105790033D01*
X75753096Y-73551218D02*
X75672284Y-73578155D01*
X75591471Y-73658967D01*
X75537597Y-73766717D01*
X75537597Y-73874467D01*
X75564534Y-73955279D01*
X75645346Y-74089966D01*
X75726158Y-74170778D01*
X75860845Y-74251590D01*
X75941658Y-74278528D01*
X76049407Y-74278528D01*
X76157157Y-74224653D01*
X76211032Y-74170778D01*
X76264906Y-74063028D01*
X76264906Y-74009154D01*
X76076345Y-73820592D01*
X75968595Y-73928341D01*
X76561218Y-73820592D02*
X75995532Y-73254906D01*
X76211032Y-73039407D01*
X76291844Y-73012470D01*
X76345719Y-73012470D01*
X76426531Y-73039407D01*
X76507343Y-73120219D01*
X76534280Y-73201032D01*
X76534280Y-73254906D01*
X76507343Y-73335719D01*
X76291844Y-73551218D01*
X76830592Y-72419847D02*
X76561218Y-72689221D01*
X76803654Y-72985532D01*
X76803654Y-72931658D01*
X76830592Y-72850845D01*
X76965279Y-72716158D01*
X77046091Y-72689221D01*
X77099966Y-72689221D01*
X77180778Y-72716158D01*
X77315465Y-72850845D01*
X77342402Y-72931658D01*
X77342402Y-72985532D01*
X77315465Y-73066345D01*
X77180778Y-73201032D01*
X77099966Y-73227969D01*
X77046091Y-73227969D01*
X75753096Y-58311218D02*
X75672284Y-58338155D01*
X75591471Y-58418967D01*
X75537597Y-58526717D01*
X75537597Y-58634467D01*
X75564534Y-58715279D01*
X75645346Y-58849966D01*
X75726158Y-58930778D01*
X75860845Y-59011590D01*
X75941658Y-59038528D01*
X76049407Y-59038528D01*
X76157157Y-58984653D01*
X76211032Y-58930778D01*
X76264906Y-58823028D01*
X76264906Y-58769154D01*
X76076345Y-58580592D01*
X75968595Y-58688341D01*
X76561218Y-58580592D02*
X75995532Y-58014906D01*
X76211032Y-57799407D01*
X76291844Y-57772470D01*
X76345719Y-57772470D01*
X76426531Y-57799407D01*
X76507343Y-57880219D01*
X76534280Y-57961032D01*
X76534280Y-58014906D01*
X76507343Y-58095719D01*
X76291844Y-58311218D01*
X76668967Y-57341471D02*
X76722842Y-57287597D01*
X76803654Y-57260659D01*
X76857529Y-57260659D01*
X76938341Y-57287597D01*
X77073028Y-57368409D01*
X77207715Y-57503096D01*
X77288528Y-57637783D01*
X77315465Y-57718595D01*
X77315465Y-57772470D01*
X77288528Y-57853282D01*
X77234653Y-57907157D01*
X77153841Y-57934094D01*
X77099966Y-57934094D01*
X77019154Y-57907157D01*
X76884467Y-57826345D01*
X76749780Y-57691658D01*
X76668967Y-57556971D01*
X76642030Y-57476158D01*
X76642030Y-57422284D01*
X76668967Y-57341471D01*
X81730476Y-108843809D02*
X81844761Y-108881904D01*
X82035238Y-108881904D01*
X82111428Y-108843809D01*
X82149523Y-108805714D01*
X82187619Y-108729523D01*
X82187619Y-108653333D01*
X82149523Y-108577142D01*
X82111428Y-108539047D01*
X82035238Y-108500952D01*
X81882857Y-108462857D01*
X81806666Y-108424761D01*
X81768571Y-108386666D01*
X81730476Y-108310476D01*
X81730476Y-108234285D01*
X81768571Y-108158095D01*
X81806666Y-108120000D01*
X81882857Y-108081904D01*
X82073333Y-108081904D01*
X82187619Y-108120000D01*
X82454285Y-108081904D02*
X82644761Y-108881904D01*
X82797142Y-108310476D01*
X82949523Y-108881904D01*
X83140000Y-108081904D01*
X83901904Y-108805714D02*
X83863809Y-108843809D01*
X83749523Y-108881904D01*
X83673333Y-108881904D01*
X83559047Y-108843809D01*
X83482857Y-108767619D01*
X83444761Y-108691428D01*
X83406666Y-108539047D01*
X83406666Y-108424761D01*
X83444761Y-108272380D01*
X83482857Y-108196190D01*
X83559047Y-108120000D01*
X83673333Y-108081904D01*
X83749523Y-108081904D01*
X83863809Y-108120000D01*
X83901904Y-108158095D01*
X84625714Y-108881904D02*
X84244761Y-108881904D01*
X84244761Y-108081904D01*
X84892380Y-108881904D02*
X84892380Y-108081904D01*
X85349523Y-108881904D02*
X85006666Y-108424761D01*
X85349523Y-108081904D02*
X84892380Y-108539047D01*
X101337722Y-78910592D02*
X101256910Y-78937529D01*
X101176097Y-79018341D01*
X101122223Y-79126091D01*
X101122223Y-79233841D01*
X101149160Y-79314653D01*
X101229972Y-79449340D01*
X101310784Y-79530152D01*
X101445471Y-79610964D01*
X101526284Y-79637902D01*
X101634033Y-79637902D01*
X101741783Y-79584027D01*
X101795658Y-79530152D01*
X101849532Y-79422402D01*
X101849532Y-79368528D01*
X101660971Y-79179966D01*
X101553221Y-79287715D01*
X102145844Y-79179966D02*
X101580158Y-78614280D01*
X101795658Y-78398781D01*
X101876470Y-78371844D01*
X101930345Y-78371844D01*
X102011157Y-78398781D01*
X102091969Y-78479593D01*
X102118906Y-78560406D01*
X102118906Y-78614280D01*
X102091969Y-78695093D01*
X101876470Y-78910592D01*
X102172781Y-78129407D02*
X102172781Y-78075532D01*
X102199719Y-77994720D01*
X102334406Y-77860033D01*
X102415218Y-77833096D01*
X102469093Y-77833096D01*
X102549905Y-77860033D01*
X102603780Y-77913908D01*
X102657654Y-78021658D01*
X102657654Y-78668155D01*
X103007841Y-78317969D01*
X102630717Y-77563722D02*
X103007841Y-77186598D01*
X103331089Y-77994720D01*
X101337722Y-104300592D02*
X101256910Y-104327529D01*
X101176097Y-104408341D01*
X101122223Y-104516091D01*
X101122223Y-104623841D01*
X101149160Y-104704653D01*
X101229972Y-104839340D01*
X101310784Y-104920152D01*
X101445471Y-105000964D01*
X101526284Y-105027902D01*
X101634033Y-105027902D01*
X101741783Y-104974027D01*
X101795658Y-104920152D01*
X101849532Y-104812402D01*
X101849532Y-104758528D01*
X101660971Y-104569966D01*
X101553221Y-104677715D01*
X102145844Y-104569966D02*
X101580158Y-104004280D01*
X101795658Y-103788781D01*
X101876470Y-103761844D01*
X101930345Y-103761844D01*
X102011157Y-103788781D01*
X102091969Y-103869593D01*
X102118906Y-103950406D01*
X102118906Y-104004280D01*
X102091969Y-104085093D01*
X101876470Y-104300592D01*
X103007841Y-103707969D02*
X102684592Y-104031218D01*
X102846216Y-103869593D02*
X102280531Y-103303908D01*
X102307468Y-103438595D01*
X102307468Y-103546345D01*
X102280531Y-103627157D01*
X102630717Y-102953722D02*
X103007841Y-102576598D01*
X103331089Y-103384720D01*
X101129847Y-68810592D02*
X101480033Y-68460406D01*
X101506971Y-68864467D01*
X101587783Y-68783654D01*
X101668595Y-68756717D01*
X101722470Y-68756717D01*
X101803282Y-68783654D01*
X101937969Y-68918341D01*
X101964906Y-68999154D01*
X101964906Y-69053028D01*
X101937969Y-69133841D01*
X101776345Y-69295465D01*
X101695532Y-69322402D01*
X101641658Y-69322402D01*
X101641658Y-68298781D02*
X102395905Y-68675905D01*
X102018781Y-67921658D01*
X102153468Y-67786971D02*
X102503654Y-67436784D01*
X102530592Y-67840845D01*
X102611404Y-67760033D01*
X102692216Y-67733096D01*
X102746091Y-67733096D01*
X102826903Y-67760033D01*
X102961590Y-67894720D01*
X102988528Y-67975532D01*
X102988528Y-68029407D01*
X102961590Y-68110219D01*
X102799966Y-68271844D01*
X102719154Y-68298781D01*
X102665279Y-68298781D01*
X75726158Y-76118155D02*
X75645346Y-76145093D01*
X75564534Y-76225905D01*
X75510659Y-76333654D01*
X75510659Y-76441404D01*
X75537597Y-76522216D01*
X75618409Y-76656903D01*
X75699221Y-76737715D01*
X75833908Y-76818528D01*
X75914720Y-76845465D01*
X76022470Y-76845465D01*
X76130219Y-76791590D01*
X76184094Y-76737715D01*
X76237969Y-76629966D01*
X76237969Y-76576091D01*
X76049407Y-76387529D01*
X75941658Y-76495279D01*
X76534280Y-76387529D02*
X75968595Y-75821844D01*
X76857529Y-76064280D01*
X76291844Y-75498595D01*
X77126903Y-75794906D02*
X76561218Y-75229221D01*
X76695905Y-75094534D01*
X76803654Y-75040659D01*
X76911404Y-75040659D01*
X76992216Y-75067597D01*
X77126903Y-75148409D01*
X77207715Y-75229221D01*
X77288528Y-75363908D01*
X77315465Y-75444720D01*
X77315465Y-75552470D01*
X77261590Y-75660219D01*
X77126903Y-75794906D01*
X75753096Y-78631218D02*
X75672284Y-78658155D01*
X75591471Y-78738967D01*
X75537597Y-78846717D01*
X75537597Y-78954467D01*
X75564534Y-79035279D01*
X75645346Y-79169966D01*
X75726158Y-79250778D01*
X75860845Y-79331590D01*
X75941658Y-79358528D01*
X76049407Y-79358528D01*
X76157157Y-79304653D01*
X76211032Y-79250778D01*
X76264906Y-79143028D01*
X76264906Y-79089154D01*
X76076345Y-78900592D01*
X75968595Y-79008341D01*
X76561218Y-78900592D02*
X75995532Y-78334906D01*
X76211032Y-78119407D01*
X76291844Y-78092470D01*
X76345719Y-78092470D01*
X76426531Y-78119407D01*
X76507343Y-78200219D01*
X76534280Y-78281032D01*
X76534280Y-78334906D01*
X76507343Y-78415719D01*
X76291844Y-78631218D01*
X76803654Y-77526784D02*
X76695905Y-77634534D01*
X76668967Y-77715346D01*
X76668967Y-77769221D01*
X76695905Y-77903908D01*
X76776717Y-78038595D01*
X76992216Y-78254094D01*
X77073028Y-78281032D01*
X77126903Y-78281032D01*
X77207715Y-78254094D01*
X77315465Y-78146345D01*
X77342402Y-78065532D01*
X77342402Y-78011658D01*
X77315465Y-77930845D01*
X77180778Y-77796158D01*
X77099966Y-77769221D01*
X77046091Y-77769221D01*
X76965279Y-77796158D01*
X76857529Y-77903908D01*
X76830592Y-77984720D01*
X76830592Y-78038595D01*
X76857529Y-78119407D01*
X101326158Y-88818155D02*
X101245346Y-88845093D01*
X101164534Y-88925905D01*
X101110659Y-89033654D01*
X101110659Y-89141404D01*
X101137597Y-89222216D01*
X101218409Y-89356903D01*
X101299221Y-89437715D01*
X101433908Y-89518528D01*
X101514720Y-89545465D01*
X101622470Y-89545465D01*
X101730219Y-89491590D01*
X101784094Y-89437715D01*
X101837969Y-89329966D01*
X101837969Y-89276091D01*
X101649407Y-89087529D01*
X101541658Y-89195279D01*
X102134280Y-89087529D02*
X101568595Y-88521844D01*
X102457529Y-88764280D01*
X101891844Y-88198595D01*
X102726903Y-88494906D02*
X102161218Y-87929221D01*
X102295905Y-87794534D01*
X102403654Y-87740659D01*
X102511404Y-87740659D01*
X102592216Y-87767597D01*
X102726903Y-87848409D01*
X102807715Y-87929221D01*
X102888528Y-88063908D01*
X102915465Y-88144720D01*
X102915465Y-88252470D01*
X102861590Y-88360219D01*
X102726903Y-88494906D01*
X101337722Y-96680592D02*
X101256910Y-96707529D01*
X101176097Y-96788341D01*
X101122223Y-96896091D01*
X101122223Y-97003841D01*
X101149160Y-97084653D01*
X101229972Y-97219340D01*
X101310784Y-97300152D01*
X101445471Y-97380964D01*
X101526284Y-97407902D01*
X101634033Y-97407902D01*
X101741783Y-97354027D01*
X101795658Y-97300152D01*
X101849532Y-97192402D01*
X101849532Y-97138528D01*
X101660971Y-96949966D01*
X101553221Y-97057715D01*
X102145844Y-96949966D02*
X101580158Y-96384280D01*
X101795658Y-96168781D01*
X101876470Y-96141844D01*
X101930345Y-96141844D01*
X102011157Y-96168781D01*
X102091969Y-96249593D01*
X102118906Y-96330406D01*
X102118906Y-96384280D01*
X102091969Y-96465093D01*
X101876470Y-96680592D01*
X103007841Y-96087969D02*
X102684592Y-96411218D01*
X102846216Y-96249593D02*
X102280531Y-95683908D01*
X102307468Y-95818595D01*
X102307468Y-95926345D01*
X102280531Y-96007157D01*
X103277215Y-95818595D02*
X103384964Y-95710845D01*
X103411902Y-95630033D01*
X103411902Y-95576158D01*
X103384964Y-95441471D01*
X103304152Y-95306784D01*
X103088653Y-95091285D01*
X103007841Y-95064348D01*
X102953966Y-95064348D01*
X102873154Y-95091285D01*
X102765404Y-95199035D01*
X102738467Y-95279847D01*
X102738467Y-95333722D01*
X102765404Y-95414534D01*
X102900091Y-95549221D01*
X102980903Y-95576158D01*
X103034778Y-95576158D01*
X103115590Y-95549221D01*
X103223340Y-95441471D01*
X103250277Y-95360659D01*
X103250277Y-95306784D01*
X103223340Y-95225972D01*
X101337722Y-86520592D02*
X101256910Y-86547529D01*
X101176097Y-86628341D01*
X101122223Y-86736091D01*
X101122223Y-86843841D01*
X101149160Y-86924653D01*
X101229972Y-87059340D01*
X101310784Y-87140152D01*
X101445471Y-87220964D01*
X101526284Y-87247902D01*
X101634033Y-87247902D01*
X101741783Y-87194027D01*
X101795658Y-87140152D01*
X101849532Y-87032402D01*
X101849532Y-86978528D01*
X101660971Y-86789966D01*
X101553221Y-86897715D01*
X102145844Y-86789966D02*
X101580158Y-86224280D01*
X101795658Y-86008781D01*
X101876470Y-85981844D01*
X101930345Y-85981844D01*
X102011157Y-86008781D01*
X102091969Y-86089593D01*
X102118906Y-86170406D01*
X102118906Y-86224280D01*
X102091969Y-86305093D01*
X101876470Y-86520592D01*
X102172781Y-85739407D02*
X102172781Y-85685532D01*
X102199719Y-85604720D01*
X102334406Y-85470033D01*
X102415218Y-85443096D01*
X102469093Y-85443096D01*
X102549905Y-85470033D01*
X102603780Y-85523908D01*
X102657654Y-85631658D01*
X102657654Y-86278155D01*
X103007841Y-85927969D01*
X102711529Y-85200659D02*
X102711529Y-85146784D01*
X102738467Y-85065972D01*
X102873154Y-84931285D01*
X102953966Y-84904348D01*
X103007841Y-84904348D01*
X103088653Y-84931285D01*
X103142528Y-84985160D01*
X103196402Y-85092910D01*
X103196402Y-85739407D01*
X103546589Y-85389221D01*
X75753096Y-71011218D02*
X75672284Y-71038155D01*
X75591471Y-71118967D01*
X75537597Y-71226717D01*
X75537597Y-71334467D01*
X75564534Y-71415279D01*
X75645346Y-71549966D01*
X75726158Y-71630778D01*
X75860845Y-71711590D01*
X75941658Y-71738528D01*
X76049407Y-71738528D01*
X76157157Y-71684653D01*
X76211032Y-71630778D01*
X76264906Y-71523028D01*
X76264906Y-71469154D01*
X76076345Y-71280592D01*
X75968595Y-71388341D01*
X76561218Y-71280592D02*
X75995532Y-70714906D01*
X76211032Y-70499407D01*
X76291844Y-70472470D01*
X76345719Y-70472470D01*
X76426531Y-70499407D01*
X76507343Y-70580219D01*
X76534280Y-70661032D01*
X76534280Y-70714906D01*
X76507343Y-70795719D01*
X76291844Y-71011218D01*
X76992216Y-70095346D02*
X77369340Y-70472470D01*
X76642030Y-70014534D02*
X76911404Y-70553282D01*
X77261590Y-70203096D01*
X75726158Y-63418155D02*
X75645346Y-63445093D01*
X75564534Y-63525905D01*
X75510659Y-63633654D01*
X75510659Y-63741404D01*
X75537597Y-63822216D01*
X75618409Y-63956903D01*
X75699221Y-64037715D01*
X75833908Y-64118528D01*
X75914720Y-64145465D01*
X76022470Y-64145465D01*
X76130219Y-64091590D01*
X76184094Y-64037715D01*
X76237969Y-63929966D01*
X76237969Y-63876091D01*
X76049407Y-63687529D01*
X75941658Y-63795279D01*
X76534280Y-63687529D02*
X75968595Y-63121844D01*
X76857529Y-63364280D01*
X76291844Y-62798595D01*
X77126903Y-63094906D02*
X76561218Y-62529221D01*
X76695905Y-62394534D01*
X76803654Y-62340659D01*
X76911404Y-62340659D01*
X76992216Y-62367597D01*
X77126903Y-62448409D01*
X77207715Y-62529221D01*
X77288528Y-62663908D01*
X77315465Y-62744720D01*
X77315465Y-62852470D01*
X77261590Y-62960219D01*
X77126903Y-63094906D01*
D13*
X68588748Y-87430000D02*
X70011252Y-87430000D01*
X68588748Y-89250000D02*
X70011252Y-89250000D01*
X64790000Y-110510000D02*
X60340000Y-110510000D01*
X64790000Y-123330000D02*
X67440000Y-123330000D01*
X64790000Y-123330000D02*
X62140000Y-123330000D01*
X64790000Y-110510000D02*
X67440000Y-110510000D01*
X64770000Y-90690000D02*
X67420000Y-90690000D01*
X64770000Y-103510000D02*
X62120000Y-103510000D01*
X64770000Y-90690000D02*
X60320000Y-90690000D01*
X64770000Y-103510000D02*
X67420000Y-103510000D01*
X71430000Y-78148748D02*
X71430000Y-79571252D01*
X69610000Y-78148748D02*
X69610000Y-79571252D01*
X80850000Y-111757064D02*
X80850000Y-110302936D01*
X79030000Y-111757064D02*
X79030000Y-110302936D01*
X69921252Y-108790000D02*
X68498748Y-108790000D01*
X69921252Y-106970000D02*
X68498748Y-106970000D01*
X63740000Y-85235000D02*
X65690000Y-85235000D01*
X63740000Y-76365000D02*
X65690000Y-76365000D01*
X63740000Y-76365000D02*
X60290000Y-76365000D01*
X63740000Y-85235000D02*
X61790000Y-85235000D01*
X74080000Y-111390000D02*
X74080000Y-110590000D01*
X77200000Y-111390000D02*
X77200000Y-110590000D01*
X74080000Y-111390000D02*
X74080000Y-113190000D01*
X77200000Y-111390000D02*
X77200000Y-112190000D01*
X64770000Y-57810000D02*
X67420000Y-57810000D01*
X64770000Y-70630000D02*
X62120000Y-70630000D01*
X64770000Y-70630000D02*
X67420000Y-70630000D01*
X64770000Y-57810000D02*
X60320000Y-57810000D01*
X61831252Y-53900000D02*
X60408748Y-53900000D01*
X61831252Y-55720000D02*
X60408748Y-55720000D01*
X90460000Y-111835000D02*
X85320000Y-111835000D01*
X93060000Y-111835000D02*
X93060000Y-113165000D01*
X90460000Y-111835000D02*
X90460000Y-114495000D01*
X85320000Y-111835000D02*
X85320000Y-114495000D01*
X91730000Y-111835000D02*
X93060000Y-111835000D01*
X90460000Y-114495000D02*
X85320000Y-114495000D01*
X105310000Y-123020000D02*
X105310000Y-118520000D01*
X98810000Y-118520000D02*
X98810000Y-123020000D01*
X102810000Y-117270000D02*
X101310000Y-117270000D01*
X101310000Y-124270000D02*
X102810000Y-124270000D01*
X93630000Y-54675000D02*
X97690000Y-54675000D01*
X97690000Y-54675000D02*
X97690000Y-52405000D01*
X97690000Y-52405000D02*
X93630000Y-52405000D01*
D11*
X25610000Y-123430000D02*
X30690000Y-123430000D01*
X30690000Y-52310000D02*
X25610000Y-52310000D01*
X25610000Y-52310000D02*
X25610000Y-123430000D01*
D13*
X30690000Y-52310000D02*
X35150000Y-52310000D01*
D11*
X35150000Y-123430000D02*
X35150000Y-52310000D01*
D13*
X30690000Y-123430000D02*
X35150000Y-123430000D01*
X99740000Y-94820000D02*
X99740000Y-95220000D01*
X99740000Y-105020000D02*
X99740000Y-105420000D01*
X85540000Y-107820000D02*
X78740000Y-107820000D01*
X78740000Y-89720000D02*
X78740000Y-90120000D01*
X78740000Y-56820000D02*
X78740000Y-57120000D01*
X78740000Y-64320000D02*
X78740000Y-64720000D01*
X99740000Y-64320000D02*
X99740000Y-64720000D01*
X99740000Y-61820000D02*
X99740000Y-62220000D01*
X78740000Y-82120000D02*
X78740000Y-82520000D01*
X99740000Y-102420000D02*
X99740000Y-102820000D01*
X99740000Y-87220000D02*
X99740000Y-87620000D01*
X99740000Y-59220000D02*
X99740000Y-59620000D01*
X99740000Y-71920000D02*
X99740000Y-72320000D01*
X78740000Y-87220000D02*
X78740000Y-87620000D01*
X99740000Y-66920000D02*
X99740000Y-67320000D01*
X78740000Y-59487000D02*
X81747000Y-59487000D01*
X78740000Y-71920000D02*
X78740000Y-72320000D01*
X78740000Y-102420000D02*
X78740000Y-102820000D01*
X99740000Y-92320000D02*
X99740000Y-92720000D01*
X81747000Y-59487000D02*
X81747000Y-56820000D01*
X78740000Y-56820000D02*
X99740000Y-56820000D01*
X99740000Y-89720000D02*
X99740000Y-90120000D01*
X78740000Y-84620000D02*
X78740000Y-85020000D01*
X78740000Y-61820000D02*
X78740000Y-62220000D01*
X99740000Y-82120000D02*
X99740000Y-82520000D01*
X90340000Y-107820000D02*
X90740000Y-107820000D01*
X78740000Y-92320000D02*
X78740000Y-92720000D01*
X99740000Y-84620000D02*
X99740000Y-85020000D01*
X78740000Y-66920000D02*
X78740000Y-67320000D01*
X78740000Y-74520000D02*
X78740000Y-74920000D01*
X78740000Y-77020000D02*
X78740000Y-77420000D01*
X78740000Y-94820000D02*
X78740000Y-95220000D01*
X99740000Y-99920000D02*
X99740000Y-100320000D01*
X99740000Y-79620000D02*
X99740000Y-80020000D01*
X99740000Y-107820000D02*
X92940000Y-107820000D01*
X78740000Y-99920000D02*
X78740000Y-100320000D01*
X99740000Y-56820000D02*
X99740000Y-57120000D01*
X99740000Y-77020000D02*
X99740000Y-77420000D01*
X78740000Y-105020000D02*
X78740000Y-105420000D01*
X78740000Y-59220000D02*
X78740000Y-59620000D01*
X78740000Y-97420000D02*
X78740000Y-97820000D01*
X99740000Y-69420000D02*
X99740000Y-69820000D01*
X87740000Y-107820000D02*
X88140000Y-107820000D01*
X78740000Y-79620000D02*
X78740000Y-80020000D01*
X99740000Y-74520000D02*
X99740000Y-74920000D01*
X78740000Y-69420000D02*
X78740000Y-69820000D01*
X99740000Y-97420000D02*
X99740000Y-97820000D01*
%LPC*%
D11*
X91930000Y-125490000D02*
X70210000Y-125490000D01*
X70210000Y-125490000D02*
X70210000Y-123570000D01*
X70210000Y-123570000D02*
X91930000Y-123570000D01*
X91930000Y-123570000D02*
X91930000Y-125490000D01*
G36*
X91930000Y-125490000D02*
G01*
X70210000Y-125490000D01*
X70210000Y-123570000D01*
X91930000Y-123570000D01*
X91930000Y-125490000D01*
G37*
D14*
X48200000Y-122000000D03*
X45660000Y-122000000D03*
D15*
X67825000Y-88340000D03*
X70775000Y-88340000D03*
D16*
X61327500Y-111205000D03*
X61327500Y-112475000D03*
X61327500Y-113745000D03*
X61327500Y-115015000D03*
X61327500Y-116285000D03*
X61327500Y-117555000D03*
X61327500Y-118825000D03*
X61327500Y-120095000D03*
X61327500Y-121365000D03*
X61327500Y-122635000D03*
X68252500Y-122635000D03*
X68252500Y-121365000D03*
X68252500Y-120095000D03*
X68252500Y-118825000D03*
X68252500Y-117555000D03*
X68252500Y-116285000D03*
X68252500Y-115015000D03*
X68252500Y-113745000D03*
X68252500Y-112475000D03*
X68252500Y-111205000D03*
X61307500Y-91385000D03*
X61307500Y-92655000D03*
X61307500Y-93925000D03*
X61307500Y-95195000D03*
X61307500Y-96465000D03*
X61307500Y-97735000D03*
X61307500Y-99005000D03*
X61307500Y-100275000D03*
X61307500Y-101545000D03*
X61307500Y-102815000D03*
X68232500Y-102815000D03*
X68232500Y-101545000D03*
X68232500Y-100275000D03*
X68232500Y-99005000D03*
X68232500Y-97735000D03*
X68232500Y-96465000D03*
X68232500Y-95195000D03*
X68232500Y-93925000D03*
X68232500Y-92655000D03*
X68232500Y-91385000D03*
D17*
X70520000Y-77385000D03*
X70520000Y-80335000D03*
D14*
X95140000Y-122840000D03*
D18*
X79940000Y-112580000D03*
X79940000Y-109480000D03*
D19*
X70685000Y-107880000D03*
X67735000Y-107880000D03*
D14*
X50740000Y-122000000D03*
D20*
X61265000Y-76990000D03*
X61265000Y-78260000D03*
X61265000Y-79530000D03*
X61265000Y-80800000D03*
X61265000Y-82070000D03*
X61265000Y-83340000D03*
X61265000Y-84610000D03*
X66215000Y-84610000D03*
X66215000Y-83340000D03*
X66215000Y-82070000D03*
X66215000Y-80800000D03*
X66215000Y-79530000D03*
X66215000Y-78260000D03*
X66215000Y-76990000D03*
D21*
X74690000Y-112527500D03*
X76590000Y-112527500D03*
X75640000Y-110252500D03*
D14*
X101770000Y-54650000D03*
D16*
X61307500Y-58505000D03*
X61307500Y-59775000D03*
X61307500Y-61045000D03*
X61307500Y-62315000D03*
X61307500Y-63585000D03*
X61307500Y-64855000D03*
X61307500Y-66125000D03*
X61307500Y-67395000D03*
X61307500Y-68665000D03*
X61307500Y-69935000D03*
X68232500Y-69935000D03*
X68232500Y-68665000D03*
X68232500Y-67395000D03*
X68232500Y-66125000D03*
X68232500Y-64855000D03*
X68232500Y-63585000D03*
X68232500Y-62315000D03*
X68232500Y-61045000D03*
X68232500Y-59775000D03*
X68232500Y-58505000D03*
D14*
X53280000Y-122000000D03*
X50740000Y-124540000D03*
X68540000Y-53260000D03*
X66140000Y-73680000D03*
X45660000Y-124540000D03*
X55820000Y-122000000D03*
X99730000Y-52600000D03*
D19*
X62595000Y-54810000D03*
X59645000Y-54810000D03*
D14*
X48200000Y-124540000D03*
D22*
X91730000Y-113165000D03*
D23*
X89190000Y-113165000D03*
X86650000Y-113165000D03*
D14*
X99810000Y-124020000D03*
X99810000Y-117520000D03*
X104310000Y-124020000D03*
X104310000Y-117520000D03*
X53280000Y-124540000D03*
X74630000Y-82520000D03*
D24*
X96717500Y-53540000D03*
X93742500Y-53540000D03*
D14*
X55820000Y-124540000D03*
D25*
X28150000Y-63740000D03*
X33150000Y-63740000D03*
X33150000Y-53580000D03*
X33150000Y-56120000D03*
X33150000Y-58660000D03*
X33150000Y-61200000D03*
X33150000Y-66280000D03*
X33150000Y-68820000D03*
X33150000Y-71360000D03*
X33150000Y-73900000D03*
X33150000Y-76440000D03*
X33150000Y-78980000D03*
X33150000Y-81520000D03*
X33150000Y-84060000D03*
X33150000Y-86600000D03*
X33150000Y-89140000D03*
X33150000Y-91680000D03*
X33150000Y-94220000D03*
X33150000Y-96760000D03*
X33150000Y-99300000D03*
X33150000Y-101840000D03*
X33150000Y-104380000D03*
X33150000Y-106920000D03*
X33150000Y-109460000D03*
X33150000Y-112000000D03*
X33150000Y-114540000D03*
X33150000Y-117080000D03*
X33150000Y-119620000D03*
X33150000Y-122160000D03*
X28150000Y-53580000D03*
X28150000Y-56120000D03*
X28150000Y-58660000D03*
X28150000Y-61200000D03*
X28150000Y-66280000D03*
X28150000Y-68820000D03*
X28150000Y-71360000D03*
X28150000Y-73900000D03*
X28150000Y-76440000D03*
X28150000Y-78980000D03*
X28150000Y-81520000D03*
X28150000Y-84060000D03*
X28150000Y-86600000D03*
X28150000Y-89140000D03*
X28150000Y-91680000D03*
X28150000Y-94220000D03*
X28150000Y-96760000D03*
X28150000Y-99300000D03*
X28150000Y-101840000D03*
X28150000Y-104380000D03*
X28150000Y-106920000D03*
X28150000Y-109460000D03*
X28150000Y-112000000D03*
X28150000Y-114540000D03*
X28150000Y-117080000D03*
X28150000Y-119620000D03*
X28150000Y-122160000D03*
D26*
X91965000Y-58320000D03*
X86515000Y-58320000D03*
D27*
X91665000Y-61350000D03*
X86815000Y-61350000D03*
D23*
X80350000Y-58190000D03*
D28*
X79450000Y-58190000D03*
D23*
X80350000Y-60730000D03*
D28*
X79450000Y-60730000D03*
D22*
X80350000Y-63270000D03*
D28*
X79450000Y-63270000D03*
D23*
X80350000Y-65810000D03*
D28*
X79450000Y-65810000D03*
X79450000Y-68350000D03*
D23*
X80350000Y-68350000D03*
X80350000Y-70890000D03*
D28*
X79450000Y-70890000D03*
X79450000Y-73430000D03*
D23*
X80350000Y-73430000D03*
D22*
X80350000Y-75970000D03*
D28*
X79450000Y-75970000D03*
X79450000Y-78510000D03*
D23*
X80350000Y-78510000D03*
D28*
X79450000Y-81050000D03*
D23*
X80350000Y-81050000D03*
D28*
X79450000Y-83590000D03*
D23*
X80350000Y-83590000D03*
D28*
X79450000Y-86130000D03*
D23*
X80350000Y-86130000D03*
D28*
X79450000Y-88670000D03*
D22*
X80350000Y-88670000D03*
D28*
X79450000Y-91210000D03*
D23*
X80350000Y-91210000D03*
D28*
X79450000Y-93750000D03*
D23*
X80350000Y-93750000D03*
D28*
X79450000Y-96290000D03*
D23*
X80350000Y-96290000D03*
X80350000Y-98830000D03*
D28*
X79450000Y-98830000D03*
X79450000Y-101370000D03*
D22*
X80350000Y-101370000D03*
D23*
X80350000Y-103910000D03*
D28*
X79450000Y-103910000D03*
D23*
X80350000Y-106450000D03*
D28*
X79450000Y-106450000D03*
X99030000Y-106450000D03*
D23*
X98130000Y-106450000D03*
X98130000Y-103910000D03*
D28*
X99030000Y-103910000D03*
D22*
X98130000Y-101370000D03*
D28*
X99030000Y-101370000D03*
X99030000Y-98830000D03*
D23*
X98130000Y-98830000D03*
X98130000Y-96290000D03*
D28*
X99030000Y-96290000D03*
D23*
X98130000Y-93750000D03*
D28*
X99030000Y-93750000D03*
X99030000Y-91210000D03*
D23*
X98130000Y-91210000D03*
D28*
X99030000Y-88670000D03*
D22*
X98130000Y-88670000D03*
D28*
X99030000Y-86130000D03*
D23*
X98130000Y-86130000D03*
X98130000Y-83590000D03*
D28*
X99030000Y-83590000D03*
D23*
X98130000Y-81050000D03*
D28*
X99030000Y-81050000D03*
X99030000Y-78510000D03*
D23*
X98130000Y-78510000D03*
D22*
X98130000Y-75970000D03*
D28*
X99030000Y-75970000D03*
X99030000Y-73430000D03*
D23*
X98130000Y-73430000D03*
D28*
X99030000Y-70890000D03*
D23*
X98130000Y-70890000D03*
D28*
X99030000Y-68350000D03*
D23*
X98130000Y-68350000D03*
D28*
X99030000Y-65810000D03*
D23*
X98130000Y-65810000D03*
D28*
X99030000Y-63270000D03*
D22*
X98130000Y-63270000D03*
D23*
X98130000Y-60730000D03*
D28*
X99030000Y-60730000D03*
D23*
X98130000Y-58190000D03*
D28*
X99030000Y-58190000D03*
D29*
X86700000Y-107120000D03*
D23*
X86700000Y-106220000D03*
D22*
X89240000Y-106220000D03*
D29*
X89240000Y-107120000D03*
X91780000Y-107120000D03*
D23*
X91780000Y-106220000D03*
M02*
