G04 #@! TF.GenerationSoftware,KiCad,Pcbnew,6.0.10-86aedd382b~118~ubuntu20.04.1*
G04 #@! TF.CreationDate,2023-01-03T17:42:13+00:00*
G04 #@! TF.ProjectId,srom,73726f6d-2e6b-4696-9361-645f70636258,rev?*
G04 #@! TF.SameCoordinates,Original*
G04 #@! TF.FileFunction,Paste,Top*
G04 #@! TF.FilePolarity,Positive*
%FSLAX46Y46*%
G04 Gerber Fmt 4.6, Leading zero omitted, Abs format (unit mm)*
G04 Created by KiCad (PCBNEW 6.0.10-86aedd382b~118~ubuntu20.04.1) date 2023-01-03 17:42:13*
%MOMM*%
%LPD*%
G01*
G04 APERTURE LIST*
G04 Aperture macros list*
%AMRoundRect*
0 Rectangle with rounded corners*
0 $1 Rounding radius*
0 $2 $3 $4 $5 $6 $7 $8 $9 X,Y pos of 4 corners*
0 Add a 4 corners polygon primitive as box body*
4,1,4,$2,$3,$4,$5,$6,$7,$8,$9,$2,$3,0*
0 Add four circle primitives for the rounded corners*
1,1,$1+$1,$2,$3*
1,1,$1+$1,$4,$5*
1,1,$1+$1,$6,$7*
1,1,$1+$1,$8,$9*
0 Add four rect primitives between the rounded corners*
20,1,$1+$1,$2,$3,$4,$5,0*
20,1,$1+$1,$4,$5,$6,$7,0*
20,1,$1+$1,$6,$7,$8,$9,0*
20,1,$1+$1,$8,$9,$2,$3,0*%
G04 Aperture macros list end*
%ADD10RoundRect,0.250000X-0.325000X-0.650000X0.325000X-0.650000X0.325000X0.650000X-0.325000X0.650000X0*%
%ADD11RoundRect,0.150000X-0.875000X-0.150000X0.875000X-0.150000X0.875000X0.150000X-0.875000X0.150000X0*%
%ADD12RoundRect,0.250000X-0.650000X0.325000X-0.650000X-0.325000X0.650000X-0.325000X0.650000X0.325000X0*%
%ADD13RoundRect,0.250000X0.325000X0.650000X-0.325000X0.650000X-0.325000X-0.650000X0.325000X-0.650000X0*%
%ADD14RoundRect,0.150000X-0.825000X-0.150000X0.825000X-0.150000X0.825000X0.150000X-0.825000X0.150000X0*%
%ADD15R,1.000000X1.000000*%
G04 APERTURE END LIST*
D10*
X67825000Y-88340000D03*
X70775000Y-88340000D03*
D11*
X60950000Y-111235000D03*
X60950000Y-112505000D03*
X60950000Y-113775000D03*
X60950000Y-115045000D03*
X60950000Y-116315000D03*
X60950000Y-117585000D03*
X60950000Y-118855000D03*
X60950000Y-120125000D03*
X60950000Y-121395000D03*
X60950000Y-122665000D03*
X70250000Y-122665000D03*
X70250000Y-121395000D03*
X70250000Y-120125000D03*
X70250000Y-118855000D03*
X70250000Y-117585000D03*
X70250000Y-116315000D03*
X70250000Y-115045000D03*
X70250000Y-113775000D03*
X70250000Y-112505000D03*
X70250000Y-111235000D03*
X61100000Y-91385000D03*
X61100000Y-92655000D03*
X61100000Y-93925000D03*
X61100000Y-95195000D03*
X61100000Y-96465000D03*
X61100000Y-97735000D03*
X61100000Y-99005000D03*
X61100000Y-100275000D03*
X61100000Y-101545000D03*
X61100000Y-102815000D03*
X70400000Y-102815000D03*
X70400000Y-101545000D03*
X70400000Y-100275000D03*
X70400000Y-99005000D03*
X70400000Y-97735000D03*
X70400000Y-96465000D03*
X70400000Y-95195000D03*
X70400000Y-93925000D03*
X70400000Y-92655000D03*
X70400000Y-91385000D03*
D12*
X70520000Y-77385000D03*
X70520000Y-80335000D03*
D13*
X70685000Y-107880000D03*
X67735000Y-107880000D03*
D14*
X61265000Y-76990000D03*
X61265000Y-78260000D03*
X61265000Y-79530000D03*
X61265000Y-80800000D03*
X61265000Y-82070000D03*
X61265000Y-83340000D03*
X61265000Y-84610000D03*
X66215000Y-84610000D03*
X66215000Y-83340000D03*
X66215000Y-82070000D03*
X66215000Y-80800000D03*
X66215000Y-79530000D03*
X66215000Y-78260000D03*
X66215000Y-76990000D03*
D11*
X60690000Y-58525000D03*
X60690000Y-59795000D03*
X60690000Y-61065000D03*
X60690000Y-62335000D03*
X60690000Y-63605000D03*
X60690000Y-64875000D03*
X60690000Y-66145000D03*
X60690000Y-67415000D03*
X60690000Y-68685000D03*
X60690000Y-69955000D03*
X69990000Y-69955000D03*
X69990000Y-68685000D03*
X69990000Y-67415000D03*
X69990000Y-66145000D03*
X69990000Y-64875000D03*
X69990000Y-63605000D03*
X69990000Y-62335000D03*
X69990000Y-61065000D03*
X69990000Y-59795000D03*
X69990000Y-58525000D03*
D13*
X62595000Y-54810000D03*
X59645000Y-54810000D03*
D15*
X96480000Y-53540000D03*
X93980000Y-53540000D03*
M02*
