G04 #@! TF.GenerationSoftware,KiCad,Pcbnew,6.0.10-86aedd382b~118~ubuntu20.04.1*
G04 #@! TF.CreationDate,2023-01-03T17:42:13+00:00*
G04 #@! TF.ProjectId,srom,73726f6d-2e6b-4696-9361-645f70636258,rev?*
G04 #@! TF.SameCoordinates,Original*
G04 #@! TF.FileFunction,Copper,L2,Bot*
G04 #@! TF.FilePolarity,Positive*
%FSLAX46Y46*%
G04 Gerber Fmt 4.6, Leading zero omitted, Abs format (unit mm)*
G04 Created by KiCad (PCBNEW 6.0.10-86aedd382b~118~ubuntu20.04.1) date 2023-01-03 17:42:13*
%MOMM*%
%LPD*%
G01*
G04 APERTURE LIST*
G04 #@! TA.AperFunction,ComponentPad*
%ADD10C,2.000000*%
G04 #@! TD*
G04 #@! TA.AperFunction,ComponentPad*
%ADD11R,1.700000X1.700000*%
G04 #@! TD*
G04 #@! TA.AperFunction,ComponentPad*
%ADD12O,1.700000X1.700000*%
G04 #@! TD*
G04 #@! TA.AperFunction,ComponentPad*
%ADD13C,1.524000*%
G04 #@! TD*
G04 #@! TA.AperFunction,ViaPad*
%ADD14C,0.800000*%
G04 #@! TD*
G04 #@! TA.AperFunction,Conductor*
%ADD15C,0.250000*%
G04 #@! TD*
G04 #@! TA.AperFunction,Conductor*
%ADD16C,0.750000*%
G04 #@! TD*
G04 #@! TA.AperFunction,Conductor*
%ADD17C,0.550000*%
G04 #@! TD*
G04 APERTURE END LIST*
D10*
X62770000Y-107210000D03*
X101770000Y-54650000D03*
X99730000Y-52600000D03*
X102070000Y-113770000D03*
X104610000Y-111230000D03*
X102070000Y-111230000D03*
X102070000Y-116310000D03*
X104610000Y-116310000D03*
X104610000Y-113770000D03*
X104590000Y-123950000D03*
X102050000Y-123950000D03*
X99510000Y-123950000D03*
X96970000Y-123950000D03*
X94430000Y-123950000D03*
X104590000Y-121410000D03*
X102050000Y-121410000D03*
X99510000Y-121410000D03*
X96970000Y-121410000D03*
X94430000Y-121410000D03*
X104590000Y-118870000D03*
X102050000Y-118870000D03*
X99510000Y-118870000D03*
X96970000Y-118870000D03*
X61490000Y-74840000D03*
X66640000Y-74660000D03*
X69640000Y-55910000D03*
D11*
X91730000Y-113165000D03*
D12*
X89190000Y-113165000D03*
X86650000Y-113165000D03*
D10*
X74630000Y-82520000D03*
D13*
X28150000Y-63740000D03*
X33150000Y-63740000D03*
X33150000Y-53580000D03*
X33150000Y-56120000D03*
X33150000Y-58660000D03*
X33150000Y-61200000D03*
X33150000Y-66280000D03*
X33150000Y-68820000D03*
X33150000Y-71360000D03*
X33150000Y-73900000D03*
X33150000Y-76440000D03*
X33150000Y-78980000D03*
X33150000Y-81520000D03*
X33150000Y-84060000D03*
X33150000Y-86600000D03*
X33150000Y-89140000D03*
X33150000Y-91680000D03*
X33150000Y-94220000D03*
X33150000Y-96760000D03*
X33150000Y-99300000D03*
X33150000Y-101840000D03*
X33150000Y-104380000D03*
X33150000Y-106920000D03*
X33150000Y-109460000D03*
X33150000Y-112000000D03*
X33150000Y-114540000D03*
X33150000Y-117080000D03*
X33150000Y-119620000D03*
X33150000Y-122160000D03*
X28150000Y-53580000D03*
X28150000Y-56120000D03*
X28150000Y-58660000D03*
X28150000Y-61200000D03*
X28150000Y-66280000D03*
X28150000Y-68820000D03*
X28150000Y-71360000D03*
X28150000Y-73900000D03*
X28150000Y-76440000D03*
X28150000Y-78980000D03*
X28150000Y-81520000D03*
X28150000Y-84060000D03*
X28150000Y-86600000D03*
X28150000Y-89140000D03*
X28150000Y-91680000D03*
X28150000Y-94220000D03*
X28150000Y-96760000D03*
X28150000Y-99300000D03*
X28150000Y-101840000D03*
X28150000Y-104380000D03*
X28150000Y-106920000D03*
X28150000Y-109460000D03*
X28150000Y-112000000D03*
X28150000Y-114540000D03*
X28150000Y-117080000D03*
X28150000Y-119620000D03*
X28150000Y-122160000D03*
D10*
X79920000Y-110260000D03*
D12*
X80350000Y-58190000D03*
X80350000Y-60730000D03*
D11*
X80350000Y-63270000D03*
D12*
X80350000Y-65810000D03*
X80350000Y-68350000D03*
X80350000Y-70890000D03*
X80350000Y-73430000D03*
D11*
X80350000Y-75970000D03*
D12*
X80350000Y-78510000D03*
X80350000Y-81050000D03*
X80350000Y-83590000D03*
X80350000Y-86130000D03*
D11*
X80350000Y-88670000D03*
D12*
X80350000Y-91210000D03*
X80350000Y-93750000D03*
X80350000Y-96290000D03*
X80350000Y-98830000D03*
D11*
X80350000Y-101370000D03*
D12*
X80350000Y-103910000D03*
X80350000Y-106450000D03*
X98130000Y-106450000D03*
X98130000Y-103910000D03*
D11*
X98130000Y-101370000D03*
D12*
X98130000Y-98830000D03*
X98130000Y-96290000D03*
X98130000Y-93750000D03*
X98130000Y-91210000D03*
D11*
X98130000Y-88670000D03*
D12*
X98130000Y-86130000D03*
X98130000Y-83590000D03*
X98130000Y-81050000D03*
X98130000Y-78510000D03*
D11*
X98130000Y-75970000D03*
D12*
X98130000Y-73430000D03*
X98130000Y-70890000D03*
X98130000Y-68350000D03*
X98130000Y-65810000D03*
D11*
X98130000Y-63270000D03*
D12*
X98130000Y-60730000D03*
X98130000Y-58190000D03*
X86700000Y-106220000D03*
D11*
X89240000Y-106220000D03*
D12*
X91780000Y-106220000D03*
D10*
X69610000Y-53350000D03*
D14*
X73440000Y-124940000D03*
X68450000Y-58560000D03*
X93680000Y-55100000D03*
X68440000Y-78270000D03*
X93660000Y-68450000D03*
X66140000Y-88310000D03*
X68910000Y-92670000D03*
X66230000Y-86020000D03*
X65950000Y-107920000D03*
X72480000Y-80340000D03*
X41290000Y-88310000D03*
X58310000Y-54810000D03*
X71690000Y-112510000D03*
X41270000Y-75210000D03*
X29980000Y-74780000D03*
X62730000Y-59240000D03*
X89250000Y-101370000D03*
X61120000Y-104660000D03*
X29790000Y-70340000D03*
X64840000Y-80780000D03*
X59210000Y-122670000D03*
X62730000Y-69330000D03*
X58320000Y-58520000D03*
X72320000Y-53590000D03*
X72420000Y-76540000D03*
X31210000Y-72590000D03*
X58980000Y-77030000D03*
X58650000Y-92640000D03*
X37060000Y-80420000D03*
X37000000Y-93490000D03*
X35830000Y-82830000D03*
X35820000Y-94670000D03*
X35850000Y-116310000D03*
X35830000Y-113200000D03*
X37390000Y-110830000D03*
X37420000Y-115090000D03*
X38640000Y-108260000D03*
X38630000Y-113730000D03*
X82760000Y-114860000D03*
X82680000Y-86130000D03*
X83660000Y-116300000D03*
X83640000Y-91230000D03*
X84670000Y-117570000D03*
X84810000Y-93740000D03*
X40080000Y-105580000D03*
X40050000Y-112500000D03*
X38960000Y-57340000D03*
X38940000Y-93610000D03*
X39850000Y-92890000D03*
X39830000Y-56160000D03*
X98130000Y-115600000D03*
X96690000Y-115609999D03*
X96180000Y-103910000D03*
X94930000Y-98820000D03*
X95240000Y-115546666D03*
X93790000Y-115483333D03*
X93790000Y-96310000D03*
X81820000Y-113790000D03*
X83430000Y-81070000D03*
X37910000Y-66250000D03*
X38040000Y-59810000D03*
X40840000Y-61060000D03*
X40840000Y-68790000D03*
X42200000Y-62320000D03*
X42150000Y-71360000D03*
X47320000Y-64860000D03*
X47360000Y-78920000D03*
X49250000Y-81520000D03*
X49160000Y-67400000D03*
X45490000Y-63580000D03*
X45520000Y-76430000D03*
X44120000Y-66090000D03*
X44150000Y-73890000D03*
X56170000Y-68670000D03*
X56110000Y-58660000D03*
X63910000Y-59810000D03*
X63920000Y-77690000D03*
X53150000Y-80800000D03*
X52850000Y-54970000D03*
X54350000Y-53640000D03*
X54670000Y-79540000D03*
X55780000Y-78290000D03*
X38190000Y-86250000D03*
X38190000Y-98610000D03*
X55810000Y-86330000D03*
X62000000Y-71590000D03*
X57650000Y-91590000D03*
X57940000Y-82080000D03*
D15*
X100860000Y-78510000D02*
X103090000Y-76280000D01*
X98130000Y-78510000D02*
X100860000Y-78510000D01*
X103090000Y-76280000D02*
X103090000Y-55970000D01*
X103090000Y-55970000D02*
X101770000Y-54650000D01*
X99140000Y-54590000D02*
X99140000Y-53190000D01*
X99140000Y-53190000D02*
X99730000Y-52600000D01*
X100690000Y-73430000D02*
X101940000Y-72180000D01*
X101940000Y-57390000D02*
X99140000Y-54590000D01*
X98130000Y-73430000D02*
X100690000Y-73430000D01*
X101940000Y-72180000D02*
X101940000Y-57390000D01*
D16*
X68450000Y-76370000D02*
X68450000Y-58560000D01*
X68440000Y-76380000D02*
X68450000Y-76370000D01*
X68440000Y-78270000D02*
X68440000Y-76380000D01*
X93680000Y-68430000D02*
X93680000Y-55100000D01*
X93660000Y-68450000D02*
X93680000Y-68430000D01*
X89240000Y-106220000D02*
X89240000Y-101380000D01*
X41290000Y-75230000D02*
X41270000Y-75210000D01*
X62730000Y-69330000D02*
X62730000Y-59240000D01*
X30040000Y-84710000D02*
X28150000Y-86600000D01*
X28150000Y-68820000D02*
X30040000Y-70710000D01*
D15*
X89240000Y-113115000D02*
X89190000Y-113165000D01*
D16*
X58320000Y-54820000D02*
X58310000Y-54810000D01*
X58320000Y-58520000D02*
X58320000Y-54820000D01*
X28150000Y-66280000D02*
X28150000Y-68820000D01*
X89240000Y-101380000D02*
X89250000Y-101370000D01*
X30040000Y-70710000D02*
X30040000Y-84710000D01*
X89240000Y-106220000D02*
X89240000Y-113115000D01*
X41290000Y-88310000D02*
X41290000Y-75230000D01*
X31200000Y-111340000D02*
X31220000Y-111360000D01*
X31170000Y-111520000D02*
X28150000Y-114540000D01*
D17*
X72240000Y-53670000D02*
X72240000Y-76360000D01*
D16*
X31190000Y-61700000D02*
X28150000Y-58660000D01*
D17*
X72320000Y-53590000D02*
X72240000Y-53670000D01*
X72240000Y-76360000D02*
X72420000Y-76540000D01*
D16*
X31200000Y-61710000D02*
X31200000Y-111340000D01*
D15*
X91780000Y-113115000D02*
X91730000Y-113165000D01*
X91780000Y-106220000D02*
X91780000Y-113115000D01*
X86700000Y-106220000D02*
X86650000Y-106270000D01*
X86650000Y-106270000D02*
X86650000Y-113165000D01*
X58665000Y-77025000D02*
X58665000Y-92625000D01*
X58665000Y-92625000D02*
X58650000Y-92640000D01*
X37060000Y-80420000D02*
X37060000Y-93430000D01*
X37060000Y-93430000D02*
X37000000Y-93490000D01*
X35830000Y-82830000D02*
X35830000Y-94660000D01*
X35830000Y-94660000D02*
X35820000Y-94670000D01*
X35830000Y-116290000D02*
X35850000Y-116310000D01*
X35830000Y-113200000D02*
X35830000Y-116290000D01*
X37390000Y-110830000D02*
X37390000Y-115060000D01*
X37390000Y-115060000D02*
X37420000Y-115090000D01*
X38640000Y-113720000D02*
X38630000Y-113730000D01*
X38640000Y-108260000D02*
X38640000Y-113720000D01*
X82760000Y-114860000D02*
X82760000Y-86210000D01*
X82760000Y-86210000D02*
X82680000Y-86130000D01*
X83660000Y-91250000D02*
X83640000Y-91230000D01*
X83660000Y-116300000D02*
X83660000Y-91250000D01*
X84670000Y-117570000D02*
X84810000Y-117430000D01*
X84810000Y-117430000D02*
X84810000Y-93740000D01*
X40080000Y-105580000D02*
X40080000Y-112470000D01*
X40080000Y-112470000D02*
X40050000Y-112500000D01*
X38960000Y-93590000D02*
X38940000Y-93610000D01*
X38960000Y-57340000D02*
X38960000Y-93590000D01*
X39830000Y-92870000D02*
X39850000Y-92890000D01*
X39830000Y-56160000D02*
X39830000Y-92870000D01*
X98140000Y-115420000D02*
X98130000Y-115410000D01*
X98130000Y-115410000D02*
X98130000Y-106450000D01*
X96650000Y-115660000D02*
X96650000Y-103970000D01*
X95240000Y-115540000D02*
X95240000Y-98820000D01*
X93790000Y-115550000D02*
X93790000Y-96310000D01*
X81820000Y-82680000D02*
X83430000Y-81070000D01*
X81820000Y-113790000D02*
X81820000Y-82680000D01*
X38040000Y-66120000D02*
X38040000Y-59810000D01*
X37910000Y-66250000D02*
X38040000Y-66120000D01*
X40840000Y-68790000D02*
X40840000Y-61060000D01*
X42150000Y-71360000D02*
X42150000Y-62370000D01*
X42150000Y-62370000D02*
X42200000Y-62320000D01*
X47360000Y-78920000D02*
X47360000Y-64900000D01*
X47360000Y-64900000D02*
X47320000Y-64860000D01*
X49250000Y-81520000D02*
X49250000Y-67490000D01*
X49250000Y-67490000D02*
X49160000Y-67400000D01*
X45520000Y-76430000D02*
X45520000Y-63610000D01*
X45520000Y-63610000D02*
X45490000Y-63580000D01*
X44150000Y-66120000D02*
X44120000Y-66090000D01*
X44150000Y-73890000D02*
X44150000Y-66120000D01*
X56110000Y-68610000D02*
X56170000Y-68670000D01*
X56110000Y-58660000D02*
X56110000Y-68610000D01*
X63920000Y-59820000D02*
X63910000Y-59810000D01*
X63920000Y-77690000D02*
X63920000Y-59820000D01*
X52850000Y-80500000D02*
X53150000Y-80800000D01*
X52850000Y-54970000D02*
X52850000Y-80500000D01*
X54350000Y-53640000D02*
X54350000Y-79220000D01*
X54350000Y-79220000D02*
X54670000Y-79540000D01*
X38190000Y-98610000D02*
X38190000Y-86250000D01*
X55810000Y-86330000D02*
X55780000Y-86300000D01*
X55780000Y-86300000D02*
X55780000Y-78290000D01*
X57940000Y-82080000D02*
X57940000Y-75650000D01*
X57650000Y-82370000D02*
X57940000Y-82080000D01*
X57940000Y-75650000D02*
X62000000Y-71590000D01*
X57650000Y-91590000D02*
X57650000Y-82370000D01*
G04 #@! TA.AperFunction,Conductor*
G36*
X76710000Y-61920000D02*
G01*
X78987953Y-61920000D01*
X79056074Y-61940002D01*
X79102567Y-61993658D01*
X79112671Y-62063932D01*
X79088780Y-62121564D01*
X79055213Y-62166352D01*
X79046676Y-62181946D01*
X79001522Y-62302394D01*
X78997895Y-62317649D01*
X78992369Y-62368514D01*
X78992000Y-62375328D01*
X78992000Y-62997885D01*
X78996475Y-63013124D01*
X78997865Y-63014329D01*
X79005548Y-63016000D01*
X80478000Y-63016000D01*
X80546121Y-63036002D01*
X80592614Y-63089658D01*
X80604000Y-63142000D01*
X80604000Y-63398000D01*
X80583998Y-63466121D01*
X80530342Y-63512614D01*
X80478000Y-63524000D01*
X79010116Y-63524000D01*
X78994877Y-63528475D01*
X78993672Y-63529865D01*
X78992001Y-63537548D01*
X78992001Y-64164669D01*
X78992371Y-64171490D01*
X78997895Y-64222352D01*
X79001521Y-64237604D01*
X79046676Y-64358054D01*
X79055214Y-64373648D01*
X79058802Y-64378436D01*
X79083649Y-64444943D01*
X79068595Y-64514325D01*
X79018420Y-64564555D01*
X78957975Y-64580000D01*
X76690000Y-64580000D01*
X76640000Y-74650000D01*
X76653887Y-74649920D01*
X76653888Y-74649920D01*
X77140440Y-74647109D01*
X78974855Y-74636513D01*
X79043087Y-74656120D01*
X79089889Y-74709506D01*
X79100399Y-74779721D01*
X79076406Y-74838075D01*
X79055214Y-74866351D01*
X79046676Y-74881946D01*
X79001522Y-75002394D01*
X78997895Y-75017649D01*
X78992369Y-75068514D01*
X78992000Y-75075328D01*
X78992000Y-75697885D01*
X78996475Y-75713124D01*
X78997865Y-75714329D01*
X79005548Y-75716000D01*
X81689884Y-75716000D01*
X81705123Y-75711525D01*
X81706328Y-75710135D01*
X81707999Y-75702452D01*
X81707999Y-75075331D01*
X81707629Y-75068510D01*
X81702105Y-75017648D01*
X81698479Y-75002396D01*
X81653324Y-74881946D01*
X81644786Y-74866351D01*
X81611746Y-74822266D01*
X81586898Y-74755759D01*
X81601951Y-74686377D01*
X81652125Y-74636147D01*
X81711844Y-74620703D01*
X94541885Y-74546591D01*
X94541886Y-74546591D01*
X94560000Y-74546486D01*
X94560000Y-68585089D01*
X94560690Y-68571919D01*
X94572814Y-68456565D01*
X94573504Y-68450000D01*
X94566938Y-68387530D01*
X94568255Y-68387392D01*
X94567140Y-68383678D01*
X94567149Y-68383507D01*
X94566116Y-68376988D01*
X94566116Y-68376982D01*
X94565782Y-68374876D01*
X94564920Y-68368333D01*
X94564190Y-68361387D01*
X94563500Y-68348217D01*
X94563500Y-62246000D01*
X94583502Y-62177879D01*
X94637158Y-62131386D01*
X94689500Y-62120000D01*
X96668100Y-62120000D01*
X96736221Y-62140002D01*
X96782714Y-62193658D01*
X96792818Y-62263932D01*
X96786082Y-62290230D01*
X96781522Y-62302395D01*
X96777895Y-62317649D01*
X96772369Y-62368514D01*
X96772000Y-62375328D01*
X96772000Y-62997885D01*
X96776475Y-63013124D01*
X96777865Y-63014329D01*
X96785548Y-63016000D01*
X98258000Y-63016000D01*
X98326121Y-63036002D01*
X98372614Y-63089658D01*
X98384000Y-63142000D01*
X98384000Y-63398000D01*
X98363998Y-63466121D01*
X98310342Y-63512614D01*
X98258000Y-63524000D01*
X96790116Y-63524000D01*
X96774877Y-63528475D01*
X96773672Y-63529865D01*
X96772001Y-63537548D01*
X96772001Y-64164669D01*
X96772371Y-64171490D01*
X96777895Y-64222352D01*
X96781521Y-64237603D01*
X96811491Y-64317548D01*
X96816674Y-64388355D01*
X96782753Y-64450724D01*
X96733506Y-64480000D01*
X96720000Y-64480000D01*
X96720000Y-74534009D01*
X96733727Y-74533930D01*
X96733728Y-74533930D01*
X96837746Y-74533329D01*
X96905981Y-74552937D01*
X96952783Y-74606324D01*
X96963293Y-74676538D01*
X96934173Y-74741288D01*
X96927569Y-74748422D01*
X96911715Y-74764276D01*
X96835214Y-74866351D01*
X96826676Y-74881946D01*
X96781522Y-75002394D01*
X96777895Y-75017649D01*
X96772369Y-75068514D01*
X96772000Y-75075328D01*
X96772000Y-75697885D01*
X96776475Y-75713124D01*
X96777865Y-75714329D01*
X96785548Y-75716000D01*
X98258000Y-75716000D01*
X98326121Y-75736002D01*
X98372614Y-75789658D01*
X98384000Y-75842000D01*
X98384000Y-76098000D01*
X98363998Y-76166121D01*
X98310342Y-76212614D01*
X98258000Y-76224000D01*
X96790116Y-76224000D01*
X96774877Y-76228475D01*
X96773672Y-76229865D01*
X96772001Y-76237548D01*
X96772001Y-76864669D01*
X96772371Y-76871490D01*
X96777895Y-76922352D01*
X96781521Y-76937604D01*
X96826676Y-77058054D01*
X96835213Y-77073648D01*
X96840044Y-77080093D01*
X96864891Y-77146599D01*
X96849838Y-77215982D01*
X96834991Y-77237532D01*
X96819226Y-77255974D01*
X96812472Y-77256019D01*
X96812521Y-77269470D01*
X96812521Y-77269471D01*
X96815732Y-78147738D01*
X96811152Y-78181867D01*
X96790989Y-78254570D01*
X96767251Y-78476695D01*
X96780110Y-78699715D01*
X96781247Y-78704761D01*
X96781248Y-78704767D01*
X96815339Y-78856039D01*
X96818421Y-78883279D01*
X96824898Y-80654687D01*
X96820316Y-80688820D01*
X96790989Y-80794570D01*
X96767251Y-81016695D01*
X96767548Y-81021848D01*
X96767548Y-81021851D01*
X96776192Y-81171760D01*
X96780110Y-81239715D01*
X96781249Y-81244768D01*
X96781249Y-81244770D01*
X96824779Y-81437929D01*
X96827861Y-81465168D01*
X96834064Y-83161635D01*
X96829482Y-83195768D01*
X96796084Y-83316200D01*
X96790989Y-83334570D01*
X96767251Y-83556695D01*
X96767548Y-83561848D01*
X96767548Y-83561851D01*
X96769171Y-83590000D01*
X96780110Y-83779715D01*
X96781247Y-83784761D01*
X96781248Y-83784767D01*
X96799477Y-83865654D01*
X96829222Y-83997639D01*
X96831168Y-84002432D01*
X96831513Y-84003532D01*
X96837279Y-84040753D01*
X96843230Y-85668584D01*
X96838648Y-85702717D01*
X96823194Y-85758444D01*
X96790989Y-85874570D01*
X96767251Y-86096695D01*
X96780110Y-86319715D01*
X96781247Y-86324761D01*
X96781248Y-86324767D01*
X96802275Y-86418069D01*
X96829222Y-86537639D01*
X96831168Y-86542430D01*
X96831169Y-86542435D01*
X96837397Y-86557772D01*
X96846653Y-86604714D01*
X96849951Y-87506735D01*
X96834472Y-87567704D01*
X96826679Y-87581939D01*
X96781522Y-87702394D01*
X96777895Y-87717649D01*
X96772369Y-87768514D01*
X96772000Y-87775328D01*
X96772000Y-88397885D01*
X96776475Y-88413124D01*
X96777865Y-88414329D01*
X96785548Y-88416000D01*
X98258000Y-88416000D01*
X98326121Y-88436002D01*
X98372614Y-88489658D01*
X98384000Y-88542000D01*
X98384000Y-88798000D01*
X98363998Y-88866121D01*
X98310342Y-88912614D01*
X98258000Y-88924000D01*
X96790116Y-88924000D01*
X96774877Y-88928475D01*
X96773672Y-88929865D01*
X96772001Y-88937548D01*
X96772001Y-89564669D01*
X96772371Y-89571490D01*
X96777895Y-89622352D01*
X96781521Y-89637603D01*
X96816073Y-89729770D01*
X96821256Y-89800577D01*
X96787335Y-89862946D01*
X96725080Y-89897076D01*
X96698091Y-89900000D01*
X94725340Y-89900000D01*
X94657219Y-89879998D01*
X94610726Y-89826342D01*
X94599342Y-89774661D01*
X94599284Y-89763491D01*
X94533732Y-77271229D01*
X90615150Y-77297385D01*
X81685162Y-77356991D01*
X81616909Y-77337444D01*
X81570059Y-77284100D01*
X81559487Y-77213895D01*
X81583495Y-77155429D01*
X81644786Y-77073648D01*
X81653324Y-77058054D01*
X81698478Y-76937606D01*
X81702105Y-76922351D01*
X81707631Y-76871486D01*
X81708000Y-76864672D01*
X81708000Y-76242115D01*
X81703525Y-76226876D01*
X81702135Y-76225671D01*
X81694452Y-76224000D01*
X79010116Y-76224000D01*
X78994877Y-76228475D01*
X78993672Y-76229865D01*
X78992001Y-76237548D01*
X78992001Y-76864669D01*
X78992371Y-76871490D01*
X78997895Y-76922352D01*
X79001521Y-76937604D01*
X79046676Y-77058054D01*
X79055214Y-77073649D01*
X79129789Y-77173154D01*
X79154637Y-77239661D01*
X79139584Y-77309043D01*
X79089410Y-77359273D01*
X79029805Y-77374716D01*
X77447157Y-77385280D01*
X76758117Y-77389879D01*
X76740000Y-77390000D01*
X76790000Y-87340000D01*
X78972964Y-87340000D01*
X79041085Y-87360002D01*
X79087578Y-87413658D01*
X79097682Y-87483932D01*
X79073791Y-87541564D01*
X79055214Y-87566352D01*
X79046676Y-87581946D01*
X79001522Y-87702394D01*
X78997895Y-87717649D01*
X78992369Y-87768514D01*
X78992000Y-87775328D01*
X78992000Y-88397885D01*
X78996475Y-88413124D01*
X78997865Y-88414329D01*
X79005548Y-88416000D01*
X80478000Y-88416000D01*
X80546121Y-88436002D01*
X80592614Y-88489658D01*
X80604000Y-88542000D01*
X80604000Y-88798000D01*
X80583998Y-88866121D01*
X80530342Y-88912614D01*
X80478000Y-88924000D01*
X79010116Y-88924000D01*
X78994877Y-88928475D01*
X78993672Y-88929865D01*
X78992001Y-88937548D01*
X78992001Y-89564669D01*
X78992371Y-89571490D01*
X78997895Y-89622352D01*
X79001521Y-89637604D01*
X79046677Y-89758058D01*
X79049652Y-89763491D01*
X79064821Y-89832849D01*
X79040084Y-89899396D01*
X78983296Y-89942006D01*
X78939132Y-89950000D01*
X76780000Y-89950000D01*
X76788854Y-92836211D01*
X76789612Y-93083450D01*
X76769819Y-93151632D01*
X76716307Y-93198290D01*
X76663451Y-93209837D01*
X69038116Y-93200023D01*
X69038115Y-93200023D01*
X69020000Y-93200000D01*
X69010000Y-100100000D01*
X69023542Y-100100022D01*
X69023543Y-100100022D01*
X78927325Y-100115906D01*
X78995414Y-100136017D01*
X79041820Y-100189748D01*
X79051812Y-100260038D01*
X79045105Y-100286136D01*
X79001522Y-100402394D01*
X78997895Y-100417649D01*
X78992369Y-100468514D01*
X78992000Y-100475328D01*
X78992000Y-101097885D01*
X78996475Y-101113124D01*
X78997865Y-101114329D01*
X79005548Y-101116000D01*
X80478000Y-101116000D01*
X80546121Y-101136002D01*
X80592614Y-101189658D01*
X80604000Y-101242000D01*
X80604000Y-101498000D01*
X80583998Y-101566121D01*
X80530342Y-101612614D01*
X80478000Y-101624000D01*
X79010116Y-101624000D01*
X78994877Y-101628475D01*
X78993672Y-101629865D01*
X78992001Y-101637548D01*
X78992001Y-102264669D01*
X78992371Y-102271490D01*
X78997895Y-102322352D01*
X79001521Y-102337604D01*
X79046676Y-102458054D01*
X79055213Y-102473648D01*
X79072541Y-102496768D01*
X79097388Y-102563274D01*
X79082335Y-102632657D01*
X79032160Y-102682886D01*
X78971129Y-102698331D01*
X78258068Y-102695014D01*
X77198115Y-102690084D01*
X77198114Y-102690084D01*
X77180000Y-102690000D01*
X77180000Y-105443518D01*
X77159998Y-105511639D01*
X77106342Y-105558132D01*
X77053520Y-105569517D01*
X72292855Y-105551323D01*
X69348115Y-105540069D01*
X69348114Y-105540069D01*
X69330000Y-105540000D01*
X69312236Y-108068445D01*
X69309694Y-108430290D01*
X69300000Y-109810000D01*
X69313658Y-109810049D01*
X71611013Y-109818283D01*
X71964452Y-109819550D01*
X72032500Y-109839796D01*
X72078801Y-109893618D01*
X72090000Y-109945549D01*
X72090000Y-123960000D01*
X58516000Y-123960000D01*
X58447879Y-123939998D01*
X58401386Y-123886342D01*
X58390000Y-123834000D01*
X58390000Y-108442670D01*
X61902160Y-108442670D01*
X61907887Y-108450320D01*
X62079042Y-108555205D01*
X62087837Y-108559687D01*
X62297988Y-108646734D01*
X62307373Y-108649783D01*
X62528554Y-108702885D01*
X62538301Y-108704428D01*
X62765070Y-108722275D01*
X62774930Y-108722275D01*
X63001699Y-108704428D01*
X63011446Y-108702885D01*
X63232627Y-108649783D01*
X63242012Y-108646734D01*
X63452163Y-108559687D01*
X63460958Y-108555205D01*
X63628445Y-108452568D01*
X63637907Y-108442110D01*
X63634124Y-108433334D01*
X62782812Y-107582022D01*
X62768868Y-107574408D01*
X62767035Y-107574539D01*
X62760420Y-107578790D01*
X61908920Y-108430290D01*
X61902160Y-108442670D01*
X58390000Y-108442670D01*
X58390000Y-107214930D01*
X61257725Y-107214930D01*
X61275572Y-107441699D01*
X61277115Y-107451446D01*
X61330217Y-107672627D01*
X61333266Y-107682012D01*
X61420313Y-107892163D01*
X61424795Y-107900958D01*
X61527432Y-108068445D01*
X61537890Y-108077907D01*
X61546666Y-108074124D01*
X62397978Y-107222812D01*
X62404356Y-107211132D01*
X63134408Y-107211132D01*
X63134539Y-107212965D01*
X63138790Y-107219580D01*
X63990290Y-108071080D01*
X64002670Y-108077840D01*
X64010320Y-108072113D01*
X64115205Y-107900958D01*
X64119687Y-107892163D01*
X64206734Y-107682012D01*
X64209783Y-107672627D01*
X64262885Y-107451446D01*
X64264428Y-107441699D01*
X64282275Y-107214930D01*
X64282275Y-107205070D01*
X64264428Y-106978301D01*
X64262885Y-106968554D01*
X64209783Y-106747373D01*
X64206734Y-106737988D01*
X64119687Y-106527837D01*
X64115205Y-106519042D01*
X64012568Y-106351555D01*
X64002110Y-106342093D01*
X63993334Y-106345876D01*
X63142022Y-107197188D01*
X63134408Y-107211132D01*
X62404356Y-107211132D01*
X62405592Y-107208868D01*
X62405461Y-107207035D01*
X62401210Y-107200420D01*
X61549710Y-106348920D01*
X61537330Y-106342160D01*
X61529680Y-106347887D01*
X61424795Y-106519042D01*
X61420313Y-106527837D01*
X61333266Y-106737988D01*
X61330217Y-106747373D01*
X61277115Y-106968554D01*
X61275572Y-106978301D01*
X61257725Y-107205070D01*
X61257725Y-107214930D01*
X58390000Y-107214930D01*
X58390000Y-106624909D01*
X58410002Y-106556788D01*
X58463658Y-106510295D01*
X58514904Y-106498914D01*
X59521885Y-106490158D01*
X59521887Y-106490158D01*
X59540000Y-106490000D01*
X59539740Y-106345876D01*
X59539075Y-105977890D01*
X61902093Y-105977890D01*
X61905876Y-105986666D01*
X62757188Y-106837978D01*
X62771132Y-106845592D01*
X62772965Y-106845461D01*
X62779580Y-106841210D01*
X63631080Y-105989710D01*
X63637840Y-105977330D01*
X63632113Y-105969680D01*
X63460958Y-105864795D01*
X63452163Y-105860313D01*
X63242012Y-105773266D01*
X63232627Y-105770217D01*
X63011446Y-105717115D01*
X63001699Y-105715572D01*
X62774930Y-105697725D01*
X62765070Y-105697725D01*
X62538301Y-105715572D01*
X62528554Y-105717115D01*
X62307373Y-105770217D01*
X62297988Y-105773266D01*
X62087837Y-105860313D01*
X62079042Y-105864795D01*
X61911555Y-105967432D01*
X61902093Y-105977890D01*
X59539075Y-105977890D01*
X59532902Y-102563274D01*
X59515500Y-92936414D01*
X59521665Y-92897257D01*
X59543542Y-92829928D01*
X59563504Y-92640000D01*
X59548498Y-92497221D01*
X59544232Y-92456635D01*
X59544232Y-92456633D01*
X59543542Y-92450072D01*
X59520590Y-92379432D01*
X59514423Y-92340726D01*
X59503548Y-86324767D01*
X59496670Y-82520000D01*
X73116835Y-82520000D01*
X73135465Y-82756711D01*
X73190895Y-82987594D01*
X73192788Y-82992165D01*
X73192789Y-82992167D01*
X73262985Y-83161635D01*
X73281760Y-83206963D01*
X73284346Y-83211183D01*
X73403241Y-83405202D01*
X73403245Y-83405208D01*
X73405824Y-83409416D01*
X73560031Y-83589969D01*
X73740584Y-83744176D01*
X73744792Y-83746755D01*
X73744798Y-83746759D01*
X73938817Y-83865654D01*
X73943037Y-83868240D01*
X73947607Y-83870133D01*
X73947611Y-83870135D01*
X73966766Y-83878069D01*
X74162406Y-83959105D01*
X74242609Y-83978360D01*
X74388476Y-84013380D01*
X74388482Y-84013381D01*
X74393289Y-84014535D01*
X74630000Y-84033165D01*
X74866711Y-84014535D01*
X74871518Y-84013381D01*
X74871524Y-84013380D01*
X75017391Y-83978360D01*
X75097594Y-83959105D01*
X75293234Y-83878069D01*
X75312389Y-83870135D01*
X75312393Y-83870133D01*
X75316963Y-83868240D01*
X75321183Y-83865654D01*
X75515202Y-83746759D01*
X75515208Y-83746755D01*
X75519416Y-83744176D01*
X75699969Y-83589969D01*
X75854176Y-83409416D01*
X75856755Y-83405208D01*
X75856759Y-83405202D01*
X75975654Y-83211183D01*
X75978240Y-83206963D01*
X75997016Y-83161635D01*
X76067211Y-82992167D01*
X76067212Y-82992165D01*
X76069105Y-82987594D01*
X76124535Y-82756711D01*
X76143165Y-82520000D01*
X76124535Y-82283289D01*
X76120894Y-82268120D01*
X76070260Y-82057218D01*
X76069105Y-82052406D01*
X76057313Y-82023938D01*
X75980135Y-81837611D01*
X75980133Y-81837607D01*
X75978240Y-81833037D01*
X75975654Y-81828817D01*
X75856759Y-81634798D01*
X75856755Y-81634792D01*
X75854176Y-81630584D01*
X75699969Y-81450031D01*
X75519416Y-81295824D01*
X75515208Y-81293245D01*
X75515202Y-81293241D01*
X75321183Y-81174346D01*
X75316963Y-81171760D01*
X75312393Y-81169867D01*
X75312389Y-81169865D01*
X75102167Y-81082789D01*
X75102165Y-81082788D01*
X75097594Y-81080895D01*
X75017391Y-81061640D01*
X74871524Y-81026620D01*
X74871518Y-81026619D01*
X74866711Y-81025465D01*
X74630000Y-81006835D01*
X74393289Y-81025465D01*
X74388482Y-81026619D01*
X74388476Y-81026620D01*
X74242609Y-81061640D01*
X74162406Y-81080895D01*
X74157835Y-81082788D01*
X74157833Y-81082789D01*
X73947611Y-81169865D01*
X73947607Y-81169867D01*
X73943037Y-81171760D01*
X73938817Y-81174346D01*
X73744798Y-81293241D01*
X73744792Y-81293245D01*
X73740584Y-81295824D01*
X73560031Y-81450031D01*
X73405824Y-81630584D01*
X73403245Y-81634792D01*
X73403241Y-81634798D01*
X73284346Y-81828817D01*
X73281760Y-81833037D01*
X73279867Y-81837607D01*
X73279865Y-81837611D01*
X73202687Y-82023938D01*
X73190895Y-82052406D01*
X73189740Y-82057218D01*
X73139107Y-82268120D01*
X73135465Y-82283289D01*
X73116835Y-82520000D01*
X59496670Y-82520000D01*
X59490228Y-78956320D01*
X59510107Y-78888164D01*
X59563679Y-78841574D01*
X59616319Y-78830093D01*
X62344799Y-78832112D01*
X67671162Y-78836052D01*
X67739268Y-78856104D01*
X67764705Y-78877741D01*
X67824332Y-78943963D01*
X67828747Y-78948866D01*
X67983248Y-79061118D01*
X67989276Y-79063802D01*
X67989278Y-79063803D01*
X68151681Y-79136109D01*
X68157712Y-79138794D01*
X68251112Y-79158647D01*
X68338056Y-79177128D01*
X68338061Y-79177128D01*
X68344513Y-79178500D01*
X68535487Y-79178500D01*
X68541939Y-79177128D01*
X68541944Y-79177128D01*
X68628888Y-79158647D01*
X68722288Y-79138794D01*
X68728319Y-79136109D01*
X68890722Y-79063803D01*
X68890724Y-79063802D01*
X68896752Y-79061118D01*
X69051253Y-78948866D01*
X69114272Y-78878877D01*
X69174717Y-78841638D01*
X69208000Y-78837188D01*
X72991884Y-78839987D01*
X72991885Y-78839987D01*
X73010000Y-78840000D01*
X73000103Y-78582672D01*
X73000011Y-78577313D01*
X73004998Y-77389879D01*
X73005394Y-77295424D01*
X73025682Y-77227388D01*
X73037757Y-77211643D01*
X73154621Y-77081852D01*
X73154622Y-77081851D01*
X73159040Y-77076944D01*
X73248294Y-76922352D01*
X73251223Y-76917279D01*
X73251224Y-76917278D01*
X73254527Y-76911556D01*
X73313542Y-76729928D01*
X73333504Y-76540000D01*
X73321574Y-76426493D01*
X73314232Y-76356635D01*
X73314232Y-76356633D01*
X73313542Y-76350072D01*
X73254527Y-76168444D01*
X73159040Y-76003056D01*
X73055864Y-75888467D01*
X73025146Y-75824460D01*
X73023500Y-75804157D01*
X73023500Y-72983934D01*
X73023501Y-72983405D01*
X73069472Y-62035817D01*
X73089760Y-61967781D01*
X73143610Y-61921514D01*
X73195817Y-61910346D01*
X76710000Y-61920000D01*
G37*
G04 #@! TD.AperFunction*
G04 #@! TA.AperFunction,Conductor*
G36*
X72090000Y-123457021D02*
G01*
X73869704Y-123458216D01*
X73869917Y-123458216D01*
X91420000Y-123470000D01*
X91420000Y-125544219D01*
X91390506Y-125552954D01*
X91385304Y-125556314D01*
X91349526Y-125561500D01*
X70349257Y-125561500D01*
X70281136Y-125541498D01*
X70234643Y-125487842D01*
X70223305Y-125432011D01*
X70223843Y-125412598D01*
X70278044Y-123455804D01*
X72090000Y-123457021D01*
G37*
G04 #@! TD.AperFunction*
G04 #@! TA.AperFunction,Conductor*
G36*
X91732013Y-123461625D02*
G01*
X91778556Y-123515237D01*
X91789991Y-123567861D01*
X91787427Y-125412510D01*
X91767330Y-125480603D01*
X91713610Y-125527021D01*
X91661721Y-125538335D01*
X81686668Y-125561500D01*
X70349257Y-125561500D01*
X70281136Y-125541498D01*
X70257350Y-125514047D01*
X70259172Y-124137142D01*
X70259173Y-124137110D01*
X70259407Y-123960000D01*
X70260000Y-123511551D01*
X70290000Y-123651551D01*
X70260167Y-123461569D01*
X73869718Y-123458216D01*
X73869783Y-123458216D01*
X91663875Y-123441686D01*
X91732013Y-123461625D01*
G37*
G04 #@! TD.AperFunction*
M02*
