G04 #@! TF.GenerationSoftware,KiCad,Pcbnew,6.0.10-86aedd382b~118~ubuntu20.04.1*
G04 #@! TF.CreationDate,2023-01-03T17:42:13+00:00*
G04 #@! TF.ProjectId,srom,73726f6d-2e6b-4696-9361-645f70636258,rev?*
G04 #@! TF.SameCoordinates,Original*
G04 #@! TF.FileFunction,Copper,L1,Top*
G04 #@! TF.FilePolarity,Positive*
%FSLAX46Y46*%
G04 Gerber Fmt 4.6, Leading zero omitted, Abs format (unit mm)*
G04 Created by KiCad (PCBNEW 6.0.10-86aedd382b~118~ubuntu20.04.1) date 2023-01-03 17:42:13*
%MOMM*%
%LPD*%
G01*
G04 APERTURE LIST*
G04 Aperture macros list*
%AMRoundRect*
0 Rectangle with rounded corners*
0 $1 Rounding radius*
0 $2 $3 $4 $5 $6 $7 $8 $9 X,Y pos of 4 corners*
0 Add a 4 corners polygon primitive as box body*
4,1,4,$2,$3,$4,$5,$6,$7,$8,$9,$2,$3,0*
0 Add four circle primitives for the rounded corners*
1,1,$1+$1,$2,$3*
1,1,$1+$1,$4,$5*
1,1,$1+$1,$6,$7*
1,1,$1+$1,$8,$9*
0 Add four rect primitives between the rounded corners*
20,1,$1+$1,$2,$3,$4,$5,0*
20,1,$1+$1,$4,$5,$6,$7,0*
20,1,$1+$1,$6,$7,$8,$9,0*
20,1,$1+$1,$8,$9,$2,$3,0*%
G04 Aperture macros list end*
G04 #@! TA.AperFunction,ComponentPad*
%ADD10C,2.000000*%
G04 #@! TD*
G04 #@! TA.AperFunction,SMDPad,CuDef*
%ADD11RoundRect,0.250000X-0.325000X-0.650000X0.325000X-0.650000X0.325000X0.650000X-0.325000X0.650000X0*%
G04 #@! TD*
G04 #@! TA.AperFunction,SMDPad,CuDef*
%ADD12RoundRect,0.150000X-0.875000X-0.150000X0.875000X-0.150000X0.875000X0.150000X-0.875000X0.150000X0*%
G04 #@! TD*
G04 #@! TA.AperFunction,SMDPad,CuDef*
%ADD13RoundRect,0.250000X-0.650000X0.325000X-0.650000X-0.325000X0.650000X-0.325000X0.650000X0.325000X0*%
G04 #@! TD*
G04 #@! TA.AperFunction,SMDPad,CuDef*
%ADD14RoundRect,0.250000X0.325000X0.650000X-0.325000X0.650000X-0.325000X-0.650000X0.325000X-0.650000X0*%
G04 #@! TD*
G04 #@! TA.AperFunction,SMDPad,CuDef*
%ADD15RoundRect,0.150000X-0.825000X-0.150000X0.825000X-0.150000X0.825000X0.150000X-0.825000X0.150000X0*%
G04 #@! TD*
G04 #@! TA.AperFunction,ComponentPad*
%ADD16R,1.700000X1.700000*%
G04 #@! TD*
G04 #@! TA.AperFunction,ComponentPad*
%ADD17O,1.700000X1.700000*%
G04 #@! TD*
G04 #@! TA.AperFunction,SMDPad,CuDef*
%ADD18R,1.000000X1.000000*%
G04 #@! TD*
G04 #@! TA.AperFunction,ComponentPad*
%ADD19C,1.524000*%
G04 #@! TD*
G04 #@! TA.AperFunction,SMDPad,CuDef*
%ADD20R,3.500000X1.700000*%
G04 #@! TD*
G04 #@! TA.AperFunction,SMDPad,CuDef*
%ADD21R,1.700000X3.500000*%
G04 #@! TD*
G04 #@! TA.AperFunction,ViaPad*
%ADD22C,0.800000*%
G04 #@! TD*
G04 #@! TA.AperFunction,Conductor*
%ADD23C,0.750000*%
G04 #@! TD*
G04 #@! TA.AperFunction,Conductor*
%ADD24C,0.550000*%
G04 #@! TD*
G04 #@! TA.AperFunction,Conductor*
%ADD25C,0.250000*%
G04 #@! TD*
G04 APERTURE END LIST*
D10*
X62770000Y-107210000D03*
X101770000Y-54650000D03*
X99730000Y-52600000D03*
X102070000Y-113770000D03*
X104610000Y-111230000D03*
X102070000Y-111230000D03*
X102070000Y-116310000D03*
X104610000Y-116310000D03*
X104610000Y-113770000D03*
X104590000Y-123950000D03*
X102050000Y-123950000D03*
X99510000Y-123950000D03*
X96970000Y-123950000D03*
X94430000Y-123950000D03*
X104590000Y-121410000D03*
X102050000Y-121410000D03*
X99510000Y-121410000D03*
X96970000Y-121410000D03*
X94430000Y-121410000D03*
X104590000Y-118870000D03*
X102050000Y-118870000D03*
X99510000Y-118870000D03*
X96970000Y-118870000D03*
X61490000Y-74840000D03*
D11*
X67825000Y-88340000D03*
X70775000Y-88340000D03*
D12*
X60950000Y-111235000D03*
X60950000Y-112505000D03*
X60950000Y-113775000D03*
X60950000Y-115045000D03*
X60950000Y-116315000D03*
X60950000Y-117585000D03*
X60950000Y-118855000D03*
X60950000Y-120125000D03*
X60950000Y-121395000D03*
X60950000Y-122665000D03*
X70250000Y-122665000D03*
X70250000Y-121395000D03*
X70250000Y-120125000D03*
X70250000Y-118855000D03*
X70250000Y-117585000D03*
X70250000Y-116315000D03*
X70250000Y-115045000D03*
X70250000Y-113775000D03*
X70250000Y-112505000D03*
X70250000Y-111235000D03*
X61100000Y-91385000D03*
X61100000Y-92655000D03*
X61100000Y-93925000D03*
X61100000Y-95195000D03*
X61100000Y-96465000D03*
X61100000Y-97735000D03*
X61100000Y-99005000D03*
X61100000Y-100275000D03*
X61100000Y-101545000D03*
X61100000Y-102815000D03*
X70400000Y-102815000D03*
X70400000Y-101545000D03*
X70400000Y-100275000D03*
X70400000Y-99005000D03*
X70400000Y-97735000D03*
X70400000Y-96465000D03*
X70400000Y-95195000D03*
X70400000Y-93925000D03*
X70400000Y-92655000D03*
X70400000Y-91385000D03*
D13*
X70520000Y-77385000D03*
X70520000Y-80335000D03*
D14*
X70685000Y-107880000D03*
X67735000Y-107880000D03*
D10*
X66640000Y-74660000D03*
D15*
X61265000Y-76990000D03*
X61265000Y-78260000D03*
X61265000Y-79530000D03*
X61265000Y-80800000D03*
X61265000Y-82070000D03*
X61265000Y-83340000D03*
X61265000Y-84610000D03*
X66215000Y-84610000D03*
X66215000Y-83340000D03*
X66215000Y-82070000D03*
X66215000Y-80800000D03*
X66215000Y-79530000D03*
X66215000Y-78260000D03*
X66215000Y-76990000D03*
D12*
X60690000Y-58525000D03*
X60690000Y-59795000D03*
X60690000Y-61065000D03*
X60690000Y-62335000D03*
X60690000Y-63605000D03*
X60690000Y-64875000D03*
X60690000Y-66145000D03*
X60690000Y-67415000D03*
X60690000Y-68685000D03*
X60690000Y-69955000D03*
X69990000Y-69955000D03*
X69990000Y-68685000D03*
X69990000Y-67415000D03*
X69990000Y-66145000D03*
X69990000Y-64875000D03*
X69990000Y-63605000D03*
X69990000Y-62335000D03*
X69990000Y-61065000D03*
X69990000Y-59795000D03*
X69990000Y-58525000D03*
D10*
X69640000Y-55910000D03*
D14*
X62595000Y-54810000D03*
X59645000Y-54810000D03*
D16*
X91730000Y-113165000D03*
D17*
X89190000Y-113165000D03*
X86650000Y-113165000D03*
D10*
X74630000Y-82520000D03*
D18*
X96480000Y-53540000D03*
X93980000Y-53540000D03*
D19*
X28150000Y-63740000D03*
X33150000Y-63740000D03*
X33150000Y-53580000D03*
X33150000Y-56120000D03*
X33150000Y-58660000D03*
X33150000Y-61200000D03*
X33150000Y-66280000D03*
X33150000Y-68820000D03*
X33150000Y-71360000D03*
X33150000Y-73900000D03*
X33150000Y-76440000D03*
X33150000Y-78980000D03*
X33150000Y-81520000D03*
X33150000Y-84060000D03*
X33150000Y-86600000D03*
X33150000Y-89140000D03*
X33150000Y-91680000D03*
X33150000Y-94220000D03*
X33150000Y-96760000D03*
X33150000Y-99300000D03*
X33150000Y-101840000D03*
X33150000Y-104380000D03*
X33150000Y-106920000D03*
X33150000Y-109460000D03*
X33150000Y-112000000D03*
X33150000Y-114540000D03*
X33150000Y-117080000D03*
X33150000Y-119620000D03*
X33150000Y-122160000D03*
X28150000Y-53580000D03*
X28150000Y-56120000D03*
X28150000Y-58660000D03*
X28150000Y-61200000D03*
X28150000Y-66280000D03*
X28150000Y-68820000D03*
X28150000Y-71360000D03*
X28150000Y-73900000D03*
X28150000Y-76440000D03*
X28150000Y-78980000D03*
X28150000Y-81520000D03*
X28150000Y-84060000D03*
X28150000Y-86600000D03*
X28150000Y-89140000D03*
X28150000Y-91680000D03*
X28150000Y-94220000D03*
X28150000Y-96760000D03*
X28150000Y-99300000D03*
X28150000Y-101840000D03*
X28150000Y-104380000D03*
X28150000Y-106920000D03*
X28150000Y-109460000D03*
X28150000Y-112000000D03*
X28150000Y-114540000D03*
X28150000Y-117080000D03*
X28150000Y-119620000D03*
X28150000Y-122160000D03*
D10*
X79920000Y-110260000D03*
D17*
X80350000Y-58190000D03*
D20*
X79450000Y-58190000D03*
D17*
X80350000Y-60730000D03*
D20*
X79450000Y-60730000D03*
D16*
X80350000Y-63270000D03*
D20*
X79450000Y-63270000D03*
D17*
X80350000Y-65810000D03*
D20*
X79450000Y-65810000D03*
X79450000Y-68350000D03*
D17*
X80350000Y-68350000D03*
X80350000Y-70890000D03*
D20*
X79450000Y-70890000D03*
X79450000Y-73430000D03*
D17*
X80350000Y-73430000D03*
D16*
X80350000Y-75970000D03*
D20*
X79450000Y-75970000D03*
X79450000Y-78510000D03*
D17*
X80350000Y-78510000D03*
D20*
X79450000Y-81050000D03*
D17*
X80350000Y-81050000D03*
D20*
X79450000Y-83590000D03*
D17*
X80350000Y-83590000D03*
D20*
X79450000Y-86130000D03*
D17*
X80350000Y-86130000D03*
D20*
X79450000Y-88670000D03*
D16*
X80350000Y-88670000D03*
D20*
X79450000Y-91210000D03*
D17*
X80350000Y-91210000D03*
D20*
X79450000Y-93750000D03*
D17*
X80350000Y-93750000D03*
D20*
X79450000Y-96290000D03*
D17*
X80350000Y-96290000D03*
X80350000Y-98830000D03*
D20*
X79450000Y-98830000D03*
X79450000Y-101370000D03*
D16*
X80350000Y-101370000D03*
D17*
X80350000Y-103910000D03*
D20*
X79450000Y-103910000D03*
D17*
X80350000Y-106450000D03*
D20*
X79450000Y-106450000D03*
X99030000Y-106450000D03*
D17*
X98130000Y-106450000D03*
X98130000Y-103910000D03*
D20*
X99030000Y-103910000D03*
D16*
X98130000Y-101370000D03*
D20*
X99030000Y-101370000D03*
X99030000Y-98830000D03*
D17*
X98130000Y-98830000D03*
X98130000Y-96290000D03*
D20*
X99030000Y-96290000D03*
D17*
X98130000Y-93750000D03*
D20*
X99030000Y-93750000D03*
X99030000Y-91210000D03*
D17*
X98130000Y-91210000D03*
D20*
X99030000Y-88670000D03*
D16*
X98130000Y-88670000D03*
D20*
X99030000Y-86130000D03*
D17*
X98130000Y-86130000D03*
X98130000Y-83590000D03*
D20*
X99030000Y-83590000D03*
D17*
X98130000Y-81050000D03*
D20*
X99030000Y-81050000D03*
X99030000Y-78510000D03*
D17*
X98130000Y-78510000D03*
D16*
X98130000Y-75970000D03*
D20*
X99030000Y-75970000D03*
X99030000Y-73430000D03*
D17*
X98130000Y-73430000D03*
D20*
X99030000Y-70890000D03*
D17*
X98130000Y-70890000D03*
D20*
X99030000Y-68350000D03*
D17*
X98130000Y-68350000D03*
D20*
X99030000Y-65810000D03*
D17*
X98130000Y-65810000D03*
D20*
X99030000Y-63270000D03*
D16*
X98130000Y-63270000D03*
D17*
X98130000Y-60730000D03*
D20*
X99030000Y-60730000D03*
D17*
X98130000Y-58190000D03*
D20*
X99030000Y-58190000D03*
D21*
X86700000Y-107120000D03*
D17*
X86700000Y-106220000D03*
D16*
X89240000Y-106220000D03*
D21*
X89240000Y-107120000D03*
X91780000Y-107120000D03*
D17*
X91780000Y-106220000D03*
D10*
X69610000Y-53350000D03*
D22*
X73440000Y-124940000D03*
X68450000Y-58560000D03*
X93680000Y-55100000D03*
X68440000Y-78270000D03*
X93660000Y-68450000D03*
X66140000Y-88310000D03*
X68910000Y-92670000D03*
X66230000Y-86020000D03*
X65950000Y-107920000D03*
X72480000Y-80340000D03*
X41290000Y-88310000D03*
X58310000Y-54810000D03*
X71690000Y-112510000D03*
X41270000Y-75210000D03*
X29980000Y-74780000D03*
X62730000Y-59240000D03*
X89250000Y-101370000D03*
X61120000Y-104660000D03*
X29790000Y-70340000D03*
X64840000Y-80780000D03*
X59210000Y-122670000D03*
X62730000Y-69330000D03*
X58320000Y-58520000D03*
X72320000Y-53590000D03*
X72420000Y-76540000D03*
X31210000Y-72590000D03*
X58980000Y-77030000D03*
X58650000Y-92640000D03*
X37060000Y-80420000D03*
X37000000Y-93490000D03*
X35830000Y-82830000D03*
X35820000Y-94670000D03*
X35850000Y-116310000D03*
X35830000Y-113200000D03*
X37390000Y-110830000D03*
X37420000Y-115090000D03*
X38640000Y-108260000D03*
X38630000Y-113730000D03*
X82760000Y-114860000D03*
X82680000Y-86130000D03*
X83660000Y-116300000D03*
X83640000Y-91230000D03*
X84670000Y-117570000D03*
X84810000Y-93740000D03*
X40080000Y-105580000D03*
X40050000Y-112500000D03*
X38960000Y-57340000D03*
X38940000Y-93610000D03*
X39850000Y-92890000D03*
X39830000Y-56160000D03*
X98130000Y-115600000D03*
X96690000Y-115609999D03*
X96180000Y-103910000D03*
X94930000Y-98820000D03*
X95240000Y-115546666D03*
X93790000Y-115483333D03*
X93790000Y-96310000D03*
X81820000Y-113790000D03*
X83430000Y-81070000D03*
X37910000Y-66250000D03*
X38040000Y-59810000D03*
X40840000Y-61060000D03*
X40840000Y-68790000D03*
X42200000Y-62320000D03*
X42150000Y-71360000D03*
X47320000Y-64860000D03*
X47360000Y-78920000D03*
X49250000Y-81520000D03*
X49160000Y-67400000D03*
X45490000Y-63580000D03*
X45520000Y-76430000D03*
X44120000Y-66090000D03*
X44150000Y-73890000D03*
X56170000Y-68670000D03*
X56110000Y-58660000D03*
X63910000Y-59810000D03*
X63920000Y-77690000D03*
X53150000Y-80800000D03*
X52850000Y-54970000D03*
X54350000Y-53640000D03*
X54670000Y-79540000D03*
X55780000Y-78290000D03*
X38190000Y-86250000D03*
X38190000Y-98610000D03*
X55810000Y-86330000D03*
X62000000Y-71590000D03*
X57650000Y-91590000D03*
X57940000Y-82080000D03*
D23*
X70685000Y-106015000D02*
X67850000Y-103180000D01*
X70385000Y-91370000D02*
X70400000Y-91385000D01*
X68450000Y-58560000D02*
X68450000Y-57530000D01*
X67850000Y-103180000D02*
X67850000Y-91400000D01*
X70820000Y-108015000D02*
X70685000Y-107880000D01*
X60950000Y-111235000D02*
X70250000Y-111235000D01*
X73415000Y-55100000D02*
X69990000Y-58525000D01*
X65730000Y-54810000D02*
X62595000Y-54810000D01*
X70775000Y-88340000D02*
X68440000Y-86005000D01*
X93680000Y-55100000D02*
X73415000Y-55100000D01*
X70840000Y-88405000D02*
X70775000Y-88340000D01*
X70685000Y-107880000D02*
X70685000Y-106015000D01*
X68440000Y-86005000D02*
X68440000Y-78270000D01*
X67880000Y-91370000D02*
X70385000Y-91370000D01*
X70840000Y-90945000D02*
X70840000Y-88405000D01*
X70820000Y-110660000D02*
X70820000Y-108015000D01*
X69955000Y-58560000D02*
X69990000Y-58525000D01*
X68450000Y-57530000D02*
X65730000Y-54810000D01*
X67880000Y-91370000D02*
X67865000Y-91385000D01*
X70250000Y-111230000D02*
X70820000Y-110660000D01*
X93660000Y-68450000D02*
X93760000Y-68350000D01*
X68450000Y-58560000D02*
X69955000Y-58560000D01*
X67865000Y-91385000D02*
X61100000Y-91385000D01*
X67850000Y-91400000D02*
X67880000Y-91370000D01*
X70250000Y-111235000D02*
X70250000Y-111230000D01*
X93760000Y-68350000D02*
X98130000Y-68350000D01*
X70400000Y-91385000D02*
X70840000Y-90945000D01*
X58310000Y-54810000D02*
X59645000Y-54810000D01*
X68925000Y-92655000D02*
X68910000Y-92670000D01*
X66140000Y-88310000D02*
X41290000Y-88310000D01*
X89250000Y-101370000D02*
X98130000Y-101370000D01*
D24*
X30020000Y-70110000D02*
X29790000Y-70340000D01*
D23*
X66215000Y-78260000D02*
X66215000Y-79530000D01*
X62730000Y-59240000D02*
X62015000Y-58525000D01*
X62105000Y-69955000D02*
X62730000Y-69330000D01*
X70400000Y-92655000D02*
X68925000Y-92655000D01*
X60950000Y-122665000D02*
X59215000Y-122665000D01*
D24*
X60535000Y-70110000D02*
X30020000Y-70110000D01*
D23*
X65990000Y-107880000D02*
X65950000Y-107920000D01*
X62015000Y-58525000D02*
X60690000Y-58525000D01*
X70250000Y-112505000D02*
X71685000Y-112505000D01*
X66215000Y-84610000D02*
X66215000Y-86005000D01*
X67825000Y-88340000D02*
X66170000Y-88340000D01*
X72475000Y-80335000D02*
X72480000Y-80340000D01*
X60690000Y-69955000D02*
X62105000Y-69955000D01*
X80350000Y-101370000D02*
X89250000Y-101370000D01*
D25*
X71685000Y-112505000D02*
X71690000Y-112510000D01*
D23*
X58325000Y-58525000D02*
X58320000Y-58520000D01*
D24*
X30380000Y-75180000D02*
X29980000Y-74780000D01*
D25*
X66170000Y-88340000D02*
X66140000Y-88310000D01*
D23*
X66215000Y-86005000D02*
X66230000Y-86020000D01*
X66215000Y-80800000D02*
X64860000Y-80800000D01*
X67735000Y-107880000D02*
X65990000Y-107880000D01*
X61100000Y-104640000D02*
X61120000Y-104660000D01*
X66215000Y-79530000D02*
X66215000Y-80800000D01*
D24*
X41282701Y-75180000D02*
X30380000Y-75180000D01*
D23*
X70520000Y-80335000D02*
X72475000Y-80335000D01*
X66215000Y-84610000D02*
X61265000Y-84610000D01*
X60690000Y-58525000D02*
X58325000Y-58525000D01*
X64860000Y-80800000D02*
X64840000Y-80780000D01*
D25*
X59215000Y-122665000D02*
X59210000Y-122670000D01*
D23*
X61100000Y-102815000D02*
X61100000Y-104640000D01*
D24*
X72435000Y-53475000D02*
X93915000Y-53475000D01*
X61860000Y-72630000D02*
X61830000Y-72600000D01*
X66610000Y-77385000D02*
X66215000Y-76990000D01*
X61830000Y-72600000D02*
X31060000Y-72600000D01*
X66215000Y-76990000D02*
X61845000Y-72620000D01*
X72320000Y-53590000D02*
X72435000Y-53475000D01*
X71575000Y-77385000D02*
X72420000Y-76540000D01*
X93915000Y-53475000D02*
X93980000Y-53540000D01*
X70520000Y-77385000D02*
X71575000Y-77385000D01*
X70520000Y-77385000D02*
X66610000Y-77385000D01*
D23*
X98130000Y-60730000D02*
X96480000Y-59080000D01*
X96480000Y-59080000D02*
X96480000Y-53540000D01*
D25*
X58650000Y-92640000D02*
X61085000Y-92640000D01*
X61265000Y-76990000D02*
X59020000Y-76990000D01*
X61265000Y-83340000D02*
X62190000Y-83340000D01*
X62790000Y-82740000D02*
X62790000Y-77470000D01*
X59020000Y-76990000D02*
X58980000Y-77030000D01*
X61085000Y-92640000D02*
X61100000Y-92655000D01*
X62790000Y-77470000D02*
X62240000Y-76920000D01*
X62190000Y-83340000D02*
X62790000Y-82740000D01*
X31830000Y-78180000D02*
X31830000Y-79197251D01*
X28150000Y-74500000D02*
X31830000Y-78180000D01*
X37730000Y-93490000D02*
X40705000Y-96465000D01*
X37000000Y-93490000D02*
X37730000Y-93490000D01*
X31830000Y-79197251D02*
X33052749Y-80420000D01*
X33052749Y-80420000D02*
X37060000Y-80420000D01*
X28150000Y-73900000D02*
X28150000Y-74500000D01*
X40705000Y-96465000D02*
X61100000Y-96465000D01*
X32790000Y-82840000D02*
X35820000Y-82840000D01*
X40455000Y-97735000D02*
X61100000Y-97735000D01*
X35820000Y-82840000D02*
X35830000Y-82830000D01*
X28150000Y-76440000D02*
X31930000Y-80220000D01*
X37390000Y-94670000D02*
X40455000Y-97735000D01*
X31930000Y-81980000D02*
X32790000Y-82840000D01*
X35820000Y-94670000D02*
X37390000Y-94670000D01*
X31930000Y-80220000D02*
X31930000Y-81980000D01*
X32180000Y-95510000D02*
X36970000Y-95510000D01*
X28150000Y-78980000D02*
X31710000Y-82540000D01*
X40465000Y-99005000D02*
X61100000Y-99005000D01*
X31710000Y-95040000D02*
X32180000Y-95510000D01*
X31710000Y-82540000D02*
X31710000Y-95040000D01*
X36970000Y-95510000D02*
X40465000Y-99005000D01*
X30920000Y-84290000D02*
X30920000Y-97950000D01*
X28150000Y-81520000D02*
X30920000Y-84290000D01*
X31000000Y-98030000D02*
X35770000Y-98030000D01*
X35770000Y-98030000D02*
X38015000Y-100275000D01*
X38015000Y-100275000D02*
X61100000Y-100275000D01*
X30920000Y-97950000D02*
X31000000Y-98030000D01*
X35550000Y-113210000D02*
X35820000Y-113210000D01*
X29590000Y-113210000D02*
X35550000Y-113210000D01*
X28150000Y-112000000D02*
X29590000Y-113210000D01*
X35855000Y-116315000D02*
X60950000Y-116315000D01*
X35820000Y-113210000D02*
X35830000Y-113200000D01*
X35850000Y-116310000D02*
X35855000Y-116315000D01*
X29520000Y-110830000D02*
X37390000Y-110830000D01*
X28150000Y-109460000D02*
X29520000Y-110830000D01*
X60905000Y-115090000D02*
X60950000Y-115045000D01*
X37420000Y-115090000D02*
X60905000Y-115090000D01*
X28150000Y-106920000D02*
X29490000Y-108260000D01*
X38630000Y-113730000D02*
X60905000Y-113730000D01*
X29490000Y-108260000D02*
X38640000Y-108260000D01*
X60905000Y-113730000D02*
X60950000Y-113775000D01*
X82575000Y-115045000D02*
X82760000Y-114860000D01*
X70250000Y-115045000D02*
X82575000Y-115045000D01*
X82680000Y-86130000D02*
X98130000Y-86130000D01*
X70250000Y-116315000D02*
X83645000Y-116315000D01*
X83640000Y-91230000D02*
X83660000Y-91210000D01*
X83645000Y-116315000D02*
X83660000Y-116300000D01*
X83660000Y-91210000D02*
X98130000Y-91210000D01*
X70250000Y-117585000D02*
X84655000Y-117585000D01*
X98120000Y-93740000D02*
X98130000Y-93750000D01*
X84810000Y-93740000D02*
X98120000Y-93740000D01*
X84655000Y-117585000D02*
X84670000Y-117570000D01*
X74530000Y-103910000D02*
X80350000Y-103910000D01*
X74460000Y-103980000D02*
X74530000Y-103910000D01*
X72025000Y-101545000D02*
X74460000Y-103980000D01*
X70400000Y-101545000D02*
X72025000Y-101545000D01*
X73165000Y-100275000D02*
X74610000Y-98830000D01*
X74610000Y-98830000D02*
X80350000Y-98830000D01*
X70400000Y-100275000D02*
X73165000Y-100275000D01*
X71815000Y-99005000D02*
X74530000Y-96290000D01*
X70400000Y-99005000D02*
X71815000Y-99005000D01*
X74530000Y-96290000D02*
X80350000Y-96290000D01*
X70400000Y-97735000D02*
X70826751Y-97735000D01*
X70826751Y-97735000D02*
X74550000Y-94011751D01*
X74550000Y-94010000D02*
X74810000Y-93750000D01*
X74550000Y-94011751D02*
X74550000Y-94010000D01*
X74810000Y-93750000D02*
X80350000Y-93750000D01*
X75630000Y-83590000D02*
X80350000Y-83590000D01*
X75630000Y-83590000D02*
X75630000Y-83520000D01*
X73100000Y-86120000D02*
X75630000Y-83590000D01*
X70826751Y-93925000D02*
X73100000Y-91651751D01*
X70400000Y-93925000D02*
X70826751Y-93925000D01*
X75630000Y-83520000D02*
X74630000Y-82520000D01*
X73100000Y-91651751D02*
X73100000Y-86120000D01*
X40080000Y-105580000D02*
X29770000Y-105610000D01*
X29770000Y-105610000D02*
X28150000Y-104380000D01*
X40050000Y-112500000D02*
X40055000Y-112505000D01*
X40055000Y-112505000D02*
X60950000Y-112505000D01*
X60445000Y-117080000D02*
X60950000Y-117585000D01*
X33150000Y-117080000D02*
X60445000Y-117080000D01*
X32460000Y-118350000D02*
X60445000Y-118350000D01*
X31190000Y-119620000D02*
X32460000Y-118350000D01*
X28150000Y-119620000D02*
X31190000Y-119620000D01*
X60445000Y-118350000D02*
X60950000Y-118855000D01*
X60445000Y-119620000D02*
X60950000Y-120125000D01*
X33150000Y-119620000D02*
X60445000Y-119620000D01*
X29350000Y-120960000D02*
X60515000Y-120960000D01*
X60515000Y-120960000D02*
X60950000Y-121395000D01*
X28150000Y-122160000D02*
X29350000Y-120960000D01*
X40525000Y-95195000D02*
X61100000Y-95195000D01*
X38940000Y-93610000D02*
X40525000Y-95195000D01*
X28150000Y-56120000D02*
X29370000Y-57340000D01*
X29370000Y-57340000D02*
X38960000Y-57340000D01*
X39850000Y-92890000D02*
X40885000Y-93925000D01*
X33150000Y-56120000D02*
X39790000Y-56120000D01*
X40885000Y-93925000D02*
X61100000Y-93925000D01*
X39790000Y-56120000D02*
X39830000Y-56160000D01*
X33150000Y-99300000D02*
X34930000Y-99300000D01*
X34930000Y-99300000D02*
X37175000Y-101545000D01*
X37175000Y-101545000D02*
X61100000Y-101545000D01*
X74035000Y-106450000D02*
X80350000Y-106450000D01*
X79920000Y-110260000D02*
X79920000Y-106880000D01*
X70400000Y-102815000D02*
X74035000Y-106450000D01*
X79920000Y-106880000D02*
X80350000Y-106450000D01*
X73760000Y-92261751D02*
X73760000Y-87350000D01*
X73760000Y-87350000D02*
X74980000Y-86130000D01*
X70826751Y-95195000D02*
X73760000Y-92261751D01*
X70400000Y-95195000D02*
X70826751Y-95195000D01*
X74980000Y-86130000D02*
X80350000Y-86130000D01*
X70400000Y-96465000D02*
X70826751Y-96465000D01*
X74550000Y-91200000D02*
X80340000Y-91200000D01*
X74550000Y-92741751D02*
X74550000Y-91200000D01*
X70826751Y-96465000D02*
X74550000Y-92741751D01*
X80340000Y-91200000D02*
X80350000Y-91210000D01*
X90895000Y-122665000D02*
X98140000Y-115420000D01*
X70250000Y-122665000D02*
X90895000Y-122665000D01*
X96180000Y-103910000D02*
X98130000Y-103910000D01*
X90825000Y-121395000D02*
X90835000Y-121405000D01*
X70250000Y-121395000D02*
X90825000Y-121395000D01*
X90835000Y-121405000D02*
X96620000Y-115620000D01*
X90395000Y-120115000D02*
X90645000Y-120115000D01*
X90385000Y-120125000D02*
X90395000Y-120115000D01*
X94940000Y-98830000D02*
X98130000Y-98830000D01*
X90645000Y-120115000D02*
X95210000Y-115550000D01*
X94930000Y-98820000D02*
X94940000Y-98830000D01*
X70250000Y-120125000D02*
X90385000Y-120125000D01*
X70250000Y-118855000D02*
X90485000Y-118855000D01*
X98110000Y-96310000D02*
X98130000Y-96290000D01*
X93790000Y-96310000D02*
X98110000Y-96310000D01*
X90485000Y-118855000D02*
X93790000Y-115550000D01*
X83430000Y-81070000D02*
X83450000Y-81050000D01*
X83450000Y-81050000D02*
X98130000Y-81050000D01*
X81805000Y-113775000D02*
X81820000Y-113790000D01*
X70250000Y-113775000D02*
X81805000Y-113775000D01*
X38040000Y-59810000D02*
X60675000Y-59810000D01*
X37880000Y-66280000D02*
X37910000Y-66250000D01*
X60675000Y-59810000D02*
X60690000Y-59795000D01*
X33150000Y-66280000D02*
X37880000Y-66280000D01*
X40810000Y-68820000D02*
X40840000Y-68790000D01*
X33150000Y-68820000D02*
X40810000Y-68820000D01*
X40840000Y-61060000D02*
X60685000Y-61060000D01*
X60685000Y-61060000D02*
X60690000Y-61065000D01*
X33150000Y-71360000D02*
X42150000Y-71360000D01*
X42200000Y-62320000D02*
X60675000Y-62320000D01*
X60675000Y-62320000D02*
X60690000Y-62335000D01*
X47320000Y-64860000D02*
X60675000Y-64860000D01*
X47300000Y-78980000D02*
X47360000Y-78920000D01*
X33150000Y-78980000D02*
X47300000Y-78980000D01*
X60675000Y-64860000D02*
X60690000Y-64875000D01*
X49160000Y-67400000D02*
X60675000Y-67400000D01*
X60675000Y-67400000D02*
X60690000Y-67415000D01*
X33150000Y-81520000D02*
X49250000Y-81520000D01*
X33150000Y-76440000D02*
X45510000Y-76440000D01*
X45510000Y-76440000D02*
X45520000Y-76430000D01*
X45515000Y-63605000D02*
X60690000Y-63605000D01*
X45490000Y-63580000D02*
X45515000Y-63605000D01*
X33150000Y-73900000D02*
X44140000Y-73900000D01*
X60635000Y-66090000D02*
X60690000Y-66145000D01*
X44140000Y-73900000D02*
X44150000Y-73890000D01*
X44120000Y-66090000D02*
X60635000Y-66090000D01*
X56170000Y-68670000D02*
X60675000Y-68670000D01*
X33150000Y-58660000D02*
X56110000Y-58660000D01*
X60675000Y-68670000D02*
X60690000Y-68685000D01*
X69990000Y-72300000D02*
X78740000Y-81050000D01*
X78740000Y-81050000D02*
X80350000Y-81050000D01*
X69990000Y-69955000D02*
X69990000Y-72300000D01*
X69990000Y-67415000D02*
X70416751Y-67415000D01*
X73980000Y-73430000D02*
X80350000Y-73430000D01*
X72580000Y-69578249D02*
X72580000Y-72030000D01*
X72580000Y-72030000D02*
X73980000Y-73430000D01*
X70416751Y-67415000D02*
X72580000Y-69578249D01*
X70416751Y-64875000D02*
X73891751Y-68350000D01*
X73891751Y-68350000D02*
X80350000Y-68350000D01*
X69990000Y-64875000D02*
X70416751Y-64875000D01*
X69990000Y-68685000D02*
X70416751Y-68685000D01*
X70416751Y-68685000D02*
X71770000Y-70038249D01*
X71770000Y-70038249D02*
X71770000Y-72910000D01*
X71770000Y-72910000D02*
X77370000Y-78510000D01*
X77370000Y-78510000D02*
X80350000Y-78510000D01*
X69990000Y-66145000D02*
X70416751Y-66145000D01*
X73450000Y-69860000D02*
X74480000Y-70890000D01*
X73450000Y-69178249D02*
X73450000Y-69860000D01*
X74480000Y-70890000D02*
X80350000Y-70890000D01*
X70416751Y-66145000D02*
X73450000Y-69178249D01*
X73130000Y-65810000D02*
X80350000Y-65810000D01*
X70925000Y-63605000D02*
X73130000Y-65810000D01*
X69990000Y-63605000D02*
X70925000Y-63605000D01*
X71705000Y-62335000D02*
X73310000Y-60730000D01*
X73310000Y-60730000D02*
X80350000Y-60730000D01*
X69990000Y-62335000D02*
X71705000Y-62335000D01*
X71255000Y-61065000D02*
X74130000Y-58190000D01*
X69990000Y-61065000D02*
X71255000Y-61065000D01*
X74130000Y-58190000D02*
X80350000Y-58190000D01*
X63930000Y-82940000D02*
X63920000Y-82930000D01*
X64330000Y-83340000D02*
X63930000Y-82940000D01*
X63920000Y-82930000D02*
X63920000Y-77690000D01*
X69975000Y-59810000D02*
X69990000Y-59795000D01*
X66215000Y-83340000D02*
X64330000Y-83340000D01*
X63910000Y-59810000D02*
X69975000Y-59810000D01*
X56360000Y-54970000D02*
X58030000Y-53300000D01*
X28150000Y-53580000D02*
X29490000Y-54920000D01*
X52800000Y-54920000D02*
X52850000Y-54970000D01*
X29490000Y-54920000D02*
X52800000Y-54920000D01*
X52850000Y-54970000D02*
X56360000Y-54970000D01*
X67030000Y-53300000D02*
X69640000Y-55910000D01*
X53150000Y-80800000D02*
X61265000Y-80800000D01*
X58030000Y-53300000D02*
X67030000Y-53300000D01*
X61255000Y-79540000D02*
X61265000Y-79530000D01*
X54290000Y-53580000D02*
X54350000Y-53640000D01*
X33150000Y-53580000D02*
X54290000Y-53580000D01*
X68950000Y-52690000D02*
X69610000Y-53350000D01*
X55300000Y-52690000D02*
X68950000Y-52690000D01*
X54670000Y-79540000D02*
X61255000Y-79540000D01*
X54350000Y-53640000D02*
X55300000Y-52690000D01*
X58310000Y-75760000D02*
X60570000Y-75760000D01*
X36340000Y-96760000D02*
X38190000Y-98610000D01*
X60570000Y-75760000D02*
X61490000Y-74840000D01*
X55750000Y-86270000D02*
X55810000Y-86330000D01*
X55780000Y-78290000D02*
X61235000Y-78290000D01*
X33150000Y-96760000D02*
X36340000Y-96760000D01*
X61235000Y-78290000D02*
X61265000Y-78260000D01*
X55780000Y-78290000D02*
X58310000Y-75760000D01*
X38510000Y-86270000D02*
X55750000Y-86270000D01*
X55810000Y-86330000D02*
X55740000Y-86330000D01*
X63570000Y-71590000D02*
X66640000Y-74660000D01*
X61255000Y-82080000D02*
X61265000Y-82070000D01*
X57560000Y-91680000D02*
X57650000Y-91590000D01*
X57940000Y-82080000D02*
X61255000Y-82080000D01*
X62000000Y-71590000D02*
X63570000Y-71590000D01*
X33150000Y-91680000D02*
X57560000Y-91680000D01*
G04 #@! TA.AperFunction,Conductor*
G36*
X73869898Y-123458216D02*
G01*
X73870029Y-123458216D01*
X91420000Y-123470000D01*
X91420000Y-125544219D01*
X91390506Y-125552954D01*
X91385304Y-125556314D01*
X91349526Y-125561500D01*
X70349257Y-125561500D01*
X70281136Y-125541498D01*
X70234643Y-125487842D01*
X70223305Y-125432011D01*
X70259149Y-124137947D01*
X70274611Y-123579737D01*
X70275155Y-123560122D01*
X70275942Y-123557873D01*
X70317326Y-123500185D01*
X70383329Y-123474029D01*
X70394867Y-123473500D01*
X71191502Y-123473500D01*
X71193950Y-123473307D01*
X71193958Y-123473307D01*
X71222421Y-123471067D01*
X71222426Y-123471066D01*
X71228831Y-123470562D01*
X71235003Y-123468769D01*
X71235008Y-123468768D01*
X71260057Y-123461490D01*
X71295294Y-123456487D01*
X73869898Y-123458216D01*
G37*
G04 #@! TD.AperFunction*
G04 #@! TA.AperFunction,Conductor*
G36*
X91732013Y-123461625D02*
G01*
X91778556Y-123515237D01*
X91789991Y-123567861D01*
X91787427Y-125412510D01*
X91767330Y-125480603D01*
X91713610Y-125527021D01*
X91661721Y-125538335D01*
X81686668Y-125561500D01*
X70349257Y-125561500D01*
X70281136Y-125541498D01*
X70257350Y-125514047D01*
X70259850Y-123625094D01*
X70266925Y-123583634D01*
X70272211Y-123568534D01*
X70290000Y-123651551D01*
X70275492Y-123559159D01*
X70275942Y-123557873D01*
X70317326Y-123500185D01*
X70383329Y-123474029D01*
X70394867Y-123473500D01*
X71191502Y-123473500D01*
X71193950Y-123473307D01*
X71193958Y-123473307D01*
X71222421Y-123471067D01*
X71222426Y-123471066D01*
X71228831Y-123470562D01*
X71235003Y-123468769D01*
X71235008Y-123468768D01*
X71256252Y-123462596D01*
X71260058Y-123461490D01*
X71266080Y-123460635D01*
X73869767Y-123458216D01*
X73869898Y-123458216D01*
X91663875Y-123441686D01*
X91732013Y-123461625D01*
G37*
G04 #@! TD.AperFunction*
M02*
