%TF.GenerationSoftware,KiCad,Pcbnew,6.0.10-86aedd382b~118~ubuntu20.04.1*%
%TF.CreationDate,2023-01-03T17:43:26+00:00*%
%TF.ProjectId,srom,73726f6d-2e6b-4696-9361-645f70636258,rev?*%
%TF.SameCoordinates,Original*%
%TF.FileFunction,Drillmap*%
%TF.FilePolarity,Positive*%
%FSLAX45Y45*%
G04 Gerber Fmt 4.5, Leading zero omitted, Abs format (unit mm)*
G04 Created by KiCad (PCBNEW 6.0.10-86aedd382b~118~ubuntu20.04.1) date 2023-01-03 17:43:26*
%MOMM*%
%LPD*%
G01*
G04 APERTURE LIST*
%ADD10C,0.100000*%
%ADD11C,0.200000*%
%ADD12C,0.040000*%
%ADD13C,0.076200*%
%ADD14C,0.102000*%
G04 APERTURE END LIST*
D10*
X2318000Y-4998000D02*
X10646000Y-4998000D01*
X10646000Y-4998000D02*
X10646000Y-12607000D01*
X10646000Y-12607000D02*
X2318000Y-12607000D01*
X2318000Y-12607000D02*
X2318000Y-4998000D01*
D11*
D12*
X2959000Y-7014000D02*
X2999000Y-7054000D01*
X2999000Y-7014000D02*
X2959000Y-7054000D01*
X2978000Y-7458000D02*
X3018000Y-7498000D01*
X3018000Y-7458000D02*
X2978000Y-7498000D01*
X3101000Y-7239000D02*
X3141000Y-7279000D01*
X3141000Y-7239000D02*
X3101000Y-7279000D01*
X3562000Y-9447000D02*
X3602000Y-9487000D01*
X3602000Y-9447000D02*
X3562000Y-9487000D01*
X3563000Y-8263000D02*
X3603000Y-8303000D01*
X3603000Y-8263000D02*
X3563000Y-8303000D01*
X3563000Y-11300000D02*
X3603000Y-11340000D01*
X3603000Y-11300000D02*
X3563000Y-11340000D01*
X3565000Y-11611000D02*
X3605000Y-11651000D01*
X3605000Y-11611000D02*
X3565000Y-11651000D01*
X3680000Y-9329000D02*
X3720000Y-9369000D01*
X3720000Y-9329000D02*
X3680000Y-9369000D01*
X3686000Y-8022000D02*
X3726000Y-8062000D01*
X3726000Y-8022000D02*
X3686000Y-8062000D01*
X3719000Y-11063000D02*
X3759000Y-11103000D01*
X3759000Y-11063000D02*
X3719000Y-11103000D01*
X3722000Y-11489000D02*
X3762000Y-11529000D01*
X3762000Y-11489000D02*
X3722000Y-11529000D01*
X3771000Y-6605000D02*
X3811000Y-6645000D01*
X3811000Y-6605000D02*
X3771000Y-6645000D01*
X3784000Y-5961000D02*
X3824000Y-6001000D01*
X3824000Y-5961000D02*
X3784000Y-6001000D01*
X3799000Y-8605000D02*
X3839000Y-8645000D01*
X3839000Y-8605000D02*
X3799000Y-8645000D01*
X3799000Y-9841000D02*
X3839000Y-9881000D01*
X3839000Y-9841000D02*
X3799000Y-9881000D01*
X3843000Y-11353000D02*
X3883000Y-11393000D01*
X3883000Y-11353000D02*
X3843000Y-11393000D01*
X3844000Y-10806000D02*
X3884000Y-10846000D01*
X3884000Y-10806000D02*
X3844000Y-10846000D01*
X3874000Y-9341000D02*
X3914000Y-9381000D01*
X3914000Y-9341000D02*
X3874000Y-9381000D01*
X3876000Y-5714000D02*
X3916000Y-5754000D01*
X3916000Y-5714000D02*
X3876000Y-5754000D01*
X3963000Y-5596000D02*
X4003000Y-5636000D01*
X4003000Y-5596000D02*
X3963000Y-5636000D01*
X3965000Y-9269000D02*
X4005000Y-9309000D01*
X4005000Y-9269000D02*
X3965000Y-9309000D01*
X3985000Y-11230000D02*
X4025000Y-11270000D01*
X4025000Y-11230000D02*
X3985000Y-11270000D01*
X3988000Y-10538000D02*
X4028000Y-10578000D01*
X4028000Y-10538000D02*
X3988000Y-10578000D01*
X4064000Y-6086000D02*
X4104000Y-6126000D01*
X4104000Y-6086000D02*
X4064000Y-6126000D01*
X4064000Y-6859000D02*
X4104000Y-6899000D01*
X4104000Y-6859000D02*
X4064000Y-6899000D01*
X4107000Y-7501000D02*
X4147000Y-7541000D01*
X4147000Y-7501000D02*
X4107000Y-7541000D01*
X4109000Y-8811000D02*
X4149000Y-8851000D01*
X4149000Y-8811000D02*
X4109000Y-8851000D01*
X4195000Y-7116000D02*
X4235000Y-7156000D01*
X4235000Y-7116000D02*
X4195000Y-7156000D01*
X4200000Y-6212000D02*
X4240000Y-6252000D01*
X4240000Y-6212000D02*
X4200000Y-6252000D01*
X4392000Y-6589000D02*
X4432000Y-6629000D01*
X4432000Y-6589000D02*
X4392000Y-6629000D01*
X4395000Y-7369000D02*
X4435000Y-7409000D01*
X4435000Y-7369000D02*
X4395000Y-7409000D01*
X4529000Y-6338000D02*
X4569000Y-6378000D01*
X4569000Y-6338000D02*
X4529000Y-6378000D01*
X4532000Y-7623000D02*
X4572000Y-7663000D01*
X4572000Y-7623000D02*
X4532000Y-7663000D01*
X4712000Y-6466000D02*
X4752000Y-6506000D01*
X4752000Y-6466000D02*
X4712000Y-6506000D01*
X4716000Y-7872000D02*
X4756000Y-7912000D01*
X4756000Y-7872000D02*
X4716000Y-7912000D01*
X4896000Y-6720000D02*
X4936000Y-6760000D01*
X4936000Y-6720000D02*
X4896000Y-6760000D01*
X4905000Y-8132000D02*
X4945000Y-8172000D01*
X4945000Y-8132000D02*
X4905000Y-8172000D01*
X5265000Y-5477000D02*
X5305000Y-5517000D01*
X5305000Y-5477000D02*
X5265000Y-5517000D01*
X5295000Y-8060000D02*
X5335000Y-8100000D01*
X5335000Y-8060000D02*
X5295000Y-8100000D01*
X5415000Y-5344000D02*
X5455000Y-5384000D01*
X5455000Y-5344000D02*
X5415000Y-5384000D01*
X5447000Y-7934000D02*
X5487000Y-7974000D01*
X5487000Y-7934000D02*
X5447000Y-7974000D01*
X5558000Y-7809000D02*
X5598000Y-7849000D01*
X5598000Y-7809000D02*
X5558000Y-7849000D01*
X5561000Y-8613000D02*
X5601000Y-8653000D01*
X5601000Y-8613000D02*
X5561000Y-8653000D01*
X5591000Y-5846000D02*
X5631000Y-5886000D01*
X5631000Y-5846000D02*
X5591000Y-5886000D01*
X5597000Y-6847000D02*
X5637000Y-6887000D01*
X5637000Y-6847000D02*
X5597000Y-6887000D01*
X5745000Y-9139000D02*
X5785000Y-9179000D01*
X5785000Y-9139000D02*
X5745000Y-9179000D01*
X5774000Y-8188000D02*
X5814000Y-8228000D01*
X5814000Y-8188000D02*
X5774000Y-8228000D01*
X5811000Y-5461000D02*
X5851000Y-5501000D01*
X5851000Y-5461000D02*
X5811000Y-5501000D01*
X5812000Y-5832000D02*
X5852000Y-5872000D01*
X5852000Y-5832000D02*
X5812000Y-5872000D01*
X5845000Y-9244000D02*
X5885000Y-9284000D01*
X5885000Y-9244000D02*
X5845000Y-9284000D01*
X5878000Y-7683000D02*
X5918000Y-7723000D01*
X5918000Y-7683000D02*
X5878000Y-7723000D01*
X5901000Y-12247000D02*
X5941000Y-12287000D01*
X5941000Y-12247000D02*
X5901000Y-12287000D01*
X6092000Y-10446000D02*
X6132000Y-10486000D01*
X6132000Y-10446000D02*
X6092000Y-10486000D01*
X6180000Y-7139000D02*
X6220000Y-7179000D01*
X6220000Y-7139000D02*
X6180000Y-7179000D01*
X6253000Y-5904000D02*
X6293000Y-5944000D01*
X6293000Y-5904000D02*
X6253000Y-5944000D01*
X6253000Y-6913000D02*
X6293000Y-6953000D01*
X6293000Y-6913000D02*
X6253000Y-6953000D01*
X6371000Y-5961000D02*
X6411000Y-6001000D01*
X6411000Y-5961000D02*
X6371000Y-6001000D01*
X6372000Y-7749000D02*
X6412000Y-7789000D01*
X6412000Y-7749000D02*
X6372000Y-7789000D01*
X6464000Y-8058000D02*
X6504000Y-8098000D01*
X6504000Y-8058000D02*
X6464000Y-8098000D01*
X6575000Y-10772000D02*
X6615000Y-10812000D01*
X6615000Y-10772000D02*
X6575000Y-10812000D01*
X6594000Y-8811000D02*
X6634000Y-8851000D01*
X6634000Y-8811000D02*
X6594000Y-8851000D01*
X6603000Y-8582000D02*
X6643000Y-8622000D01*
X6643000Y-8582000D02*
X6603000Y-8622000D01*
X6824000Y-7807000D02*
X6864000Y-7847000D01*
X6864000Y-7807000D02*
X6824000Y-7847000D01*
X6825000Y-5836000D02*
X6865000Y-5876000D01*
X6865000Y-5836000D02*
X6825000Y-5876000D01*
X6871000Y-9247000D02*
X6911000Y-9287000D01*
X6911000Y-9247000D02*
X6871000Y-9287000D01*
X7149000Y-11231000D02*
X7189000Y-11271000D01*
X7189000Y-11231000D02*
X7149000Y-11271000D01*
X7212000Y-5339000D02*
X7252000Y-5379000D01*
X7252000Y-5339000D02*
X7212000Y-5379000D01*
X7222000Y-7634000D02*
X7262000Y-7674000D01*
X7262000Y-7634000D02*
X7222000Y-7674000D01*
X7228000Y-8014000D02*
X7268000Y-8054000D01*
X7268000Y-8014000D02*
X7228000Y-8054000D01*
X7324000Y-12474000D02*
X7364000Y-12514000D01*
X7364000Y-12474000D02*
X7324000Y-12514000D01*
X8162000Y-11359000D02*
X8202000Y-11399000D01*
X8202000Y-11359000D02*
X8162000Y-11399000D01*
X8248000Y-8593000D02*
X8288000Y-8633000D01*
X8288000Y-8593000D02*
X8248000Y-8633000D01*
X8256000Y-11466000D02*
X8296000Y-11506000D01*
X8296000Y-11466000D02*
X8256000Y-11506000D01*
X8323000Y-8087000D02*
X8363000Y-8127000D01*
X8363000Y-8087000D02*
X8323000Y-8127000D01*
X8344000Y-9103000D02*
X8384000Y-9143000D01*
X8384000Y-9103000D02*
X8344000Y-9143000D01*
X8346000Y-11610000D02*
X8386000Y-11650000D01*
X8386000Y-11610000D02*
X8346000Y-11650000D01*
X8447000Y-11737000D02*
X8487000Y-11777000D01*
X8487000Y-11737000D02*
X8447000Y-11777000D01*
X8461000Y-9354000D02*
X8501000Y-9394000D01*
X8501000Y-9354000D02*
X8461000Y-9394000D01*
X8905000Y-10117000D02*
X8945000Y-10157000D01*
X8945000Y-10117000D02*
X8905000Y-10157000D01*
X9346000Y-6825000D02*
X9386000Y-6865000D01*
X9386000Y-6825000D02*
X9346000Y-6865000D01*
X9348000Y-5490000D02*
X9388000Y-5530000D01*
X9388000Y-5490000D02*
X9348000Y-5530000D01*
X9359000Y-9611000D02*
X9399000Y-9651000D01*
X9399000Y-9611000D02*
X9359000Y-9651000D01*
X9359000Y-11528333D02*
X9399000Y-11568333D01*
X9399000Y-11528333D02*
X9359000Y-11568333D01*
X9473000Y-9862000D02*
X9513000Y-9902000D01*
X9513000Y-9862000D02*
X9473000Y-9902000D01*
X9504000Y-11534667D02*
X9544000Y-11574667D01*
X9544000Y-11534667D02*
X9504000Y-11574667D01*
X9598000Y-10371000D02*
X9638000Y-10411000D01*
X9638000Y-10371000D02*
X9598000Y-10411000D01*
X9649000Y-11541000D02*
X9689000Y-11581000D01*
X9689000Y-11541000D02*
X9649000Y-11581000D01*
X9793000Y-11540000D02*
X9833000Y-11580000D01*
X9833000Y-11540000D02*
X9793000Y-11580000D01*
D13*
X2853100Y-5358000D02*
G75*
G03*
X2853100Y-5358000I-38100J0D01*
G01*
X2853100Y-5612000D02*
G75*
G03*
X2853100Y-5612000I-38100J0D01*
G01*
X2853100Y-5866000D02*
G75*
G03*
X2853100Y-5866000I-38100J0D01*
G01*
X2853100Y-6120000D02*
G75*
G03*
X2853100Y-6120000I-38100J0D01*
G01*
X2853100Y-6374000D02*
G75*
G03*
X2853100Y-6374000I-38100J0D01*
G01*
X2853100Y-6628000D02*
G75*
G03*
X2853100Y-6628000I-38100J0D01*
G01*
X2853100Y-6882000D02*
G75*
G03*
X2853100Y-6882000I-38100J0D01*
G01*
X2853100Y-7136000D02*
G75*
G03*
X2853100Y-7136000I-38100J0D01*
G01*
X2853100Y-7390000D02*
G75*
G03*
X2853100Y-7390000I-38100J0D01*
G01*
X2853100Y-7644000D02*
G75*
G03*
X2853100Y-7644000I-38100J0D01*
G01*
X2853100Y-7898000D02*
G75*
G03*
X2853100Y-7898000I-38100J0D01*
G01*
X2853100Y-8152000D02*
G75*
G03*
X2853100Y-8152000I-38100J0D01*
G01*
X2853100Y-8406000D02*
G75*
G03*
X2853100Y-8406000I-38100J0D01*
G01*
X2853100Y-8660000D02*
G75*
G03*
X2853100Y-8660000I-38100J0D01*
G01*
X2853100Y-8914000D02*
G75*
G03*
X2853100Y-8914000I-38100J0D01*
G01*
X2853100Y-9168000D02*
G75*
G03*
X2853100Y-9168000I-38100J0D01*
G01*
X2853100Y-9422000D02*
G75*
G03*
X2853100Y-9422000I-38100J0D01*
G01*
X2853100Y-9676000D02*
G75*
G03*
X2853100Y-9676000I-38100J0D01*
G01*
X2853100Y-9930000D02*
G75*
G03*
X2853100Y-9930000I-38100J0D01*
G01*
X2853100Y-10184000D02*
G75*
G03*
X2853100Y-10184000I-38100J0D01*
G01*
X2853100Y-10438000D02*
G75*
G03*
X2853100Y-10438000I-38100J0D01*
G01*
X2853100Y-10692000D02*
G75*
G03*
X2853100Y-10692000I-38100J0D01*
G01*
X2853100Y-10946000D02*
G75*
G03*
X2853100Y-10946000I-38100J0D01*
G01*
X2853100Y-11200000D02*
G75*
G03*
X2853100Y-11200000I-38100J0D01*
G01*
X2853100Y-11454000D02*
G75*
G03*
X2853100Y-11454000I-38100J0D01*
G01*
X2853100Y-11708000D02*
G75*
G03*
X2853100Y-11708000I-38100J0D01*
G01*
X2853100Y-11962000D02*
G75*
G03*
X2853100Y-11962000I-38100J0D01*
G01*
X2853100Y-12216000D02*
G75*
G03*
X2853100Y-12216000I-38100J0D01*
G01*
X3353100Y-5358000D02*
G75*
G03*
X3353100Y-5358000I-38100J0D01*
G01*
X3353100Y-5612000D02*
G75*
G03*
X3353100Y-5612000I-38100J0D01*
G01*
X3353100Y-5866000D02*
G75*
G03*
X3353100Y-5866000I-38100J0D01*
G01*
X3353100Y-6120000D02*
G75*
G03*
X3353100Y-6120000I-38100J0D01*
G01*
X3353100Y-6374000D02*
G75*
G03*
X3353100Y-6374000I-38100J0D01*
G01*
X3353100Y-6628000D02*
G75*
G03*
X3353100Y-6628000I-38100J0D01*
G01*
X3353100Y-6882000D02*
G75*
G03*
X3353100Y-6882000I-38100J0D01*
G01*
X3353100Y-7136000D02*
G75*
G03*
X3353100Y-7136000I-38100J0D01*
G01*
X3353100Y-7390000D02*
G75*
G03*
X3353100Y-7390000I-38100J0D01*
G01*
X3353100Y-7644000D02*
G75*
G03*
X3353100Y-7644000I-38100J0D01*
G01*
X3353100Y-7898000D02*
G75*
G03*
X3353100Y-7898000I-38100J0D01*
G01*
X3353100Y-8152000D02*
G75*
G03*
X3353100Y-8152000I-38100J0D01*
G01*
X3353100Y-8406000D02*
G75*
G03*
X3353100Y-8406000I-38100J0D01*
G01*
X3353100Y-8660000D02*
G75*
G03*
X3353100Y-8660000I-38100J0D01*
G01*
X3353100Y-8914000D02*
G75*
G03*
X3353100Y-8914000I-38100J0D01*
G01*
X3353100Y-9168000D02*
G75*
G03*
X3353100Y-9168000I-38100J0D01*
G01*
X3353100Y-9422000D02*
G75*
G03*
X3353100Y-9422000I-38100J0D01*
G01*
X3353100Y-9676000D02*
G75*
G03*
X3353100Y-9676000I-38100J0D01*
G01*
X3353100Y-9930000D02*
G75*
G03*
X3353100Y-9930000I-38100J0D01*
G01*
X3353100Y-10184000D02*
G75*
G03*
X3353100Y-10184000I-38100J0D01*
G01*
X3353100Y-10438000D02*
G75*
G03*
X3353100Y-10438000I-38100J0D01*
G01*
X3353100Y-10692000D02*
G75*
G03*
X3353100Y-10692000I-38100J0D01*
G01*
X3353100Y-10946000D02*
G75*
G03*
X3353100Y-10946000I-38100J0D01*
G01*
X3353100Y-11200000D02*
G75*
G03*
X3353100Y-11200000I-38100J0D01*
G01*
X3353100Y-11454000D02*
G75*
G03*
X3353100Y-11454000I-38100J0D01*
G01*
X3353100Y-11708000D02*
G75*
G03*
X3353100Y-11708000I-38100J0D01*
G01*
X3353100Y-11962000D02*
G75*
G03*
X3353100Y-11962000I-38100J0D01*
G01*
X3353100Y-12216000D02*
G75*
G03*
X3353100Y-12216000I-38100J0D01*
G01*
D10*
X6149000Y-7434000D02*
X6149000Y-7534000D01*
X6099000Y-7484000D02*
X6199000Y-7484000D01*
X6277000Y-10671000D02*
X6277000Y-10771000D01*
X6227000Y-10721000D02*
X6327000Y-10721000D01*
X6664000Y-7416000D02*
X6664000Y-7516000D01*
X6614000Y-7466000D02*
X6714000Y-7466000D01*
X6961000Y-5285000D02*
X6961000Y-5385000D01*
X6911000Y-5335000D02*
X7011000Y-5335000D01*
X6964000Y-5541000D02*
X6964000Y-5641000D01*
X6914000Y-5591000D02*
X7014000Y-5591000D01*
X7463000Y-8202000D02*
X7463000Y-8302000D01*
X7413000Y-8252000D02*
X7513000Y-8252000D01*
X7992000Y-10976000D02*
X7992000Y-11076000D01*
X7942000Y-11026000D02*
X8042000Y-11026000D01*
X8665000Y-11266500D02*
X8665000Y-11366500D01*
X8615000Y-11316500D02*
X8715000Y-11316500D01*
X8919000Y-11266500D02*
X8919000Y-11366500D01*
X8869000Y-11316500D02*
X8969000Y-11316500D01*
X9173000Y-11266500D02*
X9173000Y-11366500D01*
X9123000Y-11316500D02*
X9223000Y-11316500D01*
X9443000Y-12091000D02*
X9443000Y-12191000D01*
X9393000Y-12141000D02*
X9493000Y-12141000D01*
X9443000Y-12345000D02*
X9443000Y-12445000D01*
X9393000Y-12395000D02*
X9493000Y-12395000D01*
X9697000Y-11837000D02*
X9697000Y-11937000D01*
X9647000Y-11887000D02*
X9747000Y-11887000D01*
X9697000Y-12091000D02*
X9697000Y-12191000D01*
X9647000Y-12141000D02*
X9747000Y-12141000D01*
X9697000Y-12345000D02*
X9697000Y-12445000D01*
X9647000Y-12395000D02*
X9747000Y-12395000D01*
X9951000Y-11837000D02*
X9951000Y-11937000D01*
X9901000Y-11887000D02*
X10001000Y-11887000D01*
X9951000Y-12091000D02*
X9951000Y-12191000D01*
X9901000Y-12141000D02*
X10001000Y-12141000D01*
X9951000Y-12345000D02*
X9951000Y-12445000D01*
X9901000Y-12395000D02*
X10001000Y-12395000D01*
X9973000Y-5210000D02*
X9973000Y-5310000D01*
X9923000Y-5260000D02*
X10023000Y-5260000D01*
X10177000Y-5415000D02*
X10177000Y-5515000D01*
X10127000Y-5465000D02*
X10227000Y-5465000D01*
X10205000Y-11837000D02*
X10205000Y-11937000D01*
X10155000Y-11887000D02*
X10255000Y-11887000D01*
X10205000Y-12091000D02*
X10205000Y-12191000D01*
X10155000Y-12141000D02*
X10255000Y-12141000D01*
X10205000Y-12345000D02*
X10205000Y-12445000D01*
X10155000Y-12395000D02*
X10255000Y-12395000D01*
X10207000Y-11073000D02*
X10207000Y-11173000D01*
X10157000Y-11123000D02*
X10257000Y-11123000D01*
X10207000Y-11327000D02*
X10207000Y-11427000D01*
X10157000Y-11377000D02*
X10257000Y-11377000D01*
X10207000Y-11581000D02*
X10207000Y-11681000D01*
X10157000Y-11631000D02*
X10257000Y-11631000D01*
X10459000Y-11837000D02*
X10459000Y-11937000D01*
X10409000Y-11887000D02*
X10509000Y-11887000D01*
X10459000Y-12091000D02*
X10459000Y-12191000D01*
X10409000Y-12141000D02*
X10509000Y-12141000D01*
X10459000Y-12345000D02*
X10459000Y-12445000D01*
X10409000Y-12395000D02*
X10509000Y-12395000D01*
X10461000Y-11073000D02*
X10461000Y-11173000D01*
X10411000Y-11123000D02*
X10511000Y-11123000D01*
X10461000Y-11327000D02*
X10461000Y-11427000D01*
X10411000Y-11377000D02*
X10511000Y-11377000D01*
X10461000Y-11581000D02*
X10461000Y-11681000D01*
X10411000Y-11631000D02*
X10511000Y-11631000D01*
D14*
X8071063Y-5855063D02*
X8071063Y-5782937D01*
X7998937Y-5782937D01*
X7998937Y-5855063D01*
X8071063Y-5855063D01*
X8071063Y-6109063D02*
X8071063Y-6036937D01*
X7998937Y-6036937D01*
X7998937Y-6109063D01*
X8071063Y-6109063D01*
X8071063Y-6363063D02*
X8071063Y-6290937D01*
X7998937Y-6290937D01*
X7998937Y-6363063D01*
X8071063Y-6363063D01*
X8071063Y-6617063D02*
X8071063Y-6544937D01*
X7998937Y-6544937D01*
X7998937Y-6617063D01*
X8071063Y-6617063D01*
X8071063Y-6871063D02*
X8071063Y-6798937D01*
X7998937Y-6798937D01*
X7998937Y-6871063D01*
X8071063Y-6871063D01*
X8071063Y-7125063D02*
X8071063Y-7052937D01*
X7998937Y-7052937D01*
X7998937Y-7125063D01*
X8071063Y-7125063D01*
X8071063Y-7379063D02*
X8071063Y-7306937D01*
X7998937Y-7306937D01*
X7998937Y-7379063D01*
X8071063Y-7379063D01*
X8071063Y-7633063D02*
X8071063Y-7560937D01*
X7998937Y-7560937D01*
X7998937Y-7633063D01*
X8071063Y-7633063D01*
X8071063Y-7887063D02*
X8071063Y-7814937D01*
X7998937Y-7814937D01*
X7998937Y-7887063D01*
X8071063Y-7887063D01*
X8071063Y-8141063D02*
X8071063Y-8068937D01*
X7998937Y-8068937D01*
X7998937Y-8141063D01*
X8071063Y-8141063D01*
X8071063Y-8395063D02*
X8071063Y-8322937D01*
X7998937Y-8322937D01*
X7998937Y-8395063D01*
X8071063Y-8395063D01*
X8071063Y-8649063D02*
X8071063Y-8576937D01*
X7998937Y-8576937D01*
X7998937Y-8649063D01*
X8071063Y-8649063D01*
X8071063Y-8903063D02*
X8071063Y-8830937D01*
X7998937Y-8830937D01*
X7998937Y-8903063D01*
X8071063Y-8903063D01*
X8071063Y-9157063D02*
X8071063Y-9084937D01*
X7998937Y-9084937D01*
X7998937Y-9157063D01*
X8071063Y-9157063D01*
X8071063Y-9411063D02*
X8071063Y-9338937D01*
X7998937Y-9338937D01*
X7998937Y-9411063D01*
X8071063Y-9411063D01*
X8071063Y-9665063D02*
X8071063Y-9592937D01*
X7998937Y-9592937D01*
X7998937Y-9665063D01*
X8071063Y-9665063D01*
X8071063Y-9919063D02*
X8071063Y-9846937D01*
X7998937Y-9846937D01*
X7998937Y-9919063D01*
X8071063Y-9919063D01*
X8071063Y-10173063D02*
X8071063Y-10100937D01*
X7998937Y-10100937D01*
X7998937Y-10173063D01*
X8071063Y-10173063D01*
X8071063Y-10427063D02*
X8071063Y-10354937D01*
X7998937Y-10354937D01*
X7998937Y-10427063D01*
X8071063Y-10427063D01*
X8071063Y-10681063D02*
X8071063Y-10608937D01*
X7998937Y-10608937D01*
X7998937Y-10681063D01*
X8071063Y-10681063D01*
X8706063Y-10658063D02*
X8706063Y-10585937D01*
X8633937Y-10585937D01*
X8633937Y-10658063D01*
X8706063Y-10658063D01*
X8960063Y-10658063D02*
X8960063Y-10585937D01*
X8887937Y-10585937D01*
X8887937Y-10658063D01*
X8960063Y-10658063D01*
X9214063Y-10658063D02*
X9214063Y-10585937D01*
X9141937Y-10585937D01*
X9141937Y-10658063D01*
X9214063Y-10658063D01*
X9849063Y-5855063D02*
X9849063Y-5782937D01*
X9776937Y-5782937D01*
X9776937Y-5855063D01*
X9849063Y-5855063D01*
X9849063Y-6109063D02*
X9849063Y-6036937D01*
X9776937Y-6036937D01*
X9776937Y-6109063D01*
X9849063Y-6109063D01*
X9849063Y-6363063D02*
X9849063Y-6290937D01*
X9776937Y-6290937D01*
X9776937Y-6363063D01*
X9849063Y-6363063D01*
X9849063Y-6617063D02*
X9849063Y-6544937D01*
X9776937Y-6544937D01*
X9776937Y-6617063D01*
X9849063Y-6617063D01*
X9849063Y-6871063D02*
X9849063Y-6798937D01*
X9776937Y-6798937D01*
X9776937Y-6871063D01*
X9849063Y-6871063D01*
X9849063Y-7125063D02*
X9849063Y-7052937D01*
X9776937Y-7052937D01*
X9776937Y-7125063D01*
X9849063Y-7125063D01*
X9849063Y-7379063D02*
X9849063Y-7306937D01*
X9776937Y-7306937D01*
X9776937Y-7379063D01*
X9849063Y-7379063D01*
X9849063Y-7633063D02*
X9849063Y-7560937D01*
X9776937Y-7560937D01*
X9776937Y-7633063D01*
X9849063Y-7633063D01*
X9849063Y-7887063D02*
X9849063Y-7814937D01*
X9776937Y-7814937D01*
X9776937Y-7887063D01*
X9849063Y-7887063D01*
X9849063Y-8141063D02*
X9849063Y-8068937D01*
X9776937Y-8068937D01*
X9776937Y-8141063D01*
X9849063Y-8141063D01*
X9849063Y-8395063D02*
X9849063Y-8322937D01*
X9776937Y-8322937D01*
X9776937Y-8395063D01*
X9849063Y-8395063D01*
X9849063Y-8649063D02*
X9849063Y-8576937D01*
X9776937Y-8576937D01*
X9776937Y-8649063D01*
X9849063Y-8649063D01*
X9849063Y-8903063D02*
X9849063Y-8830937D01*
X9776937Y-8830937D01*
X9776937Y-8903063D01*
X9849063Y-8903063D01*
X9849063Y-9157063D02*
X9849063Y-9084937D01*
X9776937Y-9084937D01*
X9776937Y-9157063D01*
X9849063Y-9157063D01*
X9849063Y-9411063D02*
X9849063Y-9338937D01*
X9776937Y-9338937D01*
X9776937Y-9411063D01*
X9849063Y-9411063D01*
X9849063Y-9665063D02*
X9849063Y-9592937D01*
X9776937Y-9592937D01*
X9776937Y-9665063D01*
X9849063Y-9665063D01*
X9849063Y-9919063D02*
X9849063Y-9846937D01*
X9776937Y-9846937D01*
X9776937Y-9919063D01*
X9849063Y-9919063D01*
X9849063Y-10173063D02*
X9849063Y-10100937D01*
X9776937Y-10100937D01*
X9776937Y-10173063D01*
X9849063Y-10173063D01*
X9849063Y-10427063D02*
X9849063Y-10354937D01*
X9776937Y-10354937D01*
X9776937Y-10427063D01*
X9849063Y-10427063D01*
X9849063Y-10681063D02*
X9849063Y-10608937D01*
X9776937Y-10608937D01*
X9776937Y-10681063D01*
X9849063Y-10681063D01*
D11*
X2570619Y-12922476D02*
X2570619Y-12722476D01*
X2618238Y-12722476D01*
X2646810Y-12732000D01*
X2665857Y-12751048D01*
X2675381Y-12770095D01*
X2684905Y-12808190D01*
X2684905Y-12836762D01*
X2675381Y-12874857D01*
X2665857Y-12893905D01*
X2646810Y-12912952D01*
X2618238Y-12922476D01*
X2570619Y-12922476D01*
X2770619Y-12922476D02*
X2770619Y-12789143D01*
X2770619Y-12827238D02*
X2780143Y-12808190D01*
X2789667Y-12798667D01*
X2808714Y-12789143D01*
X2827762Y-12789143D01*
X2894428Y-12922476D02*
X2894428Y-12789143D01*
X2894428Y-12722476D02*
X2884905Y-12732000D01*
X2894428Y-12741524D01*
X2903952Y-12732000D01*
X2894428Y-12722476D01*
X2894428Y-12741524D01*
X3018238Y-12922476D02*
X2999190Y-12912952D01*
X2989667Y-12893905D01*
X2989667Y-12722476D01*
X3123000Y-12922476D02*
X3103952Y-12912952D01*
X3094428Y-12893905D01*
X3094428Y-12722476D01*
X3351571Y-12922476D02*
X3351571Y-12722476D01*
X3418238Y-12865333D01*
X3484905Y-12722476D01*
X3484905Y-12922476D01*
X3665857Y-12922476D02*
X3665857Y-12817714D01*
X3656333Y-12798667D01*
X3637286Y-12789143D01*
X3599190Y-12789143D01*
X3580143Y-12798667D01*
X3665857Y-12912952D02*
X3646809Y-12922476D01*
X3599190Y-12922476D01*
X3580143Y-12912952D01*
X3570619Y-12893905D01*
X3570619Y-12874857D01*
X3580143Y-12855809D01*
X3599190Y-12846286D01*
X3646809Y-12846286D01*
X3665857Y-12836762D01*
X3761095Y-12789143D02*
X3761095Y-12989143D01*
X3761095Y-12798667D02*
X3780143Y-12789143D01*
X3818238Y-12789143D01*
X3837286Y-12798667D01*
X3846809Y-12808190D01*
X3856333Y-12827238D01*
X3856333Y-12884381D01*
X3846809Y-12903428D01*
X3837286Y-12912952D01*
X3818238Y-12922476D01*
X3780143Y-12922476D01*
X3761095Y-12912952D01*
X3942048Y-12903428D02*
X3951571Y-12912952D01*
X3942048Y-12922476D01*
X3932524Y-12912952D01*
X3942048Y-12903428D01*
X3942048Y-12922476D01*
X3942048Y-12798667D02*
X3951571Y-12808190D01*
X3942048Y-12817714D01*
X3932524Y-12808190D01*
X3942048Y-12798667D01*
X3942048Y-12817714D01*
D12*
X2273000Y-13232000D02*
X2313000Y-13272000D01*
X2313000Y-13232000D02*
X2273000Y-13272000D01*
D11*
X2608714Y-13142476D02*
X2627762Y-13142476D01*
X2646810Y-13152000D01*
X2656333Y-13161524D01*
X2665857Y-13180571D01*
X2675381Y-13218667D01*
X2675381Y-13266286D01*
X2665857Y-13304381D01*
X2656333Y-13323428D01*
X2646810Y-13332952D01*
X2627762Y-13342476D01*
X2608714Y-13342476D01*
X2589667Y-13332952D01*
X2580143Y-13323428D01*
X2570619Y-13304381D01*
X2561095Y-13266286D01*
X2561095Y-13218667D01*
X2570619Y-13180571D01*
X2580143Y-13161524D01*
X2589667Y-13152000D01*
X2608714Y-13142476D01*
X2761095Y-13323428D02*
X2770619Y-13332952D01*
X2761095Y-13342476D01*
X2751571Y-13332952D01*
X2761095Y-13323428D01*
X2761095Y-13342476D01*
X2942048Y-13209143D02*
X2942048Y-13342476D01*
X2894428Y-13132952D02*
X2846809Y-13275809D01*
X2970619Y-13275809D01*
X3084905Y-13142476D02*
X3103952Y-13142476D01*
X3123000Y-13152000D01*
X3132524Y-13161524D01*
X3142048Y-13180571D01*
X3151571Y-13218667D01*
X3151571Y-13266286D01*
X3142048Y-13304381D01*
X3132524Y-13323428D01*
X3123000Y-13332952D01*
X3103952Y-13342476D01*
X3084905Y-13342476D01*
X3065857Y-13332952D01*
X3056333Y-13323428D01*
X3046809Y-13304381D01*
X3037286Y-13266286D01*
X3037286Y-13218667D01*
X3046809Y-13180571D01*
X3056333Y-13161524D01*
X3065857Y-13152000D01*
X3084905Y-13142476D01*
X3275381Y-13142476D02*
X3294428Y-13142476D01*
X3313476Y-13152000D01*
X3323000Y-13161524D01*
X3332524Y-13180571D01*
X3342048Y-13218667D01*
X3342048Y-13266286D01*
X3332524Y-13304381D01*
X3323000Y-13323428D01*
X3313476Y-13332952D01*
X3294428Y-13342476D01*
X3275381Y-13342476D01*
X3256333Y-13332952D01*
X3246809Y-13323428D01*
X3237286Y-13304381D01*
X3227762Y-13266286D01*
X3227762Y-13218667D01*
X3237286Y-13180571D01*
X3246809Y-13161524D01*
X3256333Y-13152000D01*
X3275381Y-13142476D01*
X3427762Y-13342476D02*
X3427762Y-13209143D01*
X3427762Y-13228190D02*
X3437286Y-13218667D01*
X3456333Y-13209143D01*
X3484905Y-13209143D01*
X3503952Y-13218667D01*
X3513476Y-13237714D01*
X3513476Y-13342476D01*
X3513476Y-13237714D02*
X3523000Y-13218667D01*
X3542048Y-13209143D01*
X3570619Y-13209143D01*
X3589667Y-13218667D01*
X3599190Y-13237714D01*
X3599190Y-13342476D01*
X3694428Y-13342476D02*
X3694428Y-13209143D01*
X3694428Y-13228190D02*
X3703952Y-13218667D01*
X3723000Y-13209143D01*
X3751571Y-13209143D01*
X3770619Y-13218667D01*
X3780143Y-13237714D01*
X3780143Y-13342476D01*
X3780143Y-13237714D02*
X3789667Y-13218667D01*
X3808714Y-13209143D01*
X3837286Y-13209143D01*
X3856333Y-13218667D01*
X3865857Y-13237714D01*
X3865857Y-13342476D01*
X4256333Y-13132952D02*
X4084905Y-13390095D01*
X4513476Y-13142476D02*
X4532524Y-13142476D01*
X4551571Y-13152000D01*
X4561095Y-13161524D01*
X4570619Y-13180571D01*
X4580143Y-13218667D01*
X4580143Y-13266286D01*
X4570619Y-13304381D01*
X4561095Y-13323428D01*
X4551571Y-13332952D01*
X4532524Y-13342476D01*
X4513476Y-13342476D01*
X4494429Y-13332952D01*
X4484905Y-13323428D01*
X4475381Y-13304381D01*
X4465857Y-13266286D01*
X4465857Y-13218667D01*
X4475381Y-13180571D01*
X4484905Y-13161524D01*
X4494429Y-13152000D01*
X4513476Y-13142476D01*
X4665857Y-13323428D02*
X4675381Y-13332952D01*
X4665857Y-13342476D01*
X4656333Y-13332952D01*
X4665857Y-13323428D01*
X4665857Y-13342476D01*
X4799190Y-13142476D02*
X4818238Y-13142476D01*
X4837286Y-13152000D01*
X4846810Y-13161524D01*
X4856333Y-13180571D01*
X4865857Y-13218667D01*
X4865857Y-13266286D01*
X4856333Y-13304381D01*
X4846810Y-13323428D01*
X4837286Y-13332952D01*
X4818238Y-13342476D01*
X4799190Y-13342476D01*
X4780143Y-13332952D01*
X4770619Y-13323428D01*
X4761095Y-13304381D01*
X4751571Y-13266286D01*
X4751571Y-13218667D01*
X4761095Y-13180571D01*
X4770619Y-13161524D01*
X4780143Y-13152000D01*
X4799190Y-13142476D01*
X5056333Y-13342476D02*
X4942048Y-13342476D01*
X4999190Y-13342476D02*
X4999190Y-13142476D01*
X4980143Y-13171048D01*
X4961095Y-13190095D01*
X4942048Y-13199619D01*
X5237286Y-13142476D02*
X5142048Y-13142476D01*
X5132524Y-13237714D01*
X5142048Y-13228190D01*
X5161095Y-13218667D01*
X5208714Y-13218667D01*
X5227762Y-13228190D01*
X5237286Y-13237714D01*
X5246810Y-13256762D01*
X5246810Y-13304381D01*
X5237286Y-13323428D01*
X5227762Y-13332952D01*
X5208714Y-13342476D01*
X5161095Y-13342476D01*
X5142048Y-13332952D01*
X5132524Y-13323428D01*
X5313476Y-13142476D02*
X5446810Y-13142476D01*
X5361095Y-13342476D01*
X5513476Y-13142476D02*
X5513476Y-13180571D01*
X5589667Y-13142476D02*
X5589667Y-13180571D01*
X5884905Y-13418667D02*
X5875381Y-13409143D01*
X5856333Y-13380571D01*
X5846809Y-13361524D01*
X5837286Y-13332952D01*
X5827762Y-13285333D01*
X5827762Y-13247238D01*
X5837286Y-13199619D01*
X5846809Y-13171048D01*
X5856333Y-13152000D01*
X5875381Y-13123428D01*
X5884905Y-13113905D01*
X5989667Y-13228190D02*
X5970619Y-13218667D01*
X5961095Y-13209143D01*
X5951571Y-13190095D01*
X5951571Y-13180571D01*
X5961095Y-13161524D01*
X5970619Y-13152000D01*
X5989667Y-13142476D01*
X6027762Y-13142476D01*
X6046809Y-13152000D01*
X6056333Y-13161524D01*
X6065857Y-13180571D01*
X6065857Y-13190095D01*
X6056333Y-13209143D01*
X6046809Y-13218667D01*
X6027762Y-13228190D01*
X5989667Y-13228190D01*
X5970619Y-13237714D01*
X5961095Y-13247238D01*
X5951571Y-13266286D01*
X5951571Y-13304381D01*
X5961095Y-13323428D01*
X5970619Y-13332952D01*
X5989667Y-13342476D01*
X6027762Y-13342476D01*
X6046809Y-13332952D01*
X6056333Y-13323428D01*
X6065857Y-13304381D01*
X6065857Y-13266286D01*
X6056333Y-13247238D01*
X6046809Y-13237714D01*
X6027762Y-13228190D01*
X6180143Y-13228190D02*
X6161095Y-13218667D01*
X6151571Y-13209143D01*
X6142048Y-13190095D01*
X6142048Y-13180571D01*
X6151571Y-13161524D01*
X6161095Y-13152000D01*
X6180143Y-13142476D01*
X6218238Y-13142476D01*
X6237286Y-13152000D01*
X6246809Y-13161524D01*
X6256333Y-13180571D01*
X6256333Y-13190095D01*
X6246809Y-13209143D01*
X6237286Y-13218667D01*
X6218238Y-13228190D01*
X6180143Y-13228190D01*
X6161095Y-13237714D01*
X6151571Y-13247238D01*
X6142048Y-13266286D01*
X6142048Y-13304381D01*
X6151571Y-13323428D01*
X6161095Y-13332952D01*
X6180143Y-13342476D01*
X6218238Y-13342476D01*
X6237286Y-13332952D01*
X6246809Y-13323428D01*
X6256333Y-13304381D01*
X6256333Y-13266286D01*
X6246809Y-13247238D01*
X6237286Y-13237714D01*
X6218238Y-13228190D01*
X6494428Y-13342476D02*
X6494428Y-13142476D01*
X6580143Y-13342476D02*
X6580143Y-13237714D01*
X6570619Y-13218667D01*
X6551571Y-13209143D01*
X6523000Y-13209143D01*
X6503952Y-13218667D01*
X6494428Y-13228190D01*
X6703952Y-13342476D02*
X6684905Y-13332952D01*
X6675381Y-13323428D01*
X6665857Y-13304381D01*
X6665857Y-13247238D01*
X6675381Y-13228190D01*
X6684905Y-13218667D01*
X6703952Y-13209143D01*
X6732524Y-13209143D01*
X6751571Y-13218667D01*
X6761095Y-13228190D01*
X6770619Y-13247238D01*
X6770619Y-13304381D01*
X6761095Y-13323428D01*
X6751571Y-13332952D01*
X6732524Y-13342476D01*
X6703952Y-13342476D01*
X6884905Y-13342476D02*
X6865857Y-13332952D01*
X6856333Y-13313905D01*
X6856333Y-13142476D01*
X7037286Y-13332952D02*
X7018238Y-13342476D01*
X6980143Y-13342476D01*
X6961095Y-13332952D01*
X6951571Y-13313905D01*
X6951571Y-13237714D01*
X6961095Y-13218667D01*
X6980143Y-13209143D01*
X7018238Y-13209143D01*
X7037286Y-13218667D01*
X7046809Y-13237714D01*
X7046809Y-13256762D01*
X6951571Y-13275809D01*
X7123000Y-13332952D02*
X7142048Y-13342476D01*
X7180143Y-13342476D01*
X7199190Y-13332952D01*
X7208714Y-13313905D01*
X7208714Y-13304381D01*
X7199190Y-13285333D01*
X7180143Y-13275809D01*
X7151571Y-13275809D01*
X7132524Y-13266286D01*
X7123000Y-13247238D01*
X7123000Y-13237714D01*
X7132524Y-13218667D01*
X7151571Y-13209143D01*
X7180143Y-13209143D01*
X7199190Y-13218667D01*
X7275381Y-13418667D02*
X7284905Y-13409143D01*
X7303952Y-13380571D01*
X7313476Y-13361524D01*
X7323000Y-13332952D01*
X7332524Y-13285333D01*
X7332524Y-13247238D01*
X7323000Y-13199619D01*
X7313476Y-13171048D01*
X7303952Y-13152000D01*
X7284905Y-13123428D01*
X7275381Y-13113905D01*
D13*
X2313000Y-13516000D02*
G75*
G03*
X2313000Y-13516000I-38100J0D01*
G01*
D11*
X2608714Y-13406476D02*
X2627762Y-13406476D01*
X2646810Y-13416000D01*
X2656333Y-13425524D01*
X2665857Y-13444571D01*
X2675381Y-13482667D01*
X2675381Y-13530286D01*
X2665857Y-13568381D01*
X2656333Y-13587428D01*
X2646810Y-13596952D01*
X2627762Y-13606476D01*
X2608714Y-13606476D01*
X2589667Y-13596952D01*
X2580143Y-13587428D01*
X2570619Y-13568381D01*
X2561095Y-13530286D01*
X2561095Y-13482667D01*
X2570619Y-13444571D01*
X2580143Y-13425524D01*
X2589667Y-13416000D01*
X2608714Y-13406476D01*
X2761095Y-13587428D02*
X2770619Y-13596952D01*
X2761095Y-13606476D01*
X2751571Y-13596952D01*
X2761095Y-13587428D01*
X2761095Y-13606476D01*
X2837286Y-13406476D02*
X2970619Y-13406476D01*
X2884905Y-13606476D01*
X3132524Y-13406476D02*
X3094428Y-13406476D01*
X3075381Y-13416000D01*
X3065857Y-13425524D01*
X3046809Y-13454095D01*
X3037286Y-13492190D01*
X3037286Y-13568381D01*
X3046809Y-13587428D01*
X3056333Y-13596952D01*
X3075381Y-13606476D01*
X3113476Y-13606476D01*
X3132524Y-13596952D01*
X3142048Y-13587428D01*
X3151571Y-13568381D01*
X3151571Y-13520762D01*
X3142048Y-13501714D01*
X3132524Y-13492190D01*
X3113476Y-13482667D01*
X3075381Y-13482667D01*
X3056333Y-13492190D01*
X3046809Y-13501714D01*
X3037286Y-13520762D01*
X3227762Y-13425524D02*
X3237286Y-13416000D01*
X3256333Y-13406476D01*
X3303952Y-13406476D01*
X3323000Y-13416000D01*
X3332524Y-13425524D01*
X3342048Y-13444571D01*
X3342048Y-13463619D01*
X3332524Y-13492190D01*
X3218238Y-13606476D01*
X3342048Y-13606476D01*
X3427762Y-13606476D02*
X3427762Y-13473143D01*
X3427762Y-13492190D02*
X3437286Y-13482667D01*
X3456333Y-13473143D01*
X3484905Y-13473143D01*
X3503952Y-13482667D01*
X3513476Y-13501714D01*
X3513476Y-13606476D01*
X3513476Y-13501714D02*
X3523000Y-13482667D01*
X3542048Y-13473143D01*
X3570619Y-13473143D01*
X3589667Y-13482667D01*
X3599190Y-13501714D01*
X3599190Y-13606476D01*
X3694428Y-13606476D02*
X3694428Y-13473143D01*
X3694428Y-13492190D02*
X3703952Y-13482667D01*
X3723000Y-13473143D01*
X3751571Y-13473143D01*
X3770619Y-13482667D01*
X3780143Y-13501714D01*
X3780143Y-13606476D01*
X3780143Y-13501714D02*
X3789667Y-13482667D01*
X3808714Y-13473143D01*
X3837286Y-13473143D01*
X3856333Y-13482667D01*
X3865857Y-13501714D01*
X3865857Y-13606476D01*
X4256333Y-13396952D02*
X4084905Y-13654095D01*
X4513476Y-13406476D02*
X4532524Y-13406476D01*
X4551571Y-13416000D01*
X4561095Y-13425524D01*
X4570619Y-13444571D01*
X4580143Y-13482667D01*
X4580143Y-13530286D01*
X4570619Y-13568381D01*
X4561095Y-13587428D01*
X4551571Y-13596952D01*
X4532524Y-13606476D01*
X4513476Y-13606476D01*
X4494429Y-13596952D01*
X4484905Y-13587428D01*
X4475381Y-13568381D01*
X4465857Y-13530286D01*
X4465857Y-13482667D01*
X4475381Y-13444571D01*
X4484905Y-13425524D01*
X4494429Y-13416000D01*
X4513476Y-13406476D01*
X4665857Y-13587428D02*
X4675381Y-13596952D01*
X4665857Y-13606476D01*
X4656333Y-13596952D01*
X4665857Y-13587428D01*
X4665857Y-13606476D01*
X4799190Y-13406476D02*
X4818238Y-13406476D01*
X4837286Y-13416000D01*
X4846810Y-13425524D01*
X4856333Y-13444571D01*
X4865857Y-13482667D01*
X4865857Y-13530286D01*
X4856333Y-13568381D01*
X4846810Y-13587428D01*
X4837286Y-13596952D01*
X4818238Y-13606476D01*
X4799190Y-13606476D01*
X4780143Y-13596952D01*
X4770619Y-13587428D01*
X4761095Y-13568381D01*
X4751571Y-13530286D01*
X4751571Y-13482667D01*
X4761095Y-13444571D01*
X4770619Y-13425524D01*
X4780143Y-13416000D01*
X4799190Y-13406476D01*
X4932524Y-13406476D02*
X5056333Y-13406476D01*
X4989667Y-13482667D01*
X5018238Y-13482667D01*
X5037286Y-13492190D01*
X5046810Y-13501714D01*
X5056333Y-13520762D01*
X5056333Y-13568381D01*
X5046810Y-13587428D01*
X5037286Y-13596952D01*
X5018238Y-13606476D01*
X4961095Y-13606476D01*
X4942048Y-13596952D01*
X4932524Y-13587428D01*
X5180143Y-13406476D02*
X5199190Y-13406476D01*
X5218238Y-13416000D01*
X5227762Y-13425524D01*
X5237286Y-13444571D01*
X5246810Y-13482667D01*
X5246810Y-13530286D01*
X5237286Y-13568381D01*
X5227762Y-13587428D01*
X5218238Y-13596952D01*
X5199190Y-13606476D01*
X5180143Y-13606476D01*
X5161095Y-13596952D01*
X5151571Y-13587428D01*
X5142048Y-13568381D01*
X5132524Y-13530286D01*
X5132524Y-13482667D01*
X5142048Y-13444571D01*
X5151571Y-13425524D01*
X5161095Y-13416000D01*
X5180143Y-13406476D01*
X5370619Y-13406476D02*
X5389667Y-13406476D01*
X5408714Y-13416000D01*
X5418238Y-13425524D01*
X5427762Y-13444571D01*
X5437286Y-13482667D01*
X5437286Y-13530286D01*
X5427762Y-13568381D01*
X5418238Y-13587428D01*
X5408714Y-13596952D01*
X5389667Y-13606476D01*
X5370619Y-13606476D01*
X5351571Y-13596952D01*
X5342048Y-13587428D01*
X5332524Y-13568381D01*
X5323000Y-13530286D01*
X5323000Y-13482667D01*
X5332524Y-13444571D01*
X5342048Y-13425524D01*
X5351571Y-13416000D01*
X5370619Y-13406476D01*
X5513476Y-13406476D02*
X5513476Y-13444571D01*
X5589667Y-13406476D02*
X5589667Y-13444571D01*
X5884905Y-13682667D02*
X5875381Y-13673143D01*
X5856333Y-13644571D01*
X5846809Y-13625524D01*
X5837286Y-13596952D01*
X5827762Y-13549333D01*
X5827762Y-13511238D01*
X5837286Y-13463619D01*
X5846809Y-13435048D01*
X5856333Y-13416000D01*
X5875381Y-13387428D01*
X5884905Y-13377905D01*
X6056333Y-13406476D02*
X5961095Y-13406476D01*
X5951571Y-13501714D01*
X5961095Y-13492190D01*
X5980143Y-13482667D01*
X6027762Y-13482667D01*
X6046809Y-13492190D01*
X6056333Y-13501714D01*
X6065857Y-13520762D01*
X6065857Y-13568381D01*
X6056333Y-13587428D01*
X6046809Y-13596952D01*
X6027762Y-13606476D01*
X5980143Y-13606476D01*
X5961095Y-13596952D01*
X5951571Y-13587428D01*
X6237286Y-13406476D02*
X6199190Y-13406476D01*
X6180143Y-13416000D01*
X6170619Y-13425524D01*
X6151571Y-13454095D01*
X6142048Y-13492190D01*
X6142048Y-13568381D01*
X6151571Y-13587428D01*
X6161095Y-13596952D01*
X6180143Y-13606476D01*
X6218238Y-13606476D01*
X6237286Y-13596952D01*
X6246809Y-13587428D01*
X6256333Y-13568381D01*
X6256333Y-13520762D01*
X6246809Y-13501714D01*
X6237286Y-13492190D01*
X6218238Y-13482667D01*
X6180143Y-13482667D01*
X6161095Y-13492190D01*
X6151571Y-13501714D01*
X6142048Y-13520762D01*
X6494428Y-13606476D02*
X6494428Y-13406476D01*
X6580143Y-13606476D02*
X6580143Y-13501714D01*
X6570619Y-13482667D01*
X6551571Y-13473143D01*
X6523000Y-13473143D01*
X6503952Y-13482667D01*
X6494428Y-13492190D01*
X6703952Y-13606476D02*
X6684905Y-13596952D01*
X6675381Y-13587428D01*
X6665857Y-13568381D01*
X6665857Y-13511238D01*
X6675381Y-13492190D01*
X6684905Y-13482667D01*
X6703952Y-13473143D01*
X6732524Y-13473143D01*
X6751571Y-13482667D01*
X6761095Y-13492190D01*
X6770619Y-13511238D01*
X6770619Y-13568381D01*
X6761095Y-13587428D01*
X6751571Y-13596952D01*
X6732524Y-13606476D01*
X6703952Y-13606476D01*
X6884905Y-13606476D02*
X6865857Y-13596952D01*
X6856333Y-13577905D01*
X6856333Y-13406476D01*
X7037286Y-13596952D02*
X7018238Y-13606476D01*
X6980143Y-13606476D01*
X6961095Y-13596952D01*
X6951571Y-13577905D01*
X6951571Y-13501714D01*
X6961095Y-13482667D01*
X6980143Y-13473143D01*
X7018238Y-13473143D01*
X7037286Y-13482667D01*
X7046809Y-13501714D01*
X7046809Y-13520762D01*
X6951571Y-13539809D01*
X7123000Y-13596952D02*
X7142048Y-13606476D01*
X7180143Y-13606476D01*
X7199190Y-13596952D01*
X7208714Y-13577905D01*
X7208714Y-13568381D01*
X7199190Y-13549333D01*
X7180143Y-13539809D01*
X7151571Y-13539809D01*
X7132524Y-13530286D01*
X7123000Y-13511238D01*
X7123000Y-13501714D01*
X7132524Y-13482667D01*
X7151571Y-13473143D01*
X7180143Y-13473143D01*
X7199190Y-13482667D01*
X7275381Y-13682667D02*
X7284905Y-13673143D01*
X7303952Y-13644571D01*
X7313476Y-13625524D01*
X7323000Y-13596952D01*
X7332524Y-13549333D01*
X7332524Y-13511238D01*
X7323000Y-13463619D01*
X7313476Y-13435048D01*
X7303952Y-13416000D01*
X7284905Y-13387428D01*
X7275381Y-13377905D01*
D10*
X2263000Y-13730000D02*
X2263000Y-13830000D01*
X2213000Y-13780000D02*
X2313000Y-13780000D01*
D11*
X2675381Y-13870476D02*
X2561095Y-13870476D01*
X2618238Y-13870476D02*
X2618238Y-13670476D01*
X2599190Y-13699048D01*
X2580143Y-13718095D01*
X2561095Y-13727619D01*
X2761095Y-13851428D02*
X2770619Y-13860952D01*
X2761095Y-13870476D01*
X2751571Y-13860952D01*
X2761095Y-13851428D01*
X2761095Y-13870476D01*
X2894428Y-13670476D02*
X2913476Y-13670476D01*
X2932524Y-13680000D01*
X2942048Y-13689524D01*
X2951571Y-13708571D01*
X2961095Y-13746667D01*
X2961095Y-13794286D01*
X2951571Y-13832381D01*
X2942048Y-13851428D01*
X2932524Y-13860952D01*
X2913476Y-13870476D01*
X2894428Y-13870476D01*
X2875381Y-13860952D01*
X2865857Y-13851428D01*
X2856333Y-13832381D01*
X2846809Y-13794286D01*
X2846809Y-13746667D01*
X2856333Y-13708571D01*
X2865857Y-13689524D01*
X2875381Y-13680000D01*
X2894428Y-13670476D01*
X3084905Y-13670476D02*
X3103952Y-13670476D01*
X3123000Y-13680000D01*
X3132524Y-13689524D01*
X3142048Y-13708571D01*
X3151571Y-13746667D01*
X3151571Y-13794286D01*
X3142048Y-13832381D01*
X3132524Y-13851428D01*
X3123000Y-13860952D01*
X3103952Y-13870476D01*
X3084905Y-13870476D01*
X3065857Y-13860952D01*
X3056333Y-13851428D01*
X3046809Y-13832381D01*
X3037286Y-13794286D01*
X3037286Y-13746667D01*
X3046809Y-13708571D01*
X3056333Y-13689524D01*
X3065857Y-13680000D01*
X3084905Y-13670476D01*
X3275381Y-13670476D02*
X3294428Y-13670476D01*
X3313476Y-13680000D01*
X3323000Y-13689524D01*
X3332524Y-13708571D01*
X3342048Y-13746667D01*
X3342048Y-13794286D01*
X3332524Y-13832381D01*
X3323000Y-13851428D01*
X3313476Y-13860952D01*
X3294428Y-13870476D01*
X3275381Y-13870476D01*
X3256333Y-13860952D01*
X3246809Y-13851428D01*
X3237286Y-13832381D01*
X3227762Y-13794286D01*
X3227762Y-13746667D01*
X3237286Y-13708571D01*
X3246809Y-13689524D01*
X3256333Y-13680000D01*
X3275381Y-13670476D01*
X3427762Y-13870476D02*
X3427762Y-13737143D01*
X3427762Y-13756190D02*
X3437286Y-13746667D01*
X3456333Y-13737143D01*
X3484905Y-13737143D01*
X3503952Y-13746667D01*
X3513476Y-13765714D01*
X3513476Y-13870476D01*
X3513476Y-13765714D02*
X3523000Y-13746667D01*
X3542048Y-13737143D01*
X3570619Y-13737143D01*
X3589667Y-13746667D01*
X3599190Y-13765714D01*
X3599190Y-13870476D01*
X3694428Y-13870476D02*
X3694428Y-13737143D01*
X3694428Y-13756190D02*
X3703952Y-13746667D01*
X3723000Y-13737143D01*
X3751571Y-13737143D01*
X3770619Y-13746667D01*
X3780143Y-13765714D01*
X3780143Y-13870476D01*
X3780143Y-13765714D02*
X3789667Y-13746667D01*
X3808714Y-13737143D01*
X3837286Y-13737143D01*
X3856333Y-13746667D01*
X3865857Y-13765714D01*
X3865857Y-13870476D01*
X4256333Y-13660952D02*
X4084905Y-13918095D01*
X4513476Y-13670476D02*
X4532524Y-13670476D01*
X4551571Y-13680000D01*
X4561095Y-13689524D01*
X4570619Y-13708571D01*
X4580143Y-13746667D01*
X4580143Y-13794286D01*
X4570619Y-13832381D01*
X4561095Y-13851428D01*
X4551571Y-13860952D01*
X4532524Y-13870476D01*
X4513476Y-13870476D01*
X4494429Y-13860952D01*
X4484905Y-13851428D01*
X4475381Y-13832381D01*
X4465857Y-13794286D01*
X4465857Y-13746667D01*
X4475381Y-13708571D01*
X4484905Y-13689524D01*
X4494429Y-13680000D01*
X4513476Y-13670476D01*
X4665857Y-13851428D02*
X4675381Y-13860952D01*
X4665857Y-13870476D01*
X4656333Y-13860952D01*
X4665857Y-13851428D01*
X4665857Y-13870476D01*
X4799190Y-13670476D02*
X4818238Y-13670476D01*
X4837286Y-13680000D01*
X4846810Y-13689524D01*
X4856333Y-13708571D01*
X4865857Y-13746667D01*
X4865857Y-13794286D01*
X4856333Y-13832381D01*
X4846810Y-13851428D01*
X4837286Y-13860952D01*
X4818238Y-13870476D01*
X4799190Y-13870476D01*
X4780143Y-13860952D01*
X4770619Y-13851428D01*
X4761095Y-13832381D01*
X4751571Y-13794286D01*
X4751571Y-13746667D01*
X4761095Y-13708571D01*
X4770619Y-13689524D01*
X4780143Y-13680000D01*
X4799190Y-13670476D01*
X4932524Y-13670476D02*
X5056333Y-13670476D01*
X4989667Y-13746667D01*
X5018238Y-13746667D01*
X5037286Y-13756190D01*
X5046810Y-13765714D01*
X5056333Y-13784762D01*
X5056333Y-13832381D01*
X5046810Y-13851428D01*
X5037286Y-13860952D01*
X5018238Y-13870476D01*
X4961095Y-13870476D01*
X4942048Y-13860952D01*
X4932524Y-13851428D01*
X5151571Y-13870476D02*
X5189667Y-13870476D01*
X5208714Y-13860952D01*
X5218238Y-13851428D01*
X5237286Y-13822857D01*
X5246810Y-13784762D01*
X5246810Y-13708571D01*
X5237286Y-13689524D01*
X5227762Y-13680000D01*
X5208714Y-13670476D01*
X5170619Y-13670476D01*
X5151571Y-13680000D01*
X5142048Y-13689524D01*
X5132524Y-13708571D01*
X5132524Y-13756190D01*
X5142048Y-13775238D01*
X5151571Y-13784762D01*
X5170619Y-13794286D01*
X5208714Y-13794286D01*
X5227762Y-13784762D01*
X5237286Y-13775238D01*
X5246810Y-13756190D01*
X5418238Y-13737143D02*
X5418238Y-13870476D01*
X5370619Y-13660952D02*
X5323000Y-13803809D01*
X5446810Y-13803809D01*
X5513476Y-13670476D02*
X5513476Y-13708571D01*
X5589667Y-13670476D02*
X5589667Y-13708571D01*
X5884905Y-13946667D02*
X5875381Y-13937143D01*
X5856333Y-13908571D01*
X5846809Y-13889524D01*
X5837286Y-13860952D01*
X5827762Y-13813333D01*
X5827762Y-13775238D01*
X5837286Y-13727619D01*
X5846809Y-13699048D01*
X5856333Y-13680000D01*
X5875381Y-13651428D01*
X5884905Y-13641905D01*
X5942048Y-13670476D02*
X6065857Y-13670476D01*
X5999190Y-13746667D01*
X6027762Y-13746667D01*
X6046809Y-13756190D01*
X6056333Y-13765714D01*
X6065857Y-13784762D01*
X6065857Y-13832381D01*
X6056333Y-13851428D01*
X6046809Y-13860952D01*
X6027762Y-13870476D01*
X5970619Y-13870476D01*
X5951571Y-13860952D01*
X5942048Y-13851428D01*
X6142048Y-13689524D02*
X6151571Y-13680000D01*
X6170619Y-13670476D01*
X6218238Y-13670476D01*
X6237286Y-13680000D01*
X6246809Y-13689524D01*
X6256333Y-13708571D01*
X6256333Y-13727619D01*
X6246809Y-13756190D01*
X6132524Y-13870476D01*
X6256333Y-13870476D01*
X6494428Y-13870476D02*
X6494428Y-13670476D01*
X6580143Y-13870476D02*
X6580143Y-13765714D01*
X6570619Y-13746667D01*
X6551571Y-13737143D01*
X6523000Y-13737143D01*
X6503952Y-13746667D01*
X6494428Y-13756190D01*
X6703952Y-13870476D02*
X6684905Y-13860952D01*
X6675381Y-13851428D01*
X6665857Y-13832381D01*
X6665857Y-13775238D01*
X6675381Y-13756190D01*
X6684905Y-13746667D01*
X6703952Y-13737143D01*
X6732524Y-13737143D01*
X6751571Y-13746667D01*
X6761095Y-13756190D01*
X6770619Y-13775238D01*
X6770619Y-13832381D01*
X6761095Y-13851428D01*
X6751571Y-13860952D01*
X6732524Y-13870476D01*
X6703952Y-13870476D01*
X6884905Y-13870476D02*
X6865857Y-13860952D01*
X6856333Y-13841905D01*
X6856333Y-13670476D01*
X7037286Y-13860952D02*
X7018238Y-13870476D01*
X6980143Y-13870476D01*
X6961095Y-13860952D01*
X6951571Y-13841905D01*
X6951571Y-13765714D01*
X6961095Y-13746667D01*
X6980143Y-13737143D01*
X7018238Y-13737143D01*
X7037286Y-13746667D01*
X7046809Y-13765714D01*
X7046809Y-13784762D01*
X6951571Y-13803809D01*
X7123000Y-13860952D02*
X7142048Y-13870476D01*
X7180143Y-13870476D01*
X7199190Y-13860952D01*
X7208714Y-13841905D01*
X7208714Y-13832381D01*
X7199190Y-13813333D01*
X7180143Y-13803809D01*
X7151571Y-13803809D01*
X7132524Y-13794286D01*
X7123000Y-13775238D01*
X7123000Y-13765714D01*
X7132524Y-13746667D01*
X7151571Y-13737143D01*
X7180143Y-13737143D01*
X7199190Y-13746667D01*
X7275381Y-13946667D02*
X7284905Y-13937143D01*
X7303952Y-13908571D01*
X7313476Y-13889524D01*
X7323000Y-13860952D01*
X7332524Y-13813333D01*
X7332524Y-13775238D01*
X7323000Y-13727619D01*
X7313476Y-13699048D01*
X7303952Y-13680000D01*
X7284905Y-13651428D01*
X7275381Y-13641905D01*
D14*
X2298063Y-14080063D02*
X2298063Y-14007937D01*
X2225937Y-14007937D01*
X2225937Y-14080063D01*
X2298063Y-14080063D01*
D11*
X2675381Y-14134476D02*
X2561095Y-14134476D01*
X2618238Y-14134476D02*
X2618238Y-13934476D01*
X2599190Y-13963048D01*
X2580143Y-13982095D01*
X2561095Y-13991619D01*
X2761095Y-14115428D02*
X2770619Y-14124952D01*
X2761095Y-14134476D01*
X2751571Y-14124952D01*
X2761095Y-14115428D01*
X2761095Y-14134476D01*
X2894428Y-13934476D02*
X2913476Y-13934476D01*
X2932524Y-13944000D01*
X2942048Y-13953524D01*
X2951571Y-13972571D01*
X2961095Y-14010667D01*
X2961095Y-14058286D01*
X2951571Y-14096381D01*
X2942048Y-14115428D01*
X2932524Y-14124952D01*
X2913476Y-14134476D01*
X2894428Y-14134476D01*
X2875381Y-14124952D01*
X2865857Y-14115428D01*
X2856333Y-14096381D01*
X2846809Y-14058286D01*
X2846809Y-14010667D01*
X2856333Y-13972571D01*
X2865857Y-13953524D01*
X2875381Y-13944000D01*
X2894428Y-13934476D01*
X3037286Y-13953524D02*
X3046809Y-13944000D01*
X3065857Y-13934476D01*
X3113476Y-13934476D01*
X3132524Y-13944000D01*
X3142048Y-13953524D01*
X3151571Y-13972571D01*
X3151571Y-13991619D01*
X3142048Y-14020190D01*
X3027762Y-14134476D01*
X3151571Y-14134476D01*
X3275381Y-13934476D02*
X3294428Y-13934476D01*
X3313476Y-13944000D01*
X3323000Y-13953524D01*
X3332524Y-13972571D01*
X3342048Y-14010667D01*
X3342048Y-14058286D01*
X3332524Y-14096381D01*
X3323000Y-14115428D01*
X3313476Y-14124952D01*
X3294428Y-14134476D01*
X3275381Y-14134476D01*
X3256333Y-14124952D01*
X3246809Y-14115428D01*
X3237286Y-14096381D01*
X3227762Y-14058286D01*
X3227762Y-14010667D01*
X3237286Y-13972571D01*
X3246809Y-13953524D01*
X3256333Y-13944000D01*
X3275381Y-13934476D01*
X3427762Y-14134476D02*
X3427762Y-14001143D01*
X3427762Y-14020190D02*
X3437286Y-14010667D01*
X3456333Y-14001143D01*
X3484905Y-14001143D01*
X3503952Y-14010667D01*
X3513476Y-14029714D01*
X3513476Y-14134476D01*
X3513476Y-14029714D02*
X3523000Y-14010667D01*
X3542048Y-14001143D01*
X3570619Y-14001143D01*
X3589667Y-14010667D01*
X3599190Y-14029714D01*
X3599190Y-14134476D01*
X3694428Y-14134476D02*
X3694428Y-14001143D01*
X3694428Y-14020190D02*
X3703952Y-14010667D01*
X3723000Y-14001143D01*
X3751571Y-14001143D01*
X3770619Y-14010667D01*
X3780143Y-14029714D01*
X3780143Y-14134476D01*
X3780143Y-14029714D02*
X3789667Y-14010667D01*
X3808714Y-14001143D01*
X3837286Y-14001143D01*
X3856333Y-14010667D01*
X3865857Y-14029714D01*
X3865857Y-14134476D01*
X4256333Y-13924952D02*
X4084905Y-14182095D01*
X4513476Y-13934476D02*
X4532524Y-13934476D01*
X4551571Y-13944000D01*
X4561095Y-13953524D01*
X4570619Y-13972571D01*
X4580143Y-14010667D01*
X4580143Y-14058286D01*
X4570619Y-14096381D01*
X4561095Y-14115428D01*
X4551571Y-14124952D01*
X4532524Y-14134476D01*
X4513476Y-14134476D01*
X4494429Y-14124952D01*
X4484905Y-14115428D01*
X4475381Y-14096381D01*
X4465857Y-14058286D01*
X4465857Y-14010667D01*
X4475381Y-13972571D01*
X4484905Y-13953524D01*
X4494429Y-13944000D01*
X4513476Y-13934476D01*
X4665857Y-14115428D02*
X4675381Y-14124952D01*
X4665857Y-14134476D01*
X4656333Y-14124952D01*
X4665857Y-14115428D01*
X4665857Y-14134476D01*
X4799190Y-13934476D02*
X4818238Y-13934476D01*
X4837286Y-13944000D01*
X4846810Y-13953524D01*
X4856333Y-13972571D01*
X4865857Y-14010667D01*
X4865857Y-14058286D01*
X4856333Y-14096381D01*
X4846810Y-14115428D01*
X4837286Y-14124952D01*
X4818238Y-14134476D01*
X4799190Y-14134476D01*
X4780143Y-14124952D01*
X4770619Y-14115428D01*
X4761095Y-14096381D01*
X4751571Y-14058286D01*
X4751571Y-14010667D01*
X4761095Y-13972571D01*
X4770619Y-13953524D01*
X4780143Y-13944000D01*
X4799190Y-13934476D01*
X5037286Y-14001143D02*
X5037286Y-14134476D01*
X4989667Y-13924952D02*
X4942048Y-14067809D01*
X5065857Y-14067809D01*
X5180143Y-13934476D02*
X5199190Y-13934476D01*
X5218238Y-13944000D01*
X5227762Y-13953524D01*
X5237286Y-13972571D01*
X5246810Y-14010667D01*
X5246810Y-14058286D01*
X5237286Y-14096381D01*
X5227762Y-14115428D01*
X5218238Y-14124952D01*
X5199190Y-14134476D01*
X5180143Y-14134476D01*
X5161095Y-14124952D01*
X5151571Y-14115428D01*
X5142048Y-14096381D01*
X5132524Y-14058286D01*
X5132524Y-14010667D01*
X5142048Y-13972571D01*
X5151571Y-13953524D01*
X5161095Y-13944000D01*
X5180143Y-13934476D01*
X5323000Y-13953524D02*
X5332524Y-13944000D01*
X5351571Y-13934476D01*
X5399190Y-13934476D01*
X5418238Y-13944000D01*
X5427762Y-13953524D01*
X5437286Y-13972571D01*
X5437286Y-13991619D01*
X5427762Y-14020190D01*
X5313476Y-14134476D01*
X5437286Y-14134476D01*
X5513476Y-13934476D02*
X5513476Y-13972571D01*
X5589667Y-13934476D02*
X5589667Y-13972571D01*
X5884905Y-14210667D02*
X5875381Y-14201143D01*
X5856333Y-14172571D01*
X5846809Y-14153524D01*
X5837286Y-14124952D01*
X5827762Y-14077333D01*
X5827762Y-14039238D01*
X5837286Y-13991619D01*
X5846809Y-13963048D01*
X5856333Y-13944000D01*
X5875381Y-13915428D01*
X5884905Y-13905905D01*
X6046809Y-14001143D02*
X6046809Y-14134476D01*
X5999190Y-13924952D02*
X5951571Y-14067809D01*
X6075381Y-14067809D01*
X6132524Y-13934476D02*
X6256333Y-13934476D01*
X6189667Y-14010667D01*
X6218238Y-14010667D01*
X6237286Y-14020190D01*
X6246809Y-14029714D01*
X6256333Y-14048762D01*
X6256333Y-14096381D01*
X6246809Y-14115428D01*
X6237286Y-14124952D01*
X6218238Y-14134476D01*
X6161095Y-14134476D01*
X6142048Y-14124952D01*
X6132524Y-14115428D01*
X6494428Y-14134476D02*
X6494428Y-13934476D01*
X6580143Y-14134476D02*
X6580143Y-14029714D01*
X6570619Y-14010667D01*
X6551571Y-14001143D01*
X6523000Y-14001143D01*
X6503952Y-14010667D01*
X6494428Y-14020190D01*
X6703952Y-14134476D02*
X6684905Y-14124952D01*
X6675381Y-14115428D01*
X6665857Y-14096381D01*
X6665857Y-14039238D01*
X6675381Y-14020190D01*
X6684905Y-14010667D01*
X6703952Y-14001143D01*
X6732524Y-14001143D01*
X6751571Y-14010667D01*
X6761095Y-14020190D01*
X6770619Y-14039238D01*
X6770619Y-14096381D01*
X6761095Y-14115428D01*
X6751571Y-14124952D01*
X6732524Y-14134476D01*
X6703952Y-14134476D01*
X6884905Y-14134476D02*
X6865857Y-14124952D01*
X6856333Y-14105905D01*
X6856333Y-13934476D01*
X7037286Y-14124952D02*
X7018238Y-14134476D01*
X6980143Y-14134476D01*
X6961095Y-14124952D01*
X6951571Y-14105905D01*
X6951571Y-14029714D01*
X6961095Y-14010667D01*
X6980143Y-14001143D01*
X7018238Y-14001143D01*
X7037286Y-14010667D01*
X7046809Y-14029714D01*
X7046809Y-14048762D01*
X6951571Y-14067809D01*
X7123000Y-14124952D02*
X7142048Y-14134476D01*
X7180143Y-14134476D01*
X7199190Y-14124952D01*
X7208714Y-14105905D01*
X7208714Y-14096381D01*
X7199190Y-14077333D01*
X7180143Y-14067809D01*
X7151571Y-14067809D01*
X7132524Y-14058286D01*
X7123000Y-14039238D01*
X7123000Y-14029714D01*
X7132524Y-14010667D01*
X7151571Y-14001143D01*
X7180143Y-14001143D01*
X7199190Y-14010667D01*
X7275381Y-14210667D02*
X7284905Y-14201143D01*
X7303952Y-14172571D01*
X7313476Y-14153524D01*
X7323000Y-14124952D01*
X7332524Y-14077333D01*
X7332524Y-14039238D01*
X7323000Y-13991619D01*
X7313476Y-13963048D01*
X7303952Y-13944000D01*
X7284905Y-13915428D01*
X7275381Y-13905905D01*
M02*
