M48
; DRILL file {KiCad 6.0.10-86aedd382b~118~ubuntu20.04.1} date Tue 03 Jan 2023 17:43:10 GMT
; FORMAT={-:-/ absolute / metric / decimal}
; #@! TF.CreationDate,2023-01-03T17:43:10+00:00
; #@! TF.GenerationSoftware,Kicad,Pcbnew,6.0.10-86aedd382b~118~ubuntu20.04.1
; #@! TF.FileFunction,Plated,1,2,PTH
FMAT,2
METRIC
; #@! TA.AperFunction,Plated,PTH,ViaDrill
T1C0.400
; #@! TA.AperFunction,Plated,PTH,ComponentDrill
T2C0.762
; #@! TA.AperFunction,Plated,PTH,ComponentDrill
T3C1.000
; #@! TA.AperFunction,Plated,PTH,ComponentDrill
T4C1.020
%
G90
G05
T1
X29.79Y-70.34
X29.98Y-74.78
X31.21Y-72.59
X35.82Y-94.67
X35.83Y-82.83
X35.83Y-113.2
X35.85Y-116.31
X37.0Y-93.49
X37.06Y-80.42
X37.39Y-110.83
X37.42Y-115.09
X37.91Y-66.25
X38.04Y-59.81
X38.19Y-86.25
X38.19Y-98.61
X38.63Y-113.73
X38.64Y-108.26
X38.94Y-93.61
X38.96Y-57.34
X39.83Y-56.16
X39.85Y-92.89
X40.05Y-112.5
X40.08Y-105.58
X40.84Y-61.06
X40.84Y-68.79
X41.27Y-75.21
X41.29Y-88.31
X42.15Y-71.36
X42.2Y-62.32
X44.12Y-66.09
X44.15Y-73.89
X45.49Y-63.58
X45.52Y-76.43
X47.32Y-64.86
X47.36Y-78.92
X49.16Y-67.4
X49.25Y-81.52
X52.85Y-54.97
X53.15Y-80.8
X54.35Y-53.64
X54.67Y-79.54
X55.78Y-78.29
X55.81Y-86.33
X56.11Y-58.66
X56.17Y-68.67
X57.65Y-91.59
X57.94Y-82.08
X58.31Y-54.81
X58.32Y-58.52
X58.65Y-92.64
X58.98Y-77.03
X59.21Y-122.67
X61.12Y-104.66
X62.0Y-71.59
X62.73Y-59.24
X62.73Y-69.33
X63.91Y-59.81
X63.92Y-77.69
X64.84Y-80.78
X65.95Y-107.92
X66.14Y-88.31
X66.23Y-86.02
X68.44Y-78.27
X68.45Y-58.56
X68.91Y-92.67
X71.69Y-112.51
X72.32Y-53.59
X72.42Y-76.54
X72.48Y-80.34
X73.44Y-124.94
X81.82Y-113.79
X82.68Y-86.13
X82.76Y-114.86
X83.43Y-81.07
X83.64Y-91.23
X83.66Y-116.3
X84.67Y-117.57
X84.81Y-93.74
X89.25Y-101.37
X93.66Y-68.45
X93.68Y-55.1
X93.79Y-96.31
X93.79Y-115.483
X94.93Y-98.82
X95.24Y-115.547
X96.18Y-103.91
X96.69Y-115.61
X98.13Y-115.6
T2
X28.15Y-53.58
X28.15Y-56.12
X28.15Y-58.66
X28.15Y-61.2
X28.15Y-63.74
X28.15Y-66.28
X28.15Y-68.82
X28.15Y-71.36
X28.15Y-73.9
X28.15Y-76.44
X28.15Y-78.98
X28.15Y-81.52
X28.15Y-84.06
X28.15Y-86.6
X28.15Y-89.14
X28.15Y-91.68
X28.15Y-94.22
X28.15Y-96.76
X28.15Y-99.3
X28.15Y-101.84
X28.15Y-104.38
X28.15Y-106.92
X28.15Y-109.46
X28.15Y-112.0
X28.15Y-114.54
X28.15Y-117.08
X28.15Y-119.62
X28.15Y-122.16
X33.15Y-53.58
X33.15Y-56.12
X33.15Y-58.66
X33.15Y-61.2
X33.15Y-63.74
X33.15Y-66.28
X33.15Y-68.82
X33.15Y-71.36
X33.15Y-73.9
X33.15Y-76.44
X33.15Y-78.98
X33.15Y-81.52
X33.15Y-84.06
X33.15Y-86.6
X33.15Y-89.14
X33.15Y-91.68
X33.15Y-94.22
X33.15Y-96.76
X33.15Y-99.3
X33.15Y-101.84
X33.15Y-104.38
X33.15Y-106.92
X33.15Y-109.46
X33.15Y-112.0
X33.15Y-114.54
X33.15Y-117.08
X33.15Y-119.62
X33.15Y-122.16
T3
X61.49Y-74.84
X62.77Y-107.21
X66.64Y-74.66
X69.61Y-53.35
X69.64Y-55.91
X74.63Y-82.52
X79.92Y-110.26
X86.65Y-113.165
X89.19Y-113.165
X91.73Y-113.165
X94.43Y-121.41
X94.43Y-123.95
X96.97Y-118.87
X96.97Y-121.41
X96.97Y-123.95
X99.51Y-118.87
X99.51Y-121.41
X99.51Y-123.95
X99.73Y-52.6
X101.77Y-54.65
X102.05Y-118.87
X102.05Y-121.41
X102.05Y-123.95
X102.07Y-111.23
X102.07Y-113.77
X102.07Y-116.31
X104.59Y-118.87
X104.59Y-121.41
X104.59Y-123.95
X104.61Y-111.23
X104.61Y-113.77
X104.61Y-116.31
T4
X80.35Y-58.19
X80.35Y-60.73
X80.35Y-63.27
X80.35Y-65.81
X80.35Y-68.35
X80.35Y-70.89
X80.35Y-73.43
X80.35Y-75.97
X80.35Y-78.51
X80.35Y-81.05
X80.35Y-83.59
X80.35Y-86.13
X80.35Y-88.67
X80.35Y-91.21
X80.35Y-93.75
X80.35Y-96.29
X80.35Y-98.83
X80.35Y-101.37
X80.35Y-103.91
X80.35Y-106.45
X86.7Y-106.22
X89.24Y-106.22
X91.78Y-106.22
X98.13Y-58.19
X98.13Y-60.73
X98.13Y-63.27
X98.13Y-65.81
X98.13Y-68.35
X98.13Y-70.89
X98.13Y-73.43
X98.13Y-75.97
X98.13Y-78.51
X98.13Y-81.05
X98.13Y-83.59
X98.13Y-86.13
X98.13Y-88.67
X98.13Y-91.21
X98.13Y-93.75
X98.13Y-96.29
X98.13Y-98.83
X98.13Y-101.37
X98.13Y-103.91
X98.13Y-106.45
T0
M30
