%TF.GenerationSoftware,KiCad,Pcbnew,6.0.10-86aedd382b~118~ubuntu20.04.1*%
%TF.CreationDate,2023-01-03T17:43:26+00:00*%
%TF.ProjectId,srom,73726f6d-2e6b-4696-9361-645f70636258,rev?*%
%TF.SameCoordinates,Original*%
%TF.FileFunction,Drillmap*%
%TF.FilePolarity,Positive*%
%FSLAX45Y45*%
G04 Gerber Fmt 4.5, Leading zero omitted, Abs format (unit mm)*
G04 Created by KiCad (PCBNEW 6.0.10-86aedd382b~118~ubuntu20.04.1) date 2023-01-03 17:43:26*
%MOMM*%
%LPD*%
G01*
G04 APERTURE LIST*
%ADD10C,0.100000*%
%ADD11C,0.200000*%
%ADD12C,0.150000*%
%ADD13C,0.180000*%
G04 APERTURE END LIST*
D10*
X2318000Y-4998000D02*
X10646000Y-4998000D01*
X10646000Y-4998000D02*
X10646000Y-12607000D01*
X10646000Y-12607000D02*
X2318000Y-12607000D01*
X2318000Y-12607000D02*
X2318000Y-4998000D01*
D11*
D12*
X8606500Y-6060000D02*
X8756500Y-6210000D01*
X8756500Y-6060000D02*
X8606500Y-6210000D01*
X9091500Y-6060000D02*
X9241500Y-6210000D01*
X9241500Y-6060000D02*
X9091500Y-6210000D01*
D13*
X8741500Y-5832000D02*
G75*
G03*
X8741500Y-5832000I-90000J0D01*
G01*
X9286500Y-5832000D02*
G75*
G03*
X9286500Y-5832000I-90000J0D01*
G01*
D11*
X2570619Y-12922476D02*
X2570619Y-12722476D01*
X2618238Y-12722476D01*
X2646810Y-12732000D01*
X2665857Y-12751048D01*
X2675381Y-12770095D01*
X2684905Y-12808190D01*
X2684905Y-12836762D01*
X2675381Y-12874857D01*
X2665857Y-12893905D01*
X2646810Y-12912952D01*
X2618238Y-12922476D01*
X2570619Y-12922476D01*
X2770619Y-12922476D02*
X2770619Y-12789143D01*
X2770619Y-12827238D02*
X2780143Y-12808190D01*
X2789667Y-12798667D01*
X2808714Y-12789143D01*
X2827762Y-12789143D01*
X2894428Y-12922476D02*
X2894428Y-12789143D01*
X2894428Y-12722476D02*
X2884905Y-12732000D01*
X2894428Y-12741524D01*
X2903952Y-12732000D01*
X2894428Y-12722476D01*
X2894428Y-12741524D01*
X3018238Y-12922476D02*
X2999190Y-12912952D01*
X2989667Y-12893905D01*
X2989667Y-12722476D01*
X3123000Y-12922476D02*
X3103952Y-12912952D01*
X3094428Y-12893905D01*
X3094428Y-12722476D01*
X3351571Y-12922476D02*
X3351571Y-12722476D01*
X3418238Y-12865333D01*
X3484905Y-12722476D01*
X3484905Y-12922476D01*
X3665857Y-12922476D02*
X3665857Y-12817714D01*
X3656333Y-12798667D01*
X3637286Y-12789143D01*
X3599190Y-12789143D01*
X3580143Y-12798667D01*
X3665857Y-12912952D02*
X3646809Y-12922476D01*
X3599190Y-12922476D01*
X3580143Y-12912952D01*
X3570619Y-12893905D01*
X3570619Y-12874857D01*
X3580143Y-12855809D01*
X3599190Y-12846286D01*
X3646809Y-12846286D01*
X3665857Y-12836762D01*
X3761095Y-12789143D02*
X3761095Y-12989143D01*
X3761095Y-12798667D02*
X3780143Y-12789143D01*
X3818238Y-12789143D01*
X3837286Y-12798667D01*
X3846809Y-12808190D01*
X3856333Y-12827238D01*
X3856333Y-12884381D01*
X3846809Y-12903428D01*
X3837286Y-12912952D01*
X3818238Y-12922476D01*
X3780143Y-12922476D01*
X3761095Y-12912952D01*
X3942048Y-12903428D02*
X3951571Y-12912952D01*
X3942048Y-12922476D01*
X3932524Y-12912952D01*
X3942048Y-12903428D01*
X3942048Y-12922476D01*
X3942048Y-12798667D02*
X3951571Y-12808190D01*
X3942048Y-12817714D01*
X3932524Y-12808190D01*
X3942048Y-12798667D01*
X3942048Y-12817714D01*
D12*
X2163000Y-13177000D02*
X2313000Y-13327000D01*
X2313000Y-13177000D02*
X2163000Y-13327000D01*
D11*
X2675381Y-13342476D02*
X2561095Y-13342476D01*
X2618238Y-13342476D02*
X2618238Y-13142476D01*
X2599190Y-13171048D01*
X2580143Y-13190095D01*
X2561095Y-13199619D01*
X2761095Y-13323428D02*
X2770619Y-13332952D01*
X2761095Y-13342476D01*
X2751571Y-13332952D01*
X2761095Y-13323428D01*
X2761095Y-13342476D01*
X2951571Y-13142476D02*
X2856333Y-13142476D01*
X2846809Y-13237714D01*
X2856333Y-13228190D01*
X2875381Y-13218667D01*
X2923000Y-13218667D01*
X2942048Y-13228190D01*
X2951571Y-13237714D01*
X2961095Y-13256762D01*
X2961095Y-13304381D01*
X2951571Y-13323428D01*
X2942048Y-13332952D01*
X2923000Y-13342476D01*
X2875381Y-13342476D01*
X2856333Y-13332952D01*
X2846809Y-13323428D01*
X3084905Y-13142476D02*
X3103952Y-13142476D01*
X3123000Y-13152000D01*
X3132524Y-13161524D01*
X3142048Y-13180571D01*
X3151571Y-13218667D01*
X3151571Y-13266286D01*
X3142048Y-13304381D01*
X3132524Y-13323428D01*
X3123000Y-13332952D01*
X3103952Y-13342476D01*
X3084905Y-13342476D01*
X3065857Y-13332952D01*
X3056333Y-13323428D01*
X3046809Y-13304381D01*
X3037286Y-13266286D01*
X3037286Y-13218667D01*
X3046809Y-13180571D01*
X3056333Y-13161524D01*
X3065857Y-13152000D01*
X3084905Y-13142476D01*
X3275381Y-13142476D02*
X3294428Y-13142476D01*
X3313476Y-13152000D01*
X3323000Y-13161524D01*
X3332524Y-13180571D01*
X3342048Y-13218667D01*
X3342048Y-13266286D01*
X3332524Y-13304381D01*
X3323000Y-13323428D01*
X3313476Y-13332952D01*
X3294428Y-13342476D01*
X3275381Y-13342476D01*
X3256333Y-13332952D01*
X3246809Y-13323428D01*
X3237286Y-13304381D01*
X3227762Y-13266286D01*
X3227762Y-13218667D01*
X3237286Y-13180571D01*
X3246809Y-13161524D01*
X3256333Y-13152000D01*
X3275381Y-13142476D01*
X3427762Y-13342476D02*
X3427762Y-13209143D01*
X3427762Y-13228190D02*
X3437286Y-13218667D01*
X3456333Y-13209143D01*
X3484905Y-13209143D01*
X3503952Y-13218667D01*
X3513476Y-13237714D01*
X3513476Y-13342476D01*
X3513476Y-13237714D02*
X3523000Y-13218667D01*
X3542048Y-13209143D01*
X3570619Y-13209143D01*
X3589667Y-13218667D01*
X3599190Y-13237714D01*
X3599190Y-13342476D01*
X3694428Y-13342476D02*
X3694428Y-13209143D01*
X3694428Y-13228190D02*
X3703952Y-13218667D01*
X3723000Y-13209143D01*
X3751571Y-13209143D01*
X3770619Y-13218667D01*
X3780143Y-13237714D01*
X3780143Y-13342476D01*
X3780143Y-13237714D02*
X3789667Y-13218667D01*
X3808714Y-13209143D01*
X3837286Y-13209143D01*
X3856333Y-13218667D01*
X3865857Y-13237714D01*
X3865857Y-13342476D01*
X4256333Y-13132952D02*
X4084905Y-13390095D01*
X4513476Y-13142476D02*
X4532524Y-13142476D01*
X4551571Y-13152000D01*
X4561095Y-13161524D01*
X4570619Y-13180571D01*
X4580143Y-13218667D01*
X4580143Y-13266286D01*
X4570619Y-13304381D01*
X4561095Y-13323428D01*
X4551571Y-13332952D01*
X4532524Y-13342476D01*
X4513476Y-13342476D01*
X4494429Y-13332952D01*
X4484905Y-13323428D01*
X4475381Y-13304381D01*
X4465857Y-13266286D01*
X4465857Y-13218667D01*
X4475381Y-13180571D01*
X4484905Y-13161524D01*
X4494429Y-13152000D01*
X4513476Y-13142476D01*
X4665857Y-13323428D02*
X4675381Y-13332952D01*
X4665857Y-13342476D01*
X4656333Y-13332952D01*
X4665857Y-13323428D01*
X4665857Y-13342476D01*
X4799190Y-13142476D02*
X4818238Y-13142476D01*
X4837286Y-13152000D01*
X4846810Y-13161524D01*
X4856333Y-13180571D01*
X4865857Y-13218667D01*
X4865857Y-13266286D01*
X4856333Y-13304381D01*
X4846810Y-13323428D01*
X4837286Y-13332952D01*
X4818238Y-13342476D01*
X4799190Y-13342476D01*
X4780143Y-13332952D01*
X4770619Y-13323428D01*
X4761095Y-13304381D01*
X4751571Y-13266286D01*
X4751571Y-13218667D01*
X4761095Y-13180571D01*
X4770619Y-13161524D01*
X4780143Y-13152000D01*
X4799190Y-13142476D01*
X5046810Y-13142476D02*
X4951571Y-13142476D01*
X4942048Y-13237714D01*
X4951571Y-13228190D01*
X4970619Y-13218667D01*
X5018238Y-13218667D01*
X5037286Y-13228190D01*
X5046810Y-13237714D01*
X5056333Y-13256762D01*
X5056333Y-13304381D01*
X5046810Y-13323428D01*
X5037286Y-13332952D01*
X5018238Y-13342476D01*
X4970619Y-13342476D01*
X4951571Y-13332952D01*
X4942048Y-13323428D01*
X5151571Y-13342476D02*
X5189667Y-13342476D01*
X5208714Y-13332952D01*
X5218238Y-13323428D01*
X5237286Y-13294857D01*
X5246810Y-13256762D01*
X5246810Y-13180571D01*
X5237286Y-13161524D01*
X5227762Y-13152000D01*
X5208714Y-13142476D01*
X5170619Y-13142476D01*
X5151571Y-13152000D01*
X5142048Y-13161524D01*
X5132524Y-13180571D01*
X5132524Y-13228190D01*
X5142048Y-13247238D01*
X5151571Y-13256762D01*
X5170619Y-13266286D01*
X5208714Y-13266286D01*
X5227762Y-13256762D01*
X5237286Y-13247238D01*
X5246810Y-13228190D01*
X5437286Y-13342476D02*
X5323000Y-13342476D01*
X5380143Y-13342476D02*
X5380143Y-13142476D01*
X5361095Y-13171048D01*
X5342048Y-13190095D01*
X5323000Y-13199619D01*
X5513476Y-13142476D02*
X5513476Y-13180571D01*
X5589667Y-13142476D02*
X5589667Y-13180571D01*
X5884905Y-13418667D02*
X5875381Y-13409143D01*
X5856333Y-13380571D01*
X5846809Y-13361524D01*
X5837286Y-13332952D01*
X5827762Y-13285333D01*
X5827762Y-13247238D01*
X5837286Y-13199619D01*
X5846809Y-13171048D01*
X5856333Y-13152000D01*
X5875381Y-13123428D01*
X5884905Y-13113905D01*
X5951571Y-13161524D02*
X5961095Y-13152000D01*
X5980143Y-13142476D01*
X6027762Y-13142476D01*
X6046809Y-13152000D01*
X6056333Y-13161524D01*
X6065857Y-13180571D01*
X6065857Y-13199619D01*
X6056333Y-13228190D01*
X5942048Y-13342476D01*
X6065857Y-13342476D01*
X6303952Y-13342476D02*
X6303952Y-13142476D01*
X6389667Y-13342476D02*
X6389667Y-13237714D01*
X6380143Y-13218667D01*
X6361095Y-13209143D01*
X6332524Y-13209143D01*
X6313476Y-13218667D01*
X6303952Y-13228190D01*
X6513476Y-13342476D02*
X6494428Y-13332952D01*
X6484905Y-13323428D01*
X6475381Y-13304381D01*
X6475381Y-13247238D01*
X6484905Y-13228190D01*
X6494428Y-13218667D01*
X6513476Y-13209143D01*
X6542048Y-13209143D01*
X6561095Y-13218667D01*
X6570619Y-13228190D01*
X6580143Y-13247238D01*
X6580143Y-13304381D01*
X6570619Y-13323428D01*
X6561095Y-13332952D01*
X6542048Y-13342476D01*
X6513476Y-13342476D01*
X6694428Y-13342476D02*
X6675381Y-13332952D01*
X6665857Y-13313905D01*
X6665857Y-13142476D01*
X6846809Y-13332952D02*
X6827762Y-13342476D01*
X6789667Y-13342476D01*
X6770619Y-13332952D01*
X6761095Y-13313905D01*
X6761095Y-13237714D01*
X6770619Y-13218667D01*
X6789667Y-13209143D01*
X6827762Y-13209143D01*
X6846809Y-13218667D01*
X6856333Y-13237714D01*
X6856333Y-13256762D01*
X6761095Y-13275809D01*
X6932524Y-13332952D02*
X6951571Y-13342476D01*
X6989667Y-13342476D01*
X7008714Y-13332952D01*
X7018238Y-13313905D01*
X7018238Y-13304381D01*
X7008714Y-13285333D01*
X6989667Y-13275809D01*
X6961095Y-13275809D01*
X6942048Y-13266286D01*
X6932524Y-13247238D01*
X6932524Y-13237714D01*
X6942048Y-13218667D01*
X6961095Y-13209143D01*
X6989667Y-13209143D01*
X7008714Y-13218667D01*
X7084905Y-13418667D02*
X7094428Y-13409143D01*
X7113476Y-13380571D01*
X7123000Y-13361524D01*
X7132524Y-13332952D01*
X7142048Y-13285333D01*
X7142048Y-13247238D01*
X7132524Y-13199619D01*
X7123000Y-13171048D01*
X7113476Y-13152000D01*
X7094428Y-13123428D01*
X7084905Y-13113905D01*
X7446809Y-13418667D02*
X7437286Y-13409143D01*
X7418238Y-13380571D01*
X7408714Y-13361524D01*
X7399190Y-13332952D01*
X7389667Y-13285333D01*
X7389667Y-13247238D01*
X7399190Y-13199619D01*
X7408714Y-13171048D01*
X7418238Y-13152000D01*
X7437286Y-13123428D01*
X7446809Y-13113905D01*
X7523000Y-13209143D02*
X7523000Y-13342476D01*
X7523000Y-13228190D02*
X7532524Y-13218667D01*
X7551571Y-13209143D01*
X7580143Y-13209143D01*
X7599190Y-13218667D01*
X7608714Y-13237714D01*
X7608714Y-13342476D01*
X7732524Y-13342476D02*
X7713476Y-13332952D01*
X7703952Y-13323428D01*
X7694428Y-13304381D01*
X7694428Y-13247238D01*
X7703952Y-13228190D01*
X7713476Y-13218667D01*
X7732524Y-13209143D01*
X7761095Y-13209143D01*
X7780143Y-13218667D01*
X7789667Y-13228190D01*
X7799190Y-13247238D01*
X7799190Y-13304381D01*
X7789667Y-13323428D01*
X7780143Y-13332952D01*
X7761095Y-13342476D01*
X7732524Y-13342476D01*
X7856333Y-13209143D02*
X7932524Y-13209143D01*
X7884905Y-13142476D02*
X7884905Y-13313905D01*
X7894428Y-13332952D01*
X7913476Y-13342476D01*
X7932524Y-13342476D01*
X8151571Y-13209143D02*
X8151571Y-13409143D01*
X8151571Y-13218667D02*
X8170619Y-13209143D01*
X8208714Y-13209143D01*
X8227762Y-13218667D01*
X8237286Y-13228190D01*
X8246809Y-13247238D01*
X8246809Y-13304381D01*
X8237286Y-13323428D01*
X8227762Y-13332952D01*
X8208714Y-13342476D01*
X8170619Y-13342476D01*
X8151571Y-13332952D01*
X8361095Y-13342476D02*
X8342048Y-13332952D01*
X8332524Y-13313905D01*
X8332524Y-13142476D01*
X8523000Y-13342476D02*
X8523000Y-13237714D01*
X8513476Y-13218667D01*
X8494429Y-13209143D01*
X8456333Y-13209143D01*
X8437286Y-13218667D01*
X8523000Y-13332952D02*
X8503952Y-13342476D01*
X8456333Y-13342476D01*
X8437286Y-13332952D01*
X8427762Y-13313905D01*
X8427762Y-13294857D01*
X8437286Y-13275809D01*
X8456333Y-13266286D01*
X8503952Y-13266286D01*
X8523000Y-13256762D01*
X8589667Y-13209143D02*
X8665857Y-13209143D01*
X8618238Y-13142476D02*
X8618238Y-13313905D01*
X8627762Y-13332952D01*
X8646810Y-13342476D01*
X8665857Y-13342476D01*
X8808714Y-13332952D02*
X8789667Y-13342476D01*
X8751571Y-13342476D01*
X8732524Y-13332952D01*
X8723000Y-13313905D01*
X8723000Y-13237714D01*
X8732524Y-13218667D01*
X8751571Y-13209143D01*
X8789667Y-13209143D01*
X8808714Y-13218667D01*
X8818238Y-13237714D01*
X8818238Y-13256762D01*
X8723000Y-13275809D01*
X8989667Y-13342476D02*
X8989667Y-13142476D01*
X8989667Y-13332952D02*
X8970619Y-13342476D01*
X8932524Y-13342476D01*
X8913476Y-13332952D01*
X8903952Y-13323428D01*
X8894429Y-13304381D01*
X8894429Y-13247238D01*
X8903952Y-13228190D01*
X8913476Y-13218667D01*
X8932524Y-13209143D01*
X8970619Y-13209143D01*
X8989667Y-13218667D01*
X9065857Y-13418667D02*
X9075381Y-13409143D01*
X9094429Y-13380571D01*
X9103952Y-13361524D01*
X9113476Y-13332952D01*
X9123000Y-13285333D01*
X9123000Y-13247238D01*
X9113476Y-13199619D01*
X9103952Y-13171048D01*
X9094429Y-13152000D01*
X9075381Y-13123428D01*
X9065857Y-13113905D01*
D13*
X2313000Y-13522000D02*
G75*
G03*
X2313000Y-13522000I-90000J0D01*
G01*
D11*
X2675381Y-13612476D02*
X2561095Y-13612476D01*
X2618238Y-13612476D02*
X2618238Y-13412476D01*
X2599190Y-13441048D01*
X2580143Y-13460095D01*
X2561095Y-13469619D01*
X2761095Y-13593428D02*
X2770619Y-13602952D01*
X2761095Y-13612476D01*
X2751571Y-13602952D01*
X2761095Y-13593428D01*
X2761095Y-13612476D01*
X2884905Y-13498190D02*
X2865857Y-13488667D01*
X2856333Y-13479143D01*
X2846809Y-13460095D01*
X2846809Y-13450571D01*
X2856333Y-13431524D01*
X2865857Y-13422000D01*
X2884905Y-13412476D01*
X2923000Y-13412476D01*
X2942048Y-13422000D01*
X2951571Y-13431524D01*
X2961095Y-13450571D01*
X2961095Y-13460095D01*
X2951571Y-13479143D01*
X2942048Y-13488667D01*
X2923000Y-13498190D01*
X2884905Y-13498190D01*
X2865857Y-13507714D01*
X2856333Y-13517238D01*
X2846809Y-13536286D01*
X2846809Y-13574381D01*
X2856333Y-13593428D01*
X2865857Y-13602952D01*
X2884905Y-13612476D01*
X2923000Y-13612476D01*
X2942048Y-13602952D01*
X2951571Y-13593428D01*
X2961095Y-13574381D01*
X2961095Y-13536286D01*
X2951571Y-13517238D01*
X2942048Y-13507714D01*
X2923000Y-13498190D01*
X3084905Y-13412476D02*
X3103952Y-13412476D01*
X3123000Y-13422000D01*
X3132524Y-13431524D01*
X3142048Y-13450571D01*
X3151571Y-13488667D01*
X3151571Y-13536286D01*
X3142048Y-13574381D01*
X3132524Y-13593428D01*
X3123000Y-13602952D01*
X3103952Y-13612476D01*
X3084905Y-13612476D01*
X3065857Y-13602952D01*
X3056333Y-13593428D01*
X3046809Y-13574381D01*
X3037286Y-13536286D01*
X3037286Y-13488667D01*
X3046809Y-13450571D01*
X3056333Y-13431524D01*
X3065857Y-13422000D01*
X3084905Y-13412476D01*
X3275381Y-13412476D02*
X3294428Y-13412476D01*
X3313476Y-13422000D01*
X3323000Y-13431524D01*
X3332524Y-13450571D01*
X3342048Y-13488667D01*
X3342048Y-13536286D01*
X3332524Y-13574381D01*
X3323000Y-13593428D01*
X3313476Y-13602952D01*
X3294428Y-13612476D01*
X3275381Y-13612476D01*
X3256333Y-13602952D01*
X3246809Y-13593428D01*
X3237286Y-13574381D01*
X3227762Y-13536286D01*
X3227762Y-13488667D01*
X3237286Y-13450571D01*
X3246809Y-13431524D01*
X3256333Y-13422000D01*
X3275381Y-13412476D01*
X3427762Y-13612476D02*
X3427762Y-13479143D01*
X3427762Y-13498190D02*
X3437286Y-13488667D01*
X3456333Y-13479143D01*
X3484905Y-13479143D01*
X3503952Y-13488667D01*
X3513476Y-13507714D01*
X3513476Y-13612476D01*
X3513476Y-13507714D02*
X3523000Y-13488667D01*
X3542048Y-13479143D01*
X3570619Y-13479143D01*
X3589667Y-13488667D01*
X3599190Y-13507714D01*
X3599190Y-13612476D01*
X3694428Y-13612476D02*
X3694428Y-13479143D01*
X3694428Y-13498190D02*
X3703952Y-13488667D01*
X3723000Y-13479143D01*
X3751571Y-13479143D01*
X3770619Y-13488667D01*
X3780143Y-13507714D01*
X3780143Y-13612476D01*
X3780143Y-13507714D02*
X3789667Y-13488667D01*
X3808714Y-13479143D01*
X3837286Y-13479143D01*
X3856333Y-13488667D01*
X3865857Y-13507714D01*
X3865857Y-13612476D01*
X4256333Y-13402952D02*
X4084905Y-13660095D01*
X4513476Y-13412476D02*
X4532524Y-13412476D01*
X4551571Y-13422000D01*
X4561095Y-13431524D01*
X4570619Y-13450571D01*
X4580143Y-13488667D01*
X4580143Y-13536286D01*
X4570619Y-13574381D01*
X4561095Y-13593428D01*
X4551571Y-13602952D01*
X4532524Y-13612476D01*
X4513476Y-13612476D01*
X4494429Y-13602952D01*
X4484905Y-13593428D01*
X4475381Y-13574381D01*
X4465857Y-13536286D01*
X4465857Y-13488667D01*
X4475381Y-13450571D01*
X4484905Y-13431524D01*
X4494429Y-13422000D01*
X4513476Y-13412476D01*
X4665857Y-13593428D02*
X4675381Y-13602952D01*
X4665857Y-13612476D01*
X4656333Y-13602952D01*
X4665857Y-13593428D01*
X4665857Y-13612476D01*
X4799190Y-13412476D02*
X4818238Y-13412476D01*
X4837286Y-13422000D01*
X4846810Y-13431524D01*
X4856333Y-13450571D01*
X4865857Y-13488667D01*
X4865857Y-13536286D01*
X4856333Y-13574381D01*
X4846810Y-13593428D01*
X4837286Y-13602952D01*
X4818238Y-13612476D01*
X4799190Y-13612476D01*
X4780143Y-13602952D01*
X4770619Y-13593428D01*
X4761095Y-13574381D01*
X4751571Y-13536286D01*
X4751571Y-13488667D01*
X4761095Y-13450571D01*
X4770619Y-13431524D01*
X4780143Y-13422000D01*
X4799190Y-13412476D01*
X4932524Y-13412476D02*
X5065857Y-13412476D01*
X4980143Y-13612476D01*
X5180143Y-13412476D02*
X5199190Y-13412476D01*
X5218238Y-13422000D01*
X5227762Y-13431524D01*
X5237286Y-13450571D01*
X5246810Y-13488667D01*
X5246810Y-13536286D01*
X5237286Y-13574381D01*
X5227762Y-13593428D01*
X5218238Y-13602952D01*
X5199190Y-13612476D01*
X5180143Y-13612476D01*
X5161095Y-13602952D01*
X5151571Y-13593428D01*
X5142048Y-13574381D01*
X5132524Y-13536286D01*
X5132524Y-13488667D01*
X5142048Y-13450571D01*
X5151571Y-13431524D01*
X5161095Y-13422000D01*
X5180143Y-13412476D01*
X5342048Y-13612476D02*
X5380143Y-13612476D01*
X5399190Y-13602952D01*
X5408714Y-13593428D01*
X5427762Y-13564857D01*
X5437286Y-13526762D01*
X5437286Y-13450571D01*
X5427762Y-13431524D01*
X5418238Y-13422000D01*
X5399190Y-13412476D01*
X5361095Y-13412476D01*
X5342048Y-13422000D01*
X5332524Y-13431524D01*
X5323000Y-13450571D01*
X5323000Y-13498190D01*
X5332524Y-13517238D01*
X5342048Y-13526762D01*
X5361095Y-13536286D01*
X5399190Y-13536286D01*
X5418238Y-13526762D01*
X5427762Y-13517238D01*
X5437286Y-13498190D01*
X5513476Y-13412476D02*
X5513476Y-13450571D01*
X5589667Y-13412476D02*
X5589667Y-13450571D01*
X5884905Y-13688667D02*
X5875381Y-13679143D01*
X5856333Y-13650571D01*
X5846809Y-13631524D01*
X5837286Y-13602952D01*
X5827762Y-13555333D01*
X5827762Y-13517238D01*
X5837286Y-13469619D01*
X5846809Y-13441048D01*
X5856333Y-13422000D01*
X5875381Y-13393428D01*
X5884905Y-13383905D01*
X5951571Y-13431524D02*
X5961095Y-13422000D01*
X5980143Y-13412476D01*
X6027762Y-13412476D01*
X6046809Y-13422000D01*
X6056333Y-13431524D01*
X6065857Y-13450571D01*
X6065857Y-13469619D01*
X6056333Y-13498190D01*
X5942048Y-13612476D01*
X6065857Y-13612476D01*
X6303952Y-13612476D02*
X6303952Y-13412476D01*
X6389667Y-13612476D02*
X6389667Y-13507714D01*
X6380143Y-13488667D01*
X6361095Y-13479143D01*
X6332524Y-13479143D01*
X6313476Y-13488667D01*
X6303952Y-13498190D01*
X6513476Y-13612476D02*
X6494428Y-13602952D01*
X6484905Y-13593428D01*
X6475381Y-13574381D01*
X6475381Y-13517238D01*
X6484905Y-13498190D01*
X6494428Y-13488667D01*
X6513476Y-13479143D01*
X6542048Y-13479143D01*
X6561095Y-13488667D01*
X6570619Y-13498190D01*
X6580143Y-13517238D01*
X6580143Y-13574381D01*
X6570619Y-13593428D01*
X6561095Y-13602952D01*
X6542048Y-13612476D01*
X6513476Y-13612476D01*
X6694428Y-13612476D02*
X6675381Y-13602952D01*
X6665857Y-13583905D01*
X6665857Y-13412476D01*
X6846809Y-13602952D02*
X6827762Y-13612476D01*
X6789667Y-13612476D01*
X6770619Y-13602952D01*
X6761095Y-13583905D01*
X6761095Y-13507714D01*
X6770619Y-13488667D01*
X6789667Y-13479143D01*
X6827762Y-13479143D01*
X6846809Y-13488667D01*
X6856333Y-13507714D01*
X6856333Y-13526762D01*
X6761095Y-13545809D01*
X6932524Y-13602952D02*
X6951571Y-13612476D01*
X6989667Y-13612476D01*
X7008714Y-13602952D01*
X7018238Y-13583905D01*
X7018238Y-13574381D01*
X7008714Y-13555333D01*
X6989667Y-13545809D01*
X6961095Y-13545809D01*
X6942048Y-13536286D01*
X6932524Y-13517238D01*
X6932524Y-13507714D01*
X6942048Y-13488667D01*
X6961095Y-13479143D01*
X6989667Y-13479143D01*
X7008714Y-13488667D01*
X7084905Y-13688667D02*
X7094428Y-13679143D01*
X7113476Y-13650571D01*
X7123000Y-13631524D01*
X7132524Y-13602952D01*
X7142048Y-13555333D01*
X7142048Y-13517238D01*
X7132524Y-13469619D01*
X7123000Y-13441048D01*
X7113476Y-13422000D01*
X7094428Y-13393428D01*
X7084905Y-13383905D01*
X7446809Y-13688667D02*
X7437286Y-13679143D01*
X7418238Y-13650571D01*
X7408714Y-13631524D01*
X7399190Y-13602952D01*
X7389667Y-13555333D01*
X7389667Y-13517238D01*
X7399190Y-13469619D01*
X7408714Y-13441048D01*
X7418238Y-13422000D01*
X7437286Y-13393428D01*
X7446809Y-13383905D01*
X7523000Y-13479143D02*
X7523000Y-13612476D01*
X7523000Y-13498190D02*
X7532524Y-13488667D01*
X7551571Y-13479143D01*
X7580143Y-13479143D01*
X7599190Y-13488667D01*
X7608714Y-13507714D01*
X7608714Y-13612476D01*
X7732524Y-13612476D02*
X7713476Y-13602952D01*
X7703952Y-13593428D01*
X7694428Y-13574381D01*
X7694428Y-13517238D01*
X7703952Y-13498190D01*
X7713476Y-13488667D01*
X7732524Y-13479143D01*
X7761095Y-13479143D01*
X7780143Y-13488667D01*
X7789667Y-13498190D01*
X7799190Y-13517238D01*
X7799190Y-13574381D01*
X7789667Y-13593428D01*
X7780143Y-13602952D01*
X7761095Y-13612476D01*
X7732524Y-13612476D01*
X7856333Y-13479143D02*
X7932524Y-13479143D01*
X7884905Y-13412476D02*
X7884905Y-13583905D01*
X7894428Y-13602952D01*
X7913476Y-13612476D01*
X7932524Y-13612476D01*
X8151571Y-13479143D02*
X8151571Y-13679143D01*
X8151571Y-13488667D02*
X8170619Y-13479143D01*
X8208714Y-13479143D01*
X8227762Y-13488667D01*
X8237286Y-13498190D01*
X8246809Y-13517238D01*
X8246809Y-13574381D01*
X8237286Y-13593428D01*
X8227762Y-13602952D01*
X8208714Y-13612476D01*
X8170619Y-13612476D01*
X8151571Y-13602952D01*
X8361095Y-13612476D02*
X8342048Y-13602952D01*
X8332524Y-13583905D01*
X8332524Y-13412476D01*
X8523000Y-13612476D02*
X8523000Y-13507714D01*
X8513476Y-13488667D01*
X8494429Y-13479143D01*
X8456333Y-13479143D01*
X8437286Y-13488667D01*
X8523000Y-13602952D02*
X8503952Y-13612476D01*
X8456333Y-13612476D01*
X8437286Y-13602952D01*
X8427762Y-13583905D01*
X8427762Y-13564857D01*
X8437286Y-13545809D01*
X8456333Y-13536286D01*
X8503952Y-13536286D01*
X8523000Y-13526762D01*
X8589667Y-13479143D02*
X8665857Y-13479143D01*
X8618238Y-13412476D02*
X8618238Y-13583905D01*
X8627762Y-13602952D01*
X8646810Y-13612476D01*
X8665857Y-13612476D01*
X8808714Y-13602952D02*
X8789667Y-13612476D01*
X8751571Y-13612476D01*
X8732524Y-13602952D01*
X8723000Y-13583905D01*
X8723000Y-13507714D01*
X8732524Y-13488667D01*
X8751571Y-13479143D01*
X8789667Y-13479143D01*
X8808714Y-13488667D01*
X8818238Y-13507714D01*
X8818238Y-13526762D01*
X8723000Y-13545809D01*
X8989667Y-13612476D02*
X8989667Y-13412476D01*
X8989667Y-13602952D02*
X8970619Y-13612476D01*
X8932524Y-13612476D01*
X8913476Y-13602952D01*
X8903952Y-13593428D01*
X8894429Y-13574381D01*
X8894429Y-13517238D01*
X8903952Y-13498190D01*
X8913476Y-13488667D01*
X8932524Y-13479143D01*
X8970619Y-13479143D01*
X8989667Y-13488667D01*
X9065857Y-13688667D02*
X9075381Y-13679143D01*
X9094429Y-13650571D01*
X9103952Y-13631524D01*
X9113476Y-13602952D01*
X9123000Y-13555333D01*
X9123000Y-13517238D01*
X9113476Y-13469619D01*
X9103952Y-13441048D01*
X9094429Y-13422000D01*
X9075381Y-13393428D01*
X9065857Y-13383905D01*
M02*
