G04 #@! TF.GenerationSoftware,KiCad,Pcbnew,6.0.11-2627ca5db0~126~ubuntu22.04.1*
G04 #@! TF.CreationDate,2023-02-16T15:19:58+00:00*
G04 #@! TF.ProjectId,srom,73726f6d-2e6b-4696-9361-645f70636258,v1.2*
G04 #@! TF.SameCoordinates,Original*
G04 #@! TF.FileFunction,Soldermask,Bot*
G04 #@! TF.FilePolarity,Negative*
%FSLAX46Y46*%
G04 Gerber Fmt 4.6, Leading zero omitted, Abs format (unit mm)*
G04 Created by KiCad (PCBNEW 6.0.11-2627ca5db0~126~ubuntu22.04.1) date 2023-02-16 15:19:58*
%MOMM*%
%LPD*%
G01*
G04 APERTURE LIST*
%ADD10C,0.150000*%
%ADD11C,2.000000*%
%ADD12R,1.700000X1.700000*%
%ADD13O,1.700000X1.700000*%
%ADD14C,2.200000*%
%ADD15C,1.700000*%
%ADD16C,1.524000*%
%ADD17O,1.800000X1.800000*%
%ADD18O,1.500000X1.500000*%
G04 APERTURE END LIST*
D10*
X91900000Y-125490000D02*
X70190000Y-125490000D01*
X70190000Y-125490000D02*
X70190000Y-123340000D01*
X70190000Y-123340000D02*
X91900000Y-123340000D01*
X91900000Y-123340000D02*
X91900000Y-125490000D01*
G36*
X91900000Y-125490000D02*
G01*
X70190000Y-125490000D01*
X70190000Y-123340000D01*
X91900000Y-123340000D01*
X91900000Y-125490000D01*
G37*
D11*
X48200000Y-122000000D03*
X45660000Y-122000000D03*
X95140000Y-122840000D03*
X50740000Y-122000000D03*
X101770000Y-54650000D03*
X53280000Y-122000000D03*
X50740000Y-124540000D03*
X68540000Y-53260000D03*
X66140000Y-73680000D03*
X45660000Y-124540000D03*
X55820000Y-122000000D03*
X99730000Y-52600000D03*
X48200000Y-124540000D03*
D12*
X91730000Y-113165000D03*
D13*
X89190000Y-113165000D03*
X86650000Y-113165000D03*
D14*
X99425000Y-124150000D03*
X99425000Y-117150000D03*
D15*
X101925000Y-118400000D03*
X101925000Y-122900000D03*
D11*
X53280000Y-124540000D03*
X74630000Y-82520000D03*
X55820000Y-124540000D03*
D16*
X28150000Y-63740000D03*
X33150000Y-63740000D03*
X33150000Y-53580000D03*
X33150000Y-56120000D03*
X33150000Y-58660000D03*
X33150000Y-61200000D03*
X33150000Y-66280000D03*
X33150000Y-68820000D03*
X33150000Y-71360000D03*
X33150000Y-73900000D03*
X33150000Y-76440000D03*
X33150000Y-78980000D03*
X33150000Y-81520000D03*
X33150000Y-84060000D03*
X33150000Y-86600000D03*
X33150000Y-89140000D03*
X33150000Y-91680000D03*
X33150000Y-94220000D03*
X33150000Y-96760000D03*
X33150000Y-99300000D03*
X33150000Y-101840000D03*
X33150000Y-104380000D03*
X33150000Y-106920000D03*
X33150000Y-109460000D03*
X33150000Y-112000000D03*
X33150000Y-114540000D03*
X33150000Y-117080000D03*
X33150000Y-119620000D03*
X33150000Y-122160000D03*
X28150000Y-53580000D03*
X28150000Y-56120000D03*
X28150000Y-58660000D03*
X28150000Y-61200000D03*
X28150000Y-66280000D03*
X28150000Y-68820000D03*
X28150000Y-71360000D03*
X28150000Y-73900000D03*
X28150000Y-76440000D03*
X28150000Y-78980000D03*
X28150000Y-81520000D03*
X28150000Y-84060000D03*
X28150000Y-86600000D03*
X28150000Y-89140000D03*
X28150000Y-91680000D03*
X28150000Y-94220000D03*
X28150000Y-96760000D03*
X28150000Y-99300000D03*
X28150000Y-101840000D03*
X28150000Y-104380000D03*
X28150000Y-106920000D03*
X28150000Y-109460000D03*
X28150000Y-112000000D03*
X28150000Y-114540000D03*
X28150000Y-117080000D03*
X28150000Y-119620000D03*
X28150000Y-122160000D03*
D17*
X91965000Y-58320000D03*
X86515000Y-58320000D03*
D18*
X91665000Y-61350000D03*
X86815000Y-61350000D03*
D13*
X80350000Y-58190000D03*
X80350000Y-60730000D03*
D12*
X80350000Y-63270000D03*
D13*
X80350000Y-65810000D03*
X80350000Y-68350000D03*
X80350000Y-70890000D03*
X80350000Y-73430000D03*
D12*
X80350000Y-75970000D03*
D13*
X80350000Y-78510000D03*
X80350000Y-81050000D03*
X80350000Y-83590000D03*
X80350000Y-86130000D03*
D12*
X80350000Y-88670000D03*
D13*
X80350000Y-91210000D03*
X80350000Y-93750000D03*
X80350000Y-96290000D03*
X80350000Y-98830000D03*
D12*
X80350000Y-101370000D03*
D13*
X80350000Y-103910000D03*
X80350000Y-106450000D03*
X98130000Y-106450000D03*
X98130000Y-103910000D03*
D12*
X98130000Y-101370000D03*
D13*
X98130000Y-98830000D03*
X98130000Y-96290000D03*
X98130000Y-93750000D03*
X98130000Y-91210000D03*
D12*
X98130000Y-88670000D03*
D13*
X98130000Y-86130000D03*
X98130000Y-83590000D03*
X98130000Y-81050000D03*
X98130000Y-78510000D03*
D12*
X98130000Y-75970000D03*
D13*
X98130000Y-73430000D03*
X98130000Y-70890000D03*
X98130000Y-68350000D03*
X98130000Y-65810000D03*
D12*
X98130000Y-63270000D03*
D13*
X98130000Y-60730000D03*
X98130000Y-58190000D03*
X86700000Y-106220000D03*
D12*
X89240000Y-106220000D03*
D13*
X91780000Y-106220000D03*
M02*
